InterKhmerLoopless-Italic.glyphspackage
{
category = Letter;
glyphname = "ka-khmer";
layers = (
{
anchors = (
{
name = bottom;
pos = (515,0);
},
{
name = bottomright;
pos = (901,0);
},
{
name = top;
pos = (719,1233);
},
{
name = topright;
pos = (1105,1233);
}
);
layerId = "200BE2C5-40F6-4CF4-AF4F-A33C0CC0964F";
shapes = (
{
closed = 1;
nodes = (
(129,0,l),
(175,0,l),
(271,582,ls),
(305,784,o),
(455,908,o),
(665,908,cs),
(881,908,o),
(983,779,o),
(951,582,cs),
(855,0,l),
(901,0,l),
(997,582,ls),
(1035,810,o),
(906,954,o),
(668,954,cs),
(432,954,o),
(263,810,o),
(225,582,cs)
);
},
{
closed = 1;
nodes = (
(1105,1187,l),
(1113,1233,l),
(326,1233,l),
(318,1187,l)
);
}
);
width = 1215;
},
{
anchors = (
{
name = bottom;
pos = (553,0);
},
{
name = bottomright;
pos = (997,0);
},
{
name = top;
pos = (758,1233);
},
{
name = topright;
pos = (1201,1233);
}
);
layerId = "11F4534A-B963-4AB5-820F-DAF9A20CD933";
shapes = (
{
closed = 1;
nodes = (
(110,0,l),
(277,0,l),
(361,505,ls),
(387,661,o),
(516,768,o),
(681,768,cs),
(845,768,o),
(940,661,o),
(913,505,cs),
(830,0,l),
(997,0,l),
(1082,513,ls),
(1122,755,o),
(955,919,o),
(691,919,cs),
(427,919,o),
(235,755,o),
(195,513,cs)
);
},
{
closed = 1;
nodes = (
(1183,1076,l),
(1209,1233,l),
(307,1233,l),
(281,1076,l)
);
}
);
width = 1292;
},
{
anchors = (
{
name = bottom;
pos = (580,0);
},
{
name = bottomright;
pos = (1115,0);
},
{
name = top;
pos = (784,1233);
},
{
name = topright;
pos = (1319,1233);
}
);
layerId = "D0EC06BF-13F9-4C88-A6F5-B8203AF6C77E";
shapes = (
{
closed = 1;
nodes = (
(44,0,l),
(439,0,l),
(505,400,ls),
(519,484,o),
(582,540,o),
(668,540,cs),
(755,540,o),
(801,484,o),
(787,400,cs),
(721,0,l),
(1115,0,l),
(1184,417,ls),
(1227,674,o),
(1053,833,o),
(703,833,cs),
(352,833,o),
(156,674,o),
(113,417,cs)
);
},
{
closed = 1;
nodes = (
(1271,895,l),
(1327,1233,l),
(241,1233,l),
(185,895,l)
);
}
);
width = 1344;
}
);
script = khmer;
subCategory = Other;
unicode = 6016;
}
{
category = Letter;
glyphname = "kha-khmer";
kernLeft = KH_KHA;
layers = (
{
anchors = (
{
name = bottom;
pos = (505,0);
},
{
name = bottomright;
pos = (873,0);
},
{
name = top;
pos = (719,1233);
},
{
name = topright;
pos = (1105,1233);
}
);
layerId = "200BE2C5-40F6-4CF4-AF4F-A33C0CC0964F";
shapes = (
{
closed = 1;
nodes = (
(732,-15,o),
(909,132,o),
(945,346,cs),
(965,468,l),
(919,468,l),
(898,346,ls),
(867,159,o),
(708,31,o),
(505,31,cs),
(303,31,o),
(185,159,o),
(217,346,cs),
(254,570,l),
(591,570,ls),
(854,570,o),
(1031,695,o),
(1064,900,cs),
(1099,1110,o),
(956,1248,o),
(716,1248,cs),
(463,1248,o),
(290,1090,o),
(259,894,c),
(305,894,l),
(336,1078,o),
(501,1203,o),
(713,1203,cs),
(911,1203,o),
(1049,1095,o),
(1019,907,cs),
(993,744,o),
(855,614,o),
(597,614,cs),
(215,614,l),
(170,346,ls),
(135,132,o),
(271,-15,o),
(503,-15,cs)
);
}
);
width = 1191;
},
{
anchors = (
{
name = bottom;
pos = (536,0);
},
{
name = bottomright;
pos = (946,0);
},
{
name = top;
pos = (761,1233);
},
{
name = topright;
pos = (1167,1233);
}
);
layerId = "11F4534A-B963-4AB5-820F-DAF9A20CD933";
shapes = (
{
closed = 1;
nodes = (
(797,-15,o),
(983,140,o),
(1023,375,cs),
(1031,423,l),
(864,423,l),
(856,375,ls),
(831,226,o),
(705,128,o),
(539,128,cs),
(375,128,o),
(281,226,o),
(307,375,cs),
(329,509,l),
(607,509,ls),
(919,509,o),
(1092,655,o),
(1124,846,cs),
(1168,1111,o),
(988,1248,o),
(730,1248,cs),
(452,1248,o),
(262,1097,o),
(217,832,c),
(385,832,l),
(415,1010,o),
(540,1105,o),
(721,1105,cs),
(884,1105,o),
(984,1020,o),
(957,858,cs),
(937,740,o),
(833,644,o),
(629,644,cs),
(185,644,l),
(140,375,ls),
(100,140,o),
(265,-15,o),
(529,-15,cs)
);
}
);
width = 1258;
},
{
anchors = (
{
name = bottom;
pos = (571,0);
},
{
name = bottomright;
pos = (1052,0);
},
{
name = top;
pos = (764,1233);
},
{
name = topright;
pos = (1284,1233);
}
);
layerId = "D0EC06BF-13F9-4C88-A6F5-B8203AF6C77E";
shapes = (
{
closed = 1;
nodes = (
(910,-15,o),
(1096,107,o),
(1137,362,cs),
(1143,403,l),
(751,403,l),
(748,386,ls),
(735,316,o),
(673,275,o),
(595,275,cs),
(512,275,o),
(467,325,o),
(479,397,cs),
(491,465,l),
(640,465,ls),
(999,465,o),
(1199,592,o),
(1237,827,cs),
(1280,1087,o),
(1096,1248,o),
(749,1248,cs),
(415,1248,o),
(203,1098,o),
(153,796,c),
(547,796,l),
(564,902,o),
(636,954,o),
(718,954,cs),
(801,954,o),
(846,901,o),
(832,817,cs),
(818,735,o),
(758,683,o),
(655,683,cs),
(134,683,l),
(86,392,ls),
(41,121,o),
(209,-15,o),
(569,-15,cs)
);
}
);
width = 1312;
}
);
script = khmer;
subCategory = Other;
unicode = 6017;
}
{
category = Letter;
glyphname = "ko-khmer";
layers = (
{
anchors = (
{
name = bottom;
pos = (515,0);
},
{
name = bottomright;
pos = (901,0);
},
{
name = top;
pos = (719,1233);
},
{
name = topright;
pos = (1105,1233);
}
);
layerId = "200BE2C5-40F6-4CF4-AF4F-A33C0CC0964F";
shapes = (
{
closed = 1;
nodes = (
(129,0,l),
(175,0,l),
(180,25,ls),
(220,256,o),
(347,374,o),
(542,374,cs),
(590,374,l),
(597,417,l),
(549,417,ls),
(387,417,o),
(267,345,o),
(215,212,c),
(210,212,l),
(271,582,ls),
(305,783,o),
(454,908,o),
(665,908,cs),
(881,908,o),
(983,779,o),
(951,582,cs),
(855,0,l),
(901,0,l),
(997,582,ls),
(1035,810,o),
(906,954,o),
(668,954,cs),
(432,954,o),
(263,810,o),
(225,582,cs)
);
},
{
closed = 1;
nodes = (
(1105,1187,l),
(1113,1233,l),
(326,1233,l),
(318,1187,l)
);
}
);
width = 1215;
},
{
anchors = (
{
name = bottom;
pos = (553,0);
},
{
name = bottomright;
pos = (997,0);
},
{
name = top;
pos = (758,1233);
},
{
name = topright;
pos = (1201,1233);
}
);
layerId = "11F4534A-B963-4AB5-820F-DAF9A20CD933";
shapes = (
{
closed = 1;
nodes = (
(110,0,l),
(277,0,l),
(295,107,ls),
(313,222,o),
(388,312,o),
(525,312,cs),
(637,312,l),
(660,455,l),
(559,455,ls),
(473,455,o),
(393,421,o),
(337,321,c),
(330,321,l),
(361,505,ls),
(387,661,o),
(516,768,o),
(681,768,cs),
(845,768,o),
(940,661,o),
(913,505,cs),
(830,0,l),
(997,0,l),
(1082,513,ls),
(1122,755,o),
(955,919,o),
(691,919,cs),
(427,919,o),
(235,755,o),
(195,513,cs)
);
},
{
closed = 1;
nodes = (
(1183,1076,l),
(1209,1233,l),
(307,1233,l),
(281,1076,l)
);
}
);
width = 1292;
},
{
anchors = (
{
name = bottom;
pos = (580,0);
},
{
name = bottomright;
pos = (1115,0);
},
{
name = top;
pos = (784,1233);
},
{
name = topright;
pos = (1319,1233);
}
);
layerId = "D0EC06BF-13F9-4C88-A6F5-B8203AF6C77E";
shapes = (
{
closed = 1;
nodes = (
(44,0,l),
(436,0,l),
(444,53,ls),
(452,96,o),
(484,120,o),
(534,120,cs),
(681,120,l),
(727,393,l),
(654,393,ls),
(569,393,o),
(519,352,o),
(491,282,c),
(485,282,l),
(505,400,ls),
(519,484,o),
(582,540,o),
(668,540,cs),
(755,540,o),
(801,484,o),
(787,400,cs),
(721,0,l),
(1115,0,l),
(1184,417,ls),
(1227,674,o),
(1053,833,o),
(703,833,cs),
(352,833,o),
(156,674,o),
(113,417,cs)
);
},
{
closed = 1;
nodes = (
(1271,895,l),
(1327,1233,l),
(241,1233,l),
(185,895,l)
);
}
);
width = 1344;
}
);
script = khmer;
subCategory = Other;
unicode = 6018;
}
{
category = Letter;
glyphname = "kho-khmer";
layers = (
{
anchors = (
{
name = bottom;
pos = (1175,0);
},
{
name = bottomright;
pos = (1525,0);
},
{
name = top;
pos = (1380,1233);
},
{
name = topright;
pos = (1744,1233);
}
);
layerId = "200BE2C5-40F6-4CF4-AF4F-A33C0CC0964F";
shapes = (
{
closed = 1;
nodes = (
(668,-15,o),
(807,76,o),
(874,218,c),
(881,218,l),
(900,76,o),
(1007,-15,o),
(1176,-15,cs),
(1387,-15,o),
(1561,124,o),
(1594,329,cs),
(1688,896,ls),
(1692,916,o),
(1685,925,o),
(1670,931,cs),
(1532,983,l),
(1542,962,l),
(1557,1055,ls),
(1574,1152,o),
(1626,1187,o),
(1705,1187,cs),
(1799,1187,l),
(1807,1233,l),
(1713,1233,ls),
(1612,1233,o),
(1535,1184,o),
(1513,1055,cs),
(1497,950,l),
(1641,894,l),
(1548,329,ls),
(1519,153,o),
(1366,32,o),
(1177,32,cs),
(987,32,o),
(890,153,o),
(919,329,cs),
(1013,896,ls),
(1017,916,o),
(1010,925,o),
(995,931,cs),
(857,983,l),
(867,962,l),
(882,1055,ls),
(899,1152,o),
(951,1187,o),
(1031,1187,cs),
(1124,1187,l),
(1132,1233,l),
(1039,1233,ls),
(937,1233,o),
(860,1184,o),
(839,1055,cs),
(822,950,l),
(967,894,l),
(873,329,ls),
(844,153,o),
(689,32,o),
(495,32,cs),
(301,32,o),
(201,153,o),
(230,329,cs),
(295,721,ls),
(319,871,o),
(428,949,o),
(451,1084,cs),
(467,1182,o),
(424,1241,o),
(331,1241,cs),
(308,1241,o),
(284,1237,o),
(249,1229,c),
(242,1185,l),
(276,1195,o),
(308,1197,o),
(323,1197,cs),
(391,1197,o),
(417,1159,o),
(404,1084,cs),
(383,954,o),
(276,887,o),
(249,721,cs),
(183,329,ls),
(150,124,o),
(279,-15,o),
(494,-15,cs)
);
}
);
width = 1853;
},
{
anchors = (
{
name = bottom;
pos = (1230,0);
},
{
name = bottomright;
pos = (1644,0);
},
{
name = top;
pos = (1435,1233);
},
{
name = topright;
pos = (1863,1233);
}
);
layerId = "11F4534A-B963-4AB5-820F-DAF9A20CD933";
shapes = (
{
closed = 1;
nodes = (
(705,-15,o),
(822,49,o),
(910,175,c),
(917,175,l),
(963,49,o),
(1088,-15,o),
(1249,-15,cs),
(1505,-15,o),
(1683,144,o),
(1721,377,cs),
(1793,813,ls),
(1801,856,o),
(1789,873,o),
(1750,891,cs),
(1647,939,l),
(1652,879,l),
(1666,966,ls),
(1678,1037,o),
(1721,1076,o),
(1804,1076,cs),
(1894,1076,l),
(1920,1233,l),
(1818,1233,ls),
(1655,1233,o),
(1559,1151,o),
(1531,977,cs),
(1511,855,l),
(1624,799,l),
(1556,388,ls),
(1531,240,o),
(1417,137,o),
(1252,137,cs),
(1087,137,o),
(1007,240,o),
(1032,388,cs),
(1103,813,ls),
(1110,856,o),
(1098,873,o),
(1059,891,cs),
(956,939,l),
(961,879,l),
(975,966,ls),
(987,1037,o),
(1031,1076,o),
(1113,1076,cs),
(1203,1076,l),
(1229,1233,l),
(1127,1233,ls),
(964,1233,o),
(868,1151,o),
(840,977,cs),
(820,855,l),
(933,799,l),
(865,388,ls),
(840,240,o),
(726,137,o),
(561,137,cs),
(396,137,o),
(316,240,o),
(341,388,cs),
(386,657,ls),
(418,847,o),
(509,911,o),
(532,1047,cs),
(550,1159,o),
(513,1241,o),
(364,1241,cs),
(333,1241,o),
(296,1237,o),
(255,1228,c),
(231,1091,l),
(253,1095,o),
(281,1098,o),
(299,1098,cs),
(364,1098,o),
(370,1052,o),
(364,1018,cs),
(351,936,o),
(249,849,o),
(220,670,cs),
(172,377,ls),
(135,144,o),
(289,-15,o),
(544,-15,cs)
);
}
);
width = 1953;
},
{
anchors = (
{
name = bottom;
pos = (1233,0);
},
{
name = bottomright;
pos = (1739,0);
},
{
name = top;
pos = (1437,1233);
},
{
name = topright;
pos = (1967,1233);
}
);
background = {
anchors = (
{
name = bottom;
pos = (1233,0);
},
{
name = bottomright;
pos = (1747,0);
},
{
name = top;
pos = (1438,1233);
},
{
name = topright;
pos = (1967,1233);
}
);
shapes = (
{
closed = 1;
nodes = (
(676,-15,o),
(849,8,o),
(920,132,c),
(929,132,l),
(974,8,o),
(1146,-15,o),
(1276,-15,cs),
(1620,-15,o),
(1788,145,o),
(1830,403,cs),
(1878,695,ls),
(1888,756,o),
(1858,774,o),
(1808,790,cs),
(1644,842,l),
(1679,783,l),
(1690,852,ls),
(1695,880,o),
(1721,895,o),
(1765,895,cs),
(1940,895,l),
(1996,1233,l),
(1769,1233,ls),
(1532,1233,o),
(1447,1116,o),
(1420,953,cs),
(1384,737,l),
(1484,693,l),
(1438,419,ls),
(1424,335,o),
(1359,279,o),
(1280,279,cs),
(1201,279,o),
(1156,335,o),
(1169,419,cs),
(1215,695,ls),
(1226,761,o),
(1189,776,o),
(1145,790,cs),
(981,842,l),
(1016,783,l),
(1028,852,ls),
(1032,880,o),
(1058,895,o),
(1103,895,cs),
(1277,895,l),
(1333,1233,l),
(1107,1233,ls),
(869,1233,o),
(784,1116,o),
(757,953,cs),
(721,737,l),
(821,693,l),
(775,419,ls),
(761,335,o),
(697,279,o),
(618,279,cs),
(540,279,o),
(493,335,o),
(507,419,cs),
(554,702,ls),
(576,831,o),
(639,907,o),
(660,1035,cs),
(691,1222,o),
(559,1241,o),
(412,1241,cs),
(302,1241,o),
(240,1230,o),
(196,1219,c),
(153,959,l),
(178,964,o),
(193,965,o),
(201,965,cs),
(244,965,o),
(251,932,o),
(246,902,cs),
(236,838,o),
(178,816,o),
(156,677,cs),
(111,403,ls),
(68,145,o),
(203,-15,o),
(547,-15,cs)
);
}
);
};
layerId = "D0EC06BF-13F9-4C88-A6F5-B8203AF6C77E";
shapes = (
{
closed = 1;
nodes = (
(690,-15,o),
(841,20,o),
(919,132,c),
(928,132,l),
(973,20,o),
(1125,-15,o),
(1282,-15,cs),
(1594,-15,o),
(1785,139,o),
(1826,388,cs),
(1877,695,ls),
(1887,756,o),
(1857,774,o),
(1807,790,cs),
(1643,842,l),
(1678,783,l),
(1689,852,ls),
(1694,880,o),
(1720,895,o),
(1764,895,cs),
(1939,895,l),
(1995,1233,l),
(1769,1233,ls),
(1531,1233,o),
(1446,1116,o),
(1419,953,cs),
(1383,737,l),
(1483,693,l),
(1437,419,ls),
(1423,335,o),
(1359,279,o),
(1279,279,cs),
(1201,279,o),
(1155,335,o),
(1169,419,cs),
(1215,695,ls),
(1225,761,o),
(1188,776,o),
(1145,790,cs),
(980,842,l),
(1015,783,l),
(1027,852,ls),
(1031,880,o),
(1057,895,o),
(1102,895,cs),
(1276,895,l),
(1332,1233,l),
(1106,1233,ls),
(868,1233,o),
(783,1116,o),
(756,953,cs),
(721,737,l),
(820,693,l),
(775,419,ls),
(761,335,o),
(696,279,o),
(617,279,cs),
(538,279,o),
(492,335,o),
(506,419,cs),
(553,702,ls),
(575,831,o),
(632,868,o),
(660,1035,cs),
(684,1183,o),
(585,1241,o),
(407,1241,cs),
(327,1241,o),
(239,1230,o),
(196,1219,c),
(153,959,l),
(177,964,o),
(185,965,o),
(200,965,cs),
(237,965,o),
(252,942,o),
(245,902,cs),
(236,848,o),
(178,816,o),
(155,677,cs),
(107,388,ls),
(65,139,o),
(216,-15,o),
(546,-15,cs)
);
}
);
width = 1991;
}
);
script = khmer;
subCategory = Other;
unicode = 6019;
}
{
category = Letter;
glyphname = "ngo-khmer";
layers = (
{
anchors = (
{
name = bottom;
pos = (515,0);
},
{
name = bottomright;
pos = (902,0);
},
{
name = top;
pos = (719,1233);
},
{
name = topright;
pos = (1041,1233);
}
);
layerId = "200BE2C5-40F6-4CF4-AF4F-A33C0CC0964F";
shapes = (
{
closed = 1;
nodes = (
(177,0,l),
(579,374,l),
(582,374,l),
(860,0,l),
(901,0,l),
(1030,779,ls),
(1045,871,o),
(1007,940,o),
(929,969,c),
(932,972,l),
(978,1007,o),
(1013,1071,o),
(1027,1153,cs),
(1041,1233,l),
(994,1233,l),
(981,1156,ls),
(956,1004,o),
(828,923,o),
(633,923,cs),
(432,923,o),
(335,1011,o),
(363,1180,cs),
(395,1373,l),
(348,1373,l),
(316,1183,ls),
(284,986,o),
(398,879,o),
(631,879,cs),
(730,879,o),
(838,908,o),
(908,950,c),
(885,946,l),
(963,926,o),
(998,866,o),
(984,782,cs),
(866,71,l),
(863,71,l),
(599,425,l),
(570,425,l),
(189,71,l),
(187,71,l),
(282,645,ls),
(288,680,o),
(272,698,o),
(236,698,cs),
(124,698,l),
(116,655,l),
(237,655,l),
(129,0,l)
);
}
);
width = 1215;
},
{
anchors = (
{
name = bottom;
pos = (553,0);
},
{
name = bottomright;
pos = (997,0);
},
{
name = top;
pos = (758,1233);
},
{
name = topright;
pos = (1130,1233);
}
);
layerId = "11F4534A-B963-4AB5-820F-DAF9A20CD933";
shapes = (
{
closed = 1;
nodes = (
(283,0,l),
(605,284,l),
(611,284,l),
(839,0,l),
(997,0,l),
(1127,785,ls),
(1149,916,o),
(1113,993,o),
(1040,1031,c),
(1040,1034,l),
(1084,1064,o),
(1110,1112,o),
(1119,1169,cs),
(1130,1233,l),
(959,1233,l),
(950,1176,ls),
(932,1065,o),
(825,1001,o),
(674,1001,cs),
(508,1001,o),
(436,1079,o),
(457,1212,cs),
(484,1373,l),
(317,1373,l),
(290,1212,ls),
(254,992,o),
(399,866,o),
(652,866,cs),
(820,866,o),
(936,921,o),
(1006,1017,c),
(889,967,l),
(935,956,o),
(980,910,o),
(959,783,cs),
(863,204,l),
(855,204,l),
(650,459,l),
(608,459,l),
(319,204,l),
(311,204,l),
(370,561,ls),
(383,634,o),
(349,675,o),
(279,675,cs),
(121,675,l),
(99,538,l),
(199,538,l),
(110,0,l)
);
}
);
width = 1292;
},
{
anchors = (
{
name = bottom;
pos = (579,0);
},
{
name = bottomright;
pos = (1114,0);
},
{
name = top;
pos = (783,1233);
},
{
name = topright;
pos = (1321,1233);
}
);
layerId = "D0EC06BF-13F9-4C88-A6F5-B8203AF6C77E";
shapes = (
{
closed = 1;
nodes = (
(447,0,l),
(615,186,l),
(624,186,l),
(732,0,l),
(1114,0,l),
(1230,697,ls),
(1252,833,o),
(1200,895,o),
(1115,919,c),
(1117,929,l),
(1195,965,o),
(1244,1035,o),
(1260,1129,cs),
(1278,1233,l),
(881,1233,l),
(867,1152,ls),
(855,1081,o),
(803,1047,o),
(715,1047,cs),
(630,1047,o),
(588,1088,o),
(599,1159,cs),
(628,1335,l),
(249,1335,l),
(217,1136,ls),
(182,923,o),
(319,793,o),
(665,793,cs),
(781,793,o),
(894,823,o),
(1007,871,c),
(736,892,l),
(818,869,o),
(855,816,o),
(840,727,cs),
(780,359,l),
(771,359,l),
(692,489,l),
(627,489,l),
(506,359,l),
(497,359,l),
(528,543,ls),
(542,629,o),
(495,679,o),
(399,679,cs),
(76,679,l),
(44,477,l),
(123,477,l),
(44,0,l)
);
}
);
width = 1343;
}
);
script = khmer;
subCategory = Other;
unicode = 6020;
}
{
category = Letter;
glyphname = "ca-khmer";
kernLeft = KH_CA;
layers = (
{
anchors = (
{
name = bottom;
pos = (523,0);
},
{
name = bottomright;
pos = (895,0);
},
{
name = top;
pos = (727,1233);
},
{
name = topright;
pos = (1113,1233);
}
);
layerId = "200BE2C5-40F6-4CF4-AF4F-A33C0CC0964F";
shapes = (
{
closed = 1;
nodes = (
(750,-15,o),
(930,128,o),
(965,336,cs),
(1041,796,ls),
(1058,900,o),
(1015,961,o),
(907,961,cs),
(880,961,o),
(856,957,o),
(826,951,c),
(819,908,l),
(853,917,o),
(874,920,o),
(895,920,cs),
(978,920,o),
(1007,875,o),
(994,796,cs),
(919,336,ls),
(889,156,o),
(725,32,o),
(521,32,cs),
(317,32,o),
(209,156,o),
(239,336,cs),
(335,915,ls),
(338,935,o),
(331,945,o),
(316,950,cs),
(212,983,l),
(222,962,l),
(235,1039,ls),
(252,1147,o),
(317,1187,o),
(411,1187,cs),
(1105,1187,l),
(1113,1233,l),
(419,1233,ls),
(297,1233,o),
(214,1177,o),
(191,1039,cs),
(177,950,l),
(288,911,l),
(193,336,ls),
(158,128,o),
(291,-15,o),
(520,-15,cs)
);
}
);
width = 1223;
},
{
anchors = (
{
name = bottom;
pos = (567,0);
},
{
name = bottomright;
pos = (996,0);
},
{
name = top;
pos = (771,1233);
},
{
name = topright;
pos = (1215,1233);
}
);
layerId = "11F4534A-B963-4AB5-820F-DAF9A20CD933";
shapes = (
{
closed = 1;
nodes = (
(852,-15,o),
(1034,144,o),
(1073,377,cs),
(1127,705,ls),
(1147,830,o),
(1076,919,o),
(927,919,cs),
(884,919,o),
(846,912,o),
(825,904,c),
(803,768,l),
(825,775,o),
(845,777,o),
(870,777,cs),
(935,777,o),
(969,758,o),
(959,701,cs),
(907,385,ls),
(881,233,o),
(761,127,o),
(588,127,cs),
(415,127,o),
(329,233,o),
(354,385,cs),
(425,813,ls),
(432,856,o),
(420,871,o),
(381,891,cs),
(271,949,l),
(297,887,l),
(312,973,ls),
(324,1044,o),
(361,1076,o),
(433,1076,cs),
(1196,1076,l),
(1222,1233,l),
(463,1233,ls),
(292,1233,o),
(197,1156,o),
(168,977,cs),
(149,862,l),
(255,801,l),
(185,377,ls),
(147,144,o),
(306,-15,o),
(579,-15,cs)
);
}
);
width = 1305;
},
{
anchors = (
{
name = bottom;
pos = (592,0);
},
{
name = bottomright;
pos = (1105,0);
},
{
name = top;
pos = (796,1233);
},
{
name = topright;
pos = (1332,1233);
}
);
layerId = "D0EC06BF-13F9-4C88-A6F5-B8203AF6C77E";
shapes = (
{
closed = 1;
nodes = (
(941,-15,o),
(1150,132,o),
(1191,385,cs),
(1217,547,ls),
(1246,720,o),
(1137,815,o),
(934,815,cs),
(875,815,o),
(797,807,o),
(727,780,c),
(684,525,l),
(713,532,o),
(737,534,o),
(751,534,cs),
(797,534,o),
(818,511,o),
(812,473,cs),
(801,409,ls),
(787,327,o),
(727,278,o),
(638,278,cs),
(550,278,o),
(505,326,o),
(519,409,cs),
(564,684,ls),
(575,750,o),
(547,769,o),
(495,788,cs),
(339,843,l),
(372,735,l),
(390,838,ls),
(396,876,o),
(422,895,o),
(467,895,cs),
(1276,895,l),
(1332,1233,l),
(490,1233,ls),
(230,1233,o),
(140,1096,o),
(108,906,cs),
(81,737,l),
(172,692,l),
(121,385,ls),
(79,132,o),
(268,-15,o),
(604,-15,cs)
);
}
);
width = 1356;
}
);
script = khmer;
subCategory = Other;
unicode = 6021;
}
{
category = Letter;
glyphname = "cha-khmer";
kernLeft = KH_CHA;
layers = (
{
anchors = (
{
name = bottom;
pos = (524,0);
},
{
name = bottomright;
pos = (895,0);
},
{
name = top;
pos = (728,1233);
},
{
name = topright;
pos = (1114,1233);
}
);
layerId = "200BE2C5-40F6-4CF4-AF4F-A33C0CC0964F";
shapes = (
{
closed = 1;
nodes = (
(840,-9,o),
(921,68,o),
(943,204,cs),
(1041,796,ls),
(1059,900,o),
(1016,961,o),
(908,961,cs),
(881,961,o),
(857,957,o),
(826,951,c),
(820,908,l),
(854,917,o),
(874,920,o),
(895,920,cs),
(978,920,o),
(1008,875,o),
(995,796,cs),
(897,204,ls),
(879,97,o),
(812,36,o),
(719,36,cs),
(505,36,o),
(569,356,o),
(273,356,cs),
(228,356,l),
(221,312,l),
(261,312,ls),
(539,312,o),
(471,-9,o),
(719,-9,cs)
);
},
{
closed = 1;
nodes = (
(184,0,l),
(239,334,l),
(335,915,ls),
(339,935,o),
(332,945,o),
(316,950,cs),
(212,983,l),
(223,962,l),
(236,1039,ls),
(254,1147,o),
(318,1187,o),
(412,1187,cs),
(1106,1187,l),
(1114,1233,l),
(420,1233,ls),
(297,1233,o),
(215,1177,o),
(192,1039,cs),
(177,950,l),
(288,911,l),
(193,334,l),
(202,355,l),
(164,335,o),
(133,317,o),
(122,250,cs),
(111,177,o),
(119,76,o),
(145,0,c)
);
}
);
width = 1223;
},
{
anchors = (
{
name = bottom;
pos = (567,0);
},
{
name = bottomright;
pos = (996,0);
},
{
name = top;
pos = (771,1233);
},
{
name = topright;
pos = (1215,1233);
}
);
layerId = "11F4534A-B963-4AB5-820F-DAF9A20CD933";
shapes = (
{
closed = 1;
nodes = (
(915,-12,o),
(1023,80,o),
(1050,241,cs),
(1127,705,ls),
(1148,830,o),
(1095,919,o),
(927,919,cs),
(903,919,o),
(846,912,o),
(825,904,c),
(803,768,l),
(825,775,o),
(847,777,o),
(870,777,cs),
(937,777,o),
(969,758,o),
(959,701,cs),
(883,241,ls),
(872,175,o),
(828,132,o),
(766,132,cs),
(609,132,o),
(607,397,o),
(373,397,cs),
(329,397,l),
(305,252,l),
(342,252,ls),
(525,252,o),
(500,-12,o),
(761,-12,cs)
);
},
{
closed = 1;
nodes = (
(290,0,l),
(345,336,l),
(425,813,ls),
(432,856,o),
(420,871,o),
(381,891,cs),
(271,949,l),
(297,887,l),
(312,973,ls),
(324,1044,o),
(361,1076,o),
(433,1076,cs),
(1196,1076,l),
(1222,1233,l),
(463,1233,ls),
(292,1233,o),
(198,1156,o),
(168,977,cs),
(149,862,l),
(255,801,l),
(177,328,l),
(208,399,l),
(132,380,o),
(82,329,o),
(70,254,cs),
(56,172,o),
(89,97,o),
(132,0,c)
);
}
);
width = 1305;
},
{
anchors = (
{
name = bottom;
pos = (596,0);
},
{
name = bottomright;
pos = (1124,0);
},
{
name = top;
pos = (807,1233);
},
{
name = topright;
pos = (1343,1233);
}
);
background = {
anchors = (
{
name = bottom;
pos = (675,0);
},
{
name = bottomright;
pos = (1199,0);
},
{
name = top;
pos = (682,1233);
},
{
name = topright;
pos = (1214,1233);
}
);
hints = (
{
name = "_cap.caHair-khmer";
origin = (1,2);
type = Cap;
}
);
shapes = (
{
closed = 1;
nodes = (
(1118,-12,o),
(1214,101,o),
(1214,255,cs),
(1214,529,ls),
(1214,700,o),
(1096,794,o),
(889,794,cs),
(834,794,o),
(755,786,o),
(691,761,c),
(691,511,l),
(719,517,o),
(741,519,o),
(756,519,cs),
(804,519,o),
(828,497,o),
(828,457,cs),
(828,319,ls),
(828,289,o),
(815,268,o),
(783,268,cs),
(717,268,o),
(647,393,o),
(497,393,cs),
(403,393,l),
(403,160,l),
(485,160,ls),
(641,160,o),
(663,-12,o),
(941,-12,cs)
);
},
{
closed = 1;
nodes = (
(521,0,l),
(536,216,l),
(536,655,l),
(151,655,l),
(151,243,l),
(204,439,l),
(100,429,o),
(41,369,o),
(41,273,cs),
(41,187,o),
(93,87,o),
(183,0,c)
);
}
);
};
layerId = "D0EC06BF-13F9-4C88-A6F5-B8203AF6C77E";
shapes = (
{
closed = 1;
nodes = (
(1039,-12,o),
(1155,102,o),
(1180,256,cs),
(1228,547,ls),
(1257,720,o),
(1153,815,o),
(945,815,cs),
(890,815,o),
(808,807,o),
(737,780,c),
(695,525,l),
(724,532,o),
(749,534,o),
(762,534,cs),
(809,534,o),
(828,511,o),
(823,473,cs),
(801,345,ls),
(796,317,o),
(782,297,o),
(751,297,cs),
(689,297,o),
(637,417,o),
(491,417,cs),
(394,417,l),
(351,156,l),
(435,156,ls),
(588,156,o),
(583,-12,o),
(862,-12,cs)
);
},
{
closed = 1;
nodes = (
(447,0,l),
(497,212,l),
(575,684,ls),
(586,750,o),
(558,769,o),
(506,788,cs),
(350,843,l),
(383,735,l),
(401,838,ls),
(407,876,o),
(433,895,o),
(478,895,cs),
(1287,895,l),
(1343,1233,l),
(501,1233,ls),
(241,1233,o),
(151,1096,o),
(119,906,cs),
(92,737,l),
(183,692,l),
(108,240,l),
(195,441,l),
(89,431,o),
(20,370,o),
(4,274,cs),
(-10,188,o),
(25,87,o),
(100,0,c)
);
}
);
width = 1367;
}
);
script = khmer;
subCategory = Other;
unicode = 6022;
}
{
category = Letter;
glyphname = "co-khmer";
kernLeft = KH_CA;
layers = (
{
anchors = (
{
name = bottom;
pos = (519,0);
},
{
name = bottomright;
pos = (902,0);
},
{
name = top;
pos = (720,1233);
},
{
name = topright;
pos = (1106,1233);
}
);
layerId = "200BE2C5-40F6-4CF4-AF4F-A33C0CC0964F";
shapes = (
{
closed = 1;
nodes = (
(185,0,l),
(583,374,l),
(585,374,l),
(860,0,l),
(902,0,l),
(1052,908,l),
(1006,908,l),
(867,71,l),
(864,71,l),
(604,424,l),
(575,424,l),
(198,71,l),
(195,71,l),
(335,915,ls),
(338,935,o),
(331,945,o),
(315,950,cs),
(212,983,l),
(222,962,l),
(235,1039,ls),
(253,1147,o),
(317,1187,o),
(411,1187,cs),
(1004,1187,ls),
(1069,1187,o),
(1103,1212,o),
(1113,1273,cs),
(1129,1373,l),
(1084,1373,l),
(1068,1273,ls),
(1063,1245,o),
(1050,1233,o),
(1012,1233,cs),
(419,1233,ls),
(297,1233,o),
(215,1177,o),
(191,1039,cs),
(176,950,l),
(287,911,l),
(137,0,l)
);
}
);
width = 1216;
},
{
anchors = (
{
name = bottom;
pos = (567,0);
},
{
name = bottomright;
pos = (1010,0);
},
{
name = top;
pos = (771,1233);
},
{
name = topright;
pos = (1215,1233);
}
);
layerId = "11F4534A-B963-4AB5-820F-DAF9A20CD933";
shapes = (
{
closed = 1;
nodes = (
(297,0,l),
(621,305,l),
(628,305,l),
(850,0,l),
(1010,0,l),
(1156,883,l),
(989,883,l),
(878,209,l),
(871,209,l),
(679,471,l),
(609,471,l),
(332,209,l),
(325,209,l),
(425,813,ls),
(432,856,o),
(420,871,o),
(381,891,cs),
(271,949,l),
(290,887,l),
(305,973,ls),
(316,1044,o),
(356,1076,o),
(433,1076,cs),
(1002,1076,ls),
(1125,1076,o),
(1204,1131,o),
(1224,1247,cs),
(1245,1373,l),
(1081,1373,l),
(1063,1266,ls),
(1058,1242,o),
(1048,1233,o),
(1023,1233,cs),
(463,1233,ls),
(292,1233,o),
(197,1156,o),
(168,977,cs),
(149,862,l),
(255,801,l),
(123,0,l)
);
}
);
width = 1305;
},
{
anchors = (
{
name = bottom;
pos = (592,0);
},
{
name = bottomright;
pos = (1127,0);
},
{
name = top;
pos = (791,1233);
},
{
name = topright;
pos = (1332,1233);
}
);
layerId = "D0EC06BF-13F9-4C88-A6F5-B8203AF6C77E";
shapes = (
{
closed = 1;
nodes = (
(460,0,l),
(628,186,l),
(637,186,l),
(745,0,l),
(1127,0,l),
(1250,742,l),
(856,742,l),
(793,359,l),
(784,359,l),
(705,489,l),
(641,489,l),
(519,359,l),
(511,359,l),
(563,678,ls),
(574,743,o),
(545,761,o),
(494,782,cs),
(339,843,l),
(375,751,l),
(390,838,ls),
(396,876,o),
(422,895,o),
(467,895,cs),
(1007,895,ls),
(1186,895,o),
(1300,993,o),
(1329,1171,cs),
(1356,1335,l),
(969,1335,l),
(956,1256,ls),
(954,1242,o),
(943,1233,o),
(929,1233,cs),
(490,1233,ls),
(230,1233,o),
(140,1096,o),
(108,906,cs),
(81,737,l),
(170,687,l),
(57,0,l)
);
}
);
width = 1356;
}
);
script = khmer;
subCategory = Other;
unicode = 6023;
}
{
category = Letter;
glyphname = "cho-khmer";
kernLeft = KH_LO;
layers = (
{
anchors = (
{
name = bottom;
pos = (1833,0);
},
{
name = bottomright;
pos = (2177,0);
},
{
name = top;
pos = (2037,1233);
},
{
name = topright;
pos = (2396,1233);
}
);
layerId = "200BE2C5-40F6-4CF4-AF4F-A33C0CC0964F";
shapes = (
{
closed = 1;
nodes = (
(314,-15,o),
(338,-11,o),
(368,-4,c),
(375,38,l),
(341,29,o),
(320,26,o),
(299,26,cs),
(216,26,o),
(187,71,o),
(200,151,cs),
(322,890,ls),
(354,1082,o),
(502,1201,o),
(699,1201,cs),
(897,1201,o),
(990,1082,o),
(958,890,cs),
(865,329,ls),
(831,124,o),
(956,-15,o),
(1164,-15,cs),
(1332,-15,o),
(1468,76,o),
(1534,217,c),
(1542,217,l),
(1561,76,o),
(1666,-15,o),
(1832,-15,cs),
(2039,-15,o),
(2213,124,o),
(2247,329,cs),
(2340,896,ls),
(2344,916,o),
(2337,925,o),
(2322,931,cs),
(2184,983,l),
(2194,962,l),
(2209,1055,ls),
(2226,1152,o),
(2279,1187,o),
(2358,1187,cs),
(2451,1187,l),
(2459,1233,l),
(2366,1233,ls),
(2264,1233,o),
(2188,1184,o),
(2166,1055,cs),
(2149,950,l),
(2294,894,l),
(2200,329,ls),
(2171,153,o),
(2017,32,o),
(1833,32,cs),
(1649,32,o),
(1550,153,o),
(1579,329,cs),
(1673,896,ls),
(1676,916,o),
(1670,925,o),
(1655,931,cs),
(1516,983,l),
(1527,962,l),
(1542,1055,ls),
(1559,1152,o),
(1611,1187,o),
(1690,1187,cs),
(1783,1187,l),
(1791,1233,l),
(1698,1233,ls),
(1596,1233,o),
(1520,1184,o),
(1498,1055,cs),
(1481,950,l),
(1626,894,l),
(1532,329,ls),
(1503,153,o),
(1353,32,o),
(1165,32,cs),
(978,32,o),
(882,153,o),
(911,329,cs),
(1004,890,ls),
(1041,1110,o),
(922,1248,o),
(699,1248,cs),
(476,1248,o),
(312,1110,o),
(276,890,cs),
(153,151,ls),
(136,46,o),
(179,-15,o),
(287,-15,cs)
);
}
);
width = 2506;
},
{
anchors = (
{
name = bottom;
pos = (1876,0);
},
{
name = bottomright;
pos = (2272,0);
},
{
name = top;
pos = (2081,1233);
},
{
name = topright;
pos = (2484,1233);
}
);
layerId = "11F4534A-B963-4AB5-820F-DAF9A20CD933";
shapes = (
{
closed = 1;
nodes = (
(386,-15,o),
(424,-7,o),
(444,1,c),
(467,137,l),
(445,130,o),
(425,127,o),
(400,127,cs),
(335,127,o),
(301,147,o),
(311,204,cs),
(417,847,ls),
(443,998,o),
(560,1097,o),
(714,1097,cs),
(869,1097,o),
(954,998,o),
(929,847,cs),
(850,368,ls),
(812,140,o),
(959,-15,o),
(1205,-15,cs),
(1360,-15,o),
(1472,47,o),
(1557,162,c),
(1566,162,l),
(1612,47,o),
(1719,-15,o),
(1874,-15,cs),
(2121,-15,o),
(2303,140,o),
(2341,368,cs),
(2415,813,ls),
(2422,856,o),
(2410,873,o),
(2371,891,cs),
(2268,939,l),
(2273,879,l),
(2287,966,ls),
(2299,1037,o),
(2343,1076,o),
(2425,1076,cs),
(2515,1076,l),
(2541,1233,l),
(2439,1233,ls),
(2276,1233,o),
(2180,1151,o),
(2152,977,cs),
(2132,855,l),
(2245,799,l),
(2175,377,ls),
(2152,234,o),
(2047,134,o),
(1891,134,cs),
(1735,134,o),
(1657,234,o),
(1681,377,cs),
(1753,813,ls),
(1760,856,o),
(1748,873,o),
(1709,891,cs),
(1607,939,l),
(1611,879,l),
(1625,966,ls),
(1637,1037,o),
(1681,1076,o),
(1763,1076,cs),
(1853,1076,l),
(1879,1233,l),
(1777,1233,ls),
(1615,1233,o),
(1518,1151,o),
(1490,977,cs),
(1471,855,l),
(1583,799,l),
(1513,377,ls),
(1490,234,o),
(1377,134,o),
(1222,134,cs),
(1066,134,o),
(996,234,o),
(1019,377,cs),
(1097,853,ls),
(1137,1092,o),
(979,1248,o),
(724,1248,cs),
(469,1248,o),
(290,1092,o),
(251,853,cs),
(143,200,ls),
(123,75,o),
(194,-15,o),
(343,-15,cs)
);
}
);
width = 2582;
},
{
anchors = (
{
name = bottom;
pos = (1900,0);
},
{
name = bottomright;
pos = (2407,0);
},
{
name = top;
pos = (2105,1233);
},
{
name = topright;
pos = (2633,1233);
}
);
layerId = "D0EC06BF-13F9-4C88-A6F5-B8203AF6C77E";
shapes = (
{
closed = 1;
nodes = (
(429,-7,o),
(511,1,o),
(579,27,c),
(621,282,l),
(592,276,o),
(568,273,o),
(554,273,cs),
(508,273,o),
(487,296,o),
(494,335,cs),
(573,815,ls),
(587,898,o),
(647,954,o),
(730,954,cs),
(812,954,o),
(857,898,o),
(843,815,cs),
(775,403,ls),
(732,144,o),
(865,-15,o),
(1188,-15,cs),
(1347,-15,o),
(1503,12,o),
(1588,142,c),
(1597,142,l),
(1655,12,o),
(1790,-15,o),
(1957,-15,cs),
(2274,-15,o),
(2454,145,o),
(2496,403,cs),
(2544,695,ls),
(2554,756,o),
(2525,774,o),
(2474,790,cs),
(2310,842,l),
(2345,783,l),
(2357,852,ls),
(2361,880,o),
(2387,895,o),
(2431,895,cs),
(2606,895,l),
(2662,1233,l),
(2436,1233,ls),
(2198,1233,o),
(2113,1116,o),
(2086,953,cs),
(2050,737,l),
(2150,693,l),
(2105,420,ls),
(2091,335,o),
(2029,279,o),
(1946,279,cs),
(1864,279,o),
(1822,335,o),
(1836,420,cs),
(1881,695,ls),
(1891,756,o),
(1862,774,o),
(1812,790,cs),
(1647,842,l),
(1682,783,l),
(1694,852,ls),
(1698,880,o),
(1724,895,o),
(1768,895,cs),
(1943,895,l),
(1999,1233,l),
(1772,1233,ls),
(1535,1233,o),
(1450,1116,o),
(1423,953,cs),
(1388,737,l),
(1487,693,l),
(1441,420,ls),
(1428,335,o),
(1365,279,o),
(1281,279,cs),
(1199,279,o),
(1159,335,o),
(1172,420,cs),
(1240,831,ls),
(1282,1089,o),
(1125,1248,o),
(779,1248,cs),
(432,1248,o),
(225,1089,o),
(182,831,cs),
(87,260,ls),
(59,87,o),
(163,-7,o),
(371,-7,cs)
);
}
);
width = 2657;
}
);
script = khmer;
subCategory = Other;
unicode = 6024;
}
{
category = Letter;
glyphname = "nyo-khmer";
kernLeft = KH_PO;
layers = (
{
anchors = (
{
name = bottom;
pos = (929,-559);
},
{
name = bottomright;
pos = (1427,-559);
},
{
name = top;
pos = (1393,1233);
},
{
name = topright;
pos = (1731,1233);
}
);
layerId = "200BE2C5-40F6-4CF4-AF4F-A33C0CC0964F";
shapes = (
{
closed = 1;
nodes = (
(1342,-570,o),
(1468,-438,o),
(1502,-237,cs),
(1524,-105,l),
(1477,-105,l),
(1455,-237,ls),
(1427,-410,o),
(1319,-524,o),
(1131,-524,cs),
(862,-524,o),
(736,-293,o),
(376,-293,cs),
(290,-293,o),
(201,-306,o),
(111,-330,c),
(103,-378,l),
(196,-352,o),
(293,-340,o),
(375,-340,cs),
(732,-340,o),
(844,-570,o),
(1127,-570,cs)
);
},
{
ref = "nyo-khmer.less";
}
);
width = 1855;
},
{
anchors = (
{
name = bottom;
pos = (1149,-559);
},
{
name = bottomright;
pos = (1552,-559);
},
{
name = top;
pos = (1441,1233);
},
{
name = topright;
pos = (1849,1233);
}
);
layerId = "11F4534A-B963-4AB5-820F-DAF9A20CD933";
shapes = (
{
closed = 1;
nodes = (
(1433,-573,o),
(1583,-458,o),
(1622,-225,cs),
(1641,-105,l),
(1474,-105,l),
(1455,-225,ls),
(1432,-364,o),
(1351,-422,o),
(1208,-422,cs),
(938,-422,o),
(790,-216,o),
(402,-216,cs),
(305,-216,o),
(209,-229,o),
(108,-255,c),
(83,-407,l),
(185,-380,o),
(300,-367,o),
(388,-367,cs),
(751,-367,o),
(876,-573,o),
(1195,-573,cs)
);
},
{
ref = "nyo-khmer.less";
}
);
width = 1953;
},
{
anchors = (
{
name = bottom;
pos = (1151,-559);
},
{
name = bottomright;
pos = (1658,-559);
},
{
name = top;
pos = (1446,1233);
},
{
name = topright;
pos = (1954,1233);
}
);
layerId = "D0EC06BF-13F9-4C88-A6F5-B8203AF6C77E";
shapes = (
{
closed = 1;
nodes = (
(1523,-573,o),
(1689,-444,o),
(1732,-196,cs),
(1749,-92,l),
(1355,-92,l),
(1341,-175,ls),
(1332,-228,o),
(1292,-263,o),
(1229,-263,cs),
(993,-263,o),
(807,-127,o),
(421,-127,cs),
(270,-127,o),
(169,-148,o),
(65,-180,c),
(17,-476,l),
(120,-444,o),
(236,-423,o),
(342,-423,cs),
(780,-423,o),
(898,-573,o),
(1249,-573,cs)
);
},
{
ref = "nyo-khmer.less";
}
);
width = 1994;
}
);
script = khmer;
subCategory = Other;
unicode = 6025;
}
{
category = Letter;
glyphname = "da-khmer";
kernLeft = KH_DA;
layers = (
{
anchors = (
{
name = bottom;
pos = (515,0);
},
{
name = bottomright;
pos = (901,0);
},
{
name = top;
pos = (719,1233);
},
{
name = topright;
pos = (1105,1233);
}
);
layerId = "200BE2C5-40F6-4CF4-AF4F-A33C0CC0964F";
shapes = (
{
closed = 1;
nodes = (
(177,0,l),
(578,374,l),
(581,374,l),
(859,0,l),
(901,0,l),
(1025,745,l),
(978,745,l),
(866,71,l),
(863,71,l),
(600,424,l),
(571,424,l),
(190,71,l),
(187,71,l),
(299,745,l),
(252,745,l),
(129,0,l)
);
},
{
closed = 1;
nodes = (
(911,873,o),
(1073,995,o),
(1108,1207,cs),
(1136,1373,l),
(1089,1373,l),
(1062,1207,ls),
(1031,1024,o),
(881,919,o),
(649,919,cs),
(440,919,o),
(335,1004,o),
(359,1153,cs),
(372,1233,l),
(326,1233,l),
(313,1153,ls),
(284,975,o),
(409,873,o),
(649,873,cs)
);
}
);
width = 1215;
},
{
anchors = (
{
name = bottom;
pos = (553,0);
},
{
name = bottomright;
pos = (997,0);
},
{
name = top;
pos = (755,1233);
},
{
name = topright;
pos = (1196,1233);
}
);
layerId = "11F4534A-B963-4AB5-820F-DAF9A20CD933";
shapes = (
{
closed = 1;
nodes = (
(283,0,l),
(607,291,l),
(611,291,l),
(839,0,l),
(997,0,l),
(1121,745,l),
(953,745,l),
(864,208,l),
(857,208,l),
(663,448,l),
(592,448,l),
(319,208,l),
(311,208,l),
(401,745,l),
(233,745,l),
(110,0,l)
);
},
{
closed = 1;
nodes = (
(982,829,o),
(1167,986,o),
(1213,1260,cs),
(1232,1373,l),
(1065,1373,l),
(1041,1231,ls),
(1013,1065,o),
(892,970,o),
(708,970,cs),
(532,970,o),
(444,1049,o),
(468,1187,cs),
(476,1233,l),
(308,1233,l),
(300,1180,ls),
(263,957,o),
(409,829,o),
(689,829,cs)
);
}
);
width = 1292;
},
{
anchors = (
{
name = bottom;
pos = (580,0);
},
{
name = bottomright;
pos = (1115,0);
},
{
name = top;
pos = (784,1233);
},
{
name = topright;
pos = (1319,1233);
}
);
layerId = "D0EC06BF-13F9-4C88-A6F5-B8203AF6C77E";
shapes = (
{
closed = 1;
nodes = (
(447,0,l),
(616,186,l),
(625,186,l),
(732,0,l),
(1115,0,l),
(1234,721,l),
(840,721,l),
(780,359,l),
(772,359,l),
(692,489,l),
(628,489,l),
(507,359,l),
(498,359,l),
(558,721,l),
(164,721,l),
(44,0,l)
);
},
{
closed = 1;
nodes = (
(1124,801,o),
(1279,932,o),
(1326,1215,cs),
(1345,1335,l),
(951,1335,l),
(927,1185,ls),
(913,1101,o),
(846,1062,o),
(752,1062,cs),
(657,1062,o),
(615,1102,o),
(626,1172,cs),
(636,1233,l),
(242,1233,l),
(223,1120,ls),
(189,915,o),
(352,801,o),
(724,801,cs)
);
}
);
width = 1344;
}
);
script = khmer;
subCategory = Other;
unicode = 6026;
}
{
category = Letter;
glyphname = "ttha-khmer";
layers = (
{
anchors = (
{
name = bottom;
pos = (515,-1);
},
{
name = bottomright;
pos = (887,0);
},
{
name = top;
pos = (715,1233);
},
{
name = topright;
pos = (1105,1233);
}
);
layerId = "200BE2C5-40F6-4CF4-AF4F-A33C0CC0964F";
shapes = (
{
closed = 1;
nodes = (
(738,-15,o),
(922,124,o),
(956,329,cs),
(1049,896,ls),
(1053,916,o),
(1047,926,o),
(1030,931,cs),
(870,983,l),
(873,962,l),
(892,1076,ls),
(905,1158,o),
(951,1188,o),
(1019,1188,cs),
(1122,1188,ls),
(1145,1188,o),
(1158,1199,o),
(1161,1222,cs),
(1187,1373,l),
(1143,1373,l),
(1120,1233,l),
(1026,1233,ls),
(931,1233,o),
(867,1188,o),
(848,1076,cs),
(828,951,l),
(1003,895,l),
(909,329,ls),
(880,153,o),
(718,32,o),
(513,32,cs),
(308,32,o),
(201,153,o),
(230,329,cs),
(295,722,ls),
(320,873,o),
(431,956,o),
(452,1086,cs),
(468,1181,o),
(427,1241,o),
(333,1241,cs),
(310,1241,o),
(284,1237,o),
(249,1229,c),
(242,1185,l),
(276,1195,o),
(307,1197,o),
(324,1197,cs),
(391,1197,o),
(417,1163,o),
(406,1091,cs),
(385,968,o),
(276,889,o),
(248,721,cs),
(183,329,ls),
(151,132,o),
(279,-15,o),
(512,-15,cs)
);
}
);
width = 1215;
},
{
anchors = (
{
name = bottom;
pos = (549,0);
},
{
name = bottomright;
pos = (975,0);
},
{
name = top;
pos = (755,1233);
},
{
name = topright;
pos = (1194,1233);
}
);
layerId = "11F4534A-B963-4AB5-820F-DAF9A20CD933";
shapes = (
{
closed = 1;
nodes = (
(824,-15,o),
(1014,147,o),
(1053,384,cs),
(1125,816,ls),
(1132,859,o),
(1122,879,o),
(1081,894,cs),
(895,962,l),
(931,887,l),
(945,977,ls),
(957,1047,o),
(994,1078,o),
(1061,1078,cs),
(1159,1078,ls),
(1229,1078,o),
(1265,1108,o),
(1276,1178,cs),
(1309,1373,l),
(1149,1373,l),
(1126,1233,l),
(1077,1233,ls),
(920,1233,o),
(833,1163,o),
(806,1001,cs),
(781,853,l),
(953,792,l),
(887,393,ls),
(862,241,o),
(735,137,o),
(572,137,cs),
(410,137,o),
(316,241,o),
(342,393,cs),
(386,657,ls),
(418,847,o),
(509,911,o),
(532,1047,cs),
(550,1159,o),
(513,1241,o),
(364,1241,cs),
(333,1241,o),
(296,1237,o),
(255,1228,c),
(231,1091,l),
(253,1095,o),
(281,1098,o),
(299,1098,cs),
(364,1098,o),
(370,1052,o),
(364,1018,cs),
(351,936,o),
(252,857,o),
(222,677,cs),
(173,384,ls),
(134,147,o),
(300,-15,o),
(562,-15,cs)
);
}
);
width = 1284;
},
{
anchors = (
{
name = bottom;
pos = (582,0);
},
{
name = bottomright;
pos = (1092,0);
},
{
name = top;
pos = (787,1233);
},
{
name = topright;
pos = (1318,1233);
}
);
layerId = "D0EC06BF-13F9-4C88-A6F5-B8203AF6C77E";
shapes = (
{
closed = 1;
nodes = (
(942,-15,o),
(1138,144,o),
(1181,403,cs),
(1235,729,ls),
(1246,796,o),
(1218,818,o),
(1167,833,cs),
(909,908,l),
(971,773,l),
(990,889,ls),
(997,935,o),
(1015,945,o),
(1056,945,cs),
(1158,945,ls),
(1268,945,o),
(1344,1010,o),
(1363,1123,cs),
(1398,1334,l),
(1023,1334,l),
(1006,1233,l),
(967,1233,ls),
(833,1233,o),
(741,1152,o),
(718,1011,cs),
(673,741,l),
(833,681,l),
(789,419,ls),
(775,335,o),
(711,279,o),
(625,279,cs),
(538,279,o),
(493,335,o),
(507,419,cs),
(554,705,ls),
(573,817,o),
(630,851,o),
(654,998,cs),
(684,1177,o),
(592,1248,o),
(421,1248,cs),
(334,1248,o),
(243,1237,o),
(198,1226,c),
(153,951,l),
(175,956,o),
(182,958,o),
(199,958,cs),
(231,958,o),
(244,940,o),
(239,909,cs),
(231,857,o),
(180,822,o),
(156,680,cs),
(111,403,ls),
(68,144,o),
(239,-15,o),
(591,-15,cs)
);
}
);
width = 1353;
}
);
script = khmer;
subCategory = Other;
unicode = 6027;
}
{
category = Letter;
glyphname = "do-khmer";
kernLeft = KH_DO;
layers = (
{
anchors = (
{
name = bottom;
pos = (511,0);
},
{
name = bottomright;
pos = (878,0);
},
{
name = top;
pos = (712,1233);
},
{
name = topright;
pos = (1097,1233);
}
);
layerId = "200BE2C5-40F6-4CF4-AF4F-A33C0CC0964F";
shapes = (
{
closed = 1;
nodes = (
(654,-15,o),
(791,97,o),
(868,241,c),
(871,241,l),
(831,0,l),
(878,0,l),
(956,469,l),
(911,469,l),
(908,446,ls),
(875,249,o),
(713,31,o),
(455,31,cs),
(268,31,o),
(183,145,o),
(216,343,cs),
(254,571,l),
(642,571,ls),
(882,571,o),
(1018,671,o),
(1052,875,cs),
(1079,1041,ls),
(1100,1167,o),
(1039,1239,o),
(927,1239,cs),
(828,1239,o),
(748,1183,o),
(692,1087,c),
(688,1087,l),
(665,1183,o),
(604,1239,o),
(503,1239,cs),
(391,1239,o),
(307,1169,o),
(287,1049,cs),
(261,894,l),
(308,894,l),
(333,1049,ls),
(348,1143,o),
(417,1196,o),
(500,1196,cs),
(588,1196,o),
(641,1134,o),
(665,1025,c),
(695,1025,l),
(754,1134,o),
(831,1196,o),
(919,1196,cs),
(1002,1196,o),
(1049,1140,o),
(1033,1041,cs),
(1005,875,ls),
(977,703,o),
(859,617,o),
(649,617,cs),
(215,617,l),
(169,343,ls),
(132,116,o),
(239,-15,o),
(455,-15,cs)
);
}
);
width = 1173;
},
{
anchors = (
{
name = bottom;
pos = (542,0);
},
{
name = bottomright;
pos = (968,0);
},
{
name = top;
pos = (746,1233);
},
{
name = topright;
pos = (1175,1233);
}
);
layerId = "11F4534A-B963-4AB5-820F-DAF9A20CD933";
shapes = (
{
closed = 1;
nodes = (
(607,-15,o),
(737,37,o),
(818,148,c),
(827,148,l),
(802,0,l),
(968,0,l),
(1038,423,l),
(871,423,l),
(870,417,ls),
(850,261,o),
(705,135,o),
(524,135,cs),
(373,135,o),
(292,225,o),
(318,380,cs),
(340,508,l),
(631,508,ls),
(942,508,o),
(1100,625,o),
(1139,873,cs),
(1157,989,ls),
(1181,1141,o),
(1092,1241,o),
(948,1241,cs),
(854,1241,o),
(772,1197,o),
(729,1120,c),
(723,1120,l),
(704,1197,o),
(639,1241,o),
(543,1241,cs),
(395,1241,o),
(276,1140,o),
(251,989,cs),
(225,832,l),
(393,832,l),
(415,971,ls),
(427,1041,o),
(473,1084,o),
(537,1084,cs),
(608,1084,o),
(661,1031,o),
(667,951,c),
(728,951,l),
(762,1036,o),
(826,1091,o),
(897,1091,cs),
(960,1091,o),
(999,1046,o),
(987,971,cs),
(972,873,ls),
(948,720,o),
(841,644,o),
(661,644,cs),
(195,644,l),
(148,360,ls),
(110,135,o),
(230,-15,o),
(467,-15,cs)
);
}
);
width = 1263;
},
{
anchors = (
{
name = bottom;
pos = (571,0);
},
{
name = bottomright;
pos = (1086,0);
},
{
name = top;
pos = (777,1233);
},
{
name = topright;
pos = (1303,1233);
}
);
layerId = "D0EC06BF-13F9-4C88-A6F5-B8203AF6C77E";
shapes = (
{
closed = 1;
nodes = (
(559,-15,o),
(655,35,o),
(725,140,c),
(739,140,l),
(716,0,l),
(1086,0,l),
(1153,403,l),
(782,403,l),
(777,391,ls),
(745,310,o),
(689,263,o),
(609,263,cs),
(520,263,o),
(476,319,o),
(489,401,cs),
(500,465,l),
(625,465,ls),
(1096,465,o),
(1220,657,o),
(1252,844,cs),
(1272,967,ls),
(1301,1141,o),
(1212,1241,o),
(1029,1241,cs),
(905,1241,o),
(827,1194,o),
(760,1114,c),
(750,1114,l),
(709,1194,o),
(650,1241,o),
(528,1241,cs),
(342,1241,o),
(219,1141,o),
(190,967,cs),
(162,799,l),
(556,799,l),
(567,865,ls),
(574,904,o),
(600,930,o),
(633,930,cs),
(663,930,o),
(687,908,o),
(688,868,c),
(740,868,l),
(754,907,o),
(786,930,o),
(818,930,cs),
(851,930,o),
(868,904,o),
(861,865,cs),
(855,828,ls),
(839,729,o),
(785,684,o),
(647,684,cs),
(143,684,l),
(87,347,ls),
(51,127,o),
(174,-15,o),
(425,-15,cs)
);
}
);
width = 1325;
}
);
script = khmer;
subCategory = Other;
unicode = 6028;
}
{
category = Letter;
glyphname = "ttho-khmer";
kernLeft = KH_PO;
layers = (
{
anchors = (
{
name = bottom;
pos = (1184,0);
},
{
name = bottomright;
pos = (1527,0);
},
{
name = top;
pos = (1388,1233);
},
{
name = topright;
pos = (1745,1233);
}
);
layerId = "200BE2C5-40F6-4CF4-AF4F-A33C0CC0964F";
shapes = (
{
closed = 1;
nodes = (
(319,-7,o),
(340,-4,o),
(370,3,c),
(377,45,l),
(343,36,o),
(327,33,o),
(305,33,cs),
(223,33,o),
(188,79,o),
(201,158,cs),
(349,1051,ls),
(364,1142,o),
(423,1197,o),
(495,1197,cs),
(572,1197,o),
(628,1135,o),
(656,1027,c),
(687,1027,l),
(745,1135,o),
(826,1197,o),
(903,1197,cs),
(975,1197,o),
(1016,1142,o),
(1001,1051,cs),
(883,340,l),
(848,316,o),
(828,297,o),
(817,228,cs),
(807,172,o),
(808,97,o),
(834,0,c),
(868,0,l),
(928,329,l),
(1047,1051,ls),
(1066,1167,o),
(1009,1241,o),
(910,1241,cs),
(823,1241,o),
(745,1185,o),
(684,1089,c),
(679,1089,l),
(648,1185,o),
(589,1241,o),
(503,1241,cs),
(403,1241,o),
(321,1167,o),
(303,1051,cs),
(155,158,ls),
(137,53,o),
(184,-7,o),
(292,-7,cs)
);
},
{
closed = 1;
nodes = (
(1473,-9,o),
(1552,65,o),
(1573,193,cs),
(1689,896,ls),
(1693,916,o),
(1687,925,o),
(1671,931,cs),
(1533,983,l),
(1543,962,l),
(1559,1055,ls),
(1575,1152,o),
(1628,1187,o),
(1707,1187,cs),
(1800,1187,l),
(1808,1233,l),
(1715,1233,ls),
(1613,1233,o),
(1537,1184,o),
(1515,1055,cs),
(1497,950,l),
(1642,894,l),
(1527,192,ls),
(1511,100,o),
(1449,38,o),
(1360,38,cs),
(1162,38,o),
(1240,348,o),
(932,348,cs),
(901,348,l),
(894,301,l),
(927,301,ls),
(1215,301,o),
(1124,-9,o),
(1359,-9,cs)
);
}
);
width = 1855;
},
{
anchors = (
{
name = bottom;
pos = (1241,0);
},
{
name = bottomright;
pos = (1644,0);
},
{
name = top;
pos = (1446,1233);
},
{
name = topright;
pos = (1863,1233);
}
);
layerId = "11F4534A-B963-4AB5-820F-DAF9A20CD933";
shapes = (
{
closed = 1;
nodes = (
(367,-7,o),
(425,0,o),
(446,8,c),
(468,144,l),
(446,137,o),
(424,135,o),
(401,135,cs),
(334,135,o),
(303,154,o),
(312,211,cs),
(438,971,ls),
(449,1041,o),
(496,1084,o),
(562,1084,cs),
(631,1084,o),
(675,1034,o),
(681,951,c),
(742,951,l),
(776,1039,o),
(836,1091,o),
(905,1091,cs),
(971,1091,o),
(1003,1047,o),
(991,971,cs),
(894,388,l),
(835,363,o),
(795,312,o),
(783,239,cs),
(770,162,o),
(804,91,o),
(848,0,c),
(993,0,l),
(1048,306,l),
(1159,982,ls),
(1186,1144,o),
(1115,1241,o),
(967,1241,cs),
(868,1241,o),
(787,1197,o),
(742,1120,c),
(736,1120,l),
(716,1197,o),
(649,1241,o),
(551,1241,cs),
(402,1241,o),
(299,1144,o),
(272,982,cs),
(144,207,ls),
(124,82,o),
(175,-7,o),
(344,-7,cs)
);
},
{
closed = 1;
nodes = (
(1575,-12,o),
(1671,70,o),
(1693,208,cs),
(1793,813,ls),
(1801,856,o),
(1789,872,o),
(1750,891,cs),
(1647,939,l),
(1652,879,l),
(1666,966,ls),
(1678,1037,o),
(1721,1076,o),
(1804,1076,cs),
(1894,1076,l),
(1920,1233,l),
(1818,1233,ls),
(1655,1233,o),
(1560,1151,o),
(1531,977,cs),
(1511,855,l),
(1624,799,l),
(1528,219,ls),
(1519,162,o),
(1488,134,o),
(1444,134,cs),
(1317,134,o),
(1310,388,o),
(1065,388,cs),
(985,388,l),
(961,239,l),
(1047,239,ls),
(1199,239,o),
(1193,-12,o),
(1437,-12,cs)
);
}
);
width = 1954;
},
{
anchors = (
{
name = bottom;
pos = (1244,0);
},
{
name = bottomright;
pos = (1763,0);
},
{
name = top;
pos = (1449,1233);
},
{
name = topright;
pos = (1967,1233);
}
);
layerId = "D0EC06BF-13F9-4C88-A6F5-B8203AF6C77E";
shapes = (
{
closed = 1;
nodes = (
(427,-7,o),
(509,1,o),
(579,27,c),
(621,282,l),
(592,276,o),
(571,273,o),
(554,273,cs),
(507,273,o),
(486,296,o),
(492,334,cs),
(580,865,ls),
(587,903,o),
(615,930,o),
(647,930,cs),
(676,930,o),
(700,908,o),
(700,868,c),
(752,868,l),
(766,906,o),
(797,930,o),
(828,930,cs),
(861,930,o),
(877,903,o),
(871,865,cs),
(799,425,l),
(738,396,o),
(709,350,o),
(697,282,cs),
(687,213,o),
(701,111,o),
(762,0,c),
(1108,0,l),
(1159,219,l),
(1279,945,ls),
(1309,1127,o),
(1216,1241,o),
(1040,1241,cs),
(939,1241,o),
(831,1198,o),
(773,1114,c),
(762,1114,l),
(732,1198,o),
(639,1241,o),
(529,1241,cs),
(361,1241,o),
(231,1127,o),
(201,945,cs),
(87,261,ls),
(59,87,o),
(163,-7,o),
(371,-7,cs)
);
},
{
closed = 1;
nodes = (
(1673,-12,o),
(1781,95,o),
(1810,272,cs),
(1880,695,ls),
(1890,756,o),
(1860,774,o),
(1810,790,cs),
(1646,842,l),
(1681,783,l),
(1692,852,ls),
(1697,880,o),
(1723,895,o),
(1767,895,cs),
(1942,895,l),
(1998,1233,l),
(1772,1233,ls),
(1534,1233,o),
(1449,1116,o),
(1422,953,cs),
(1386,737,l),
(1486,693,l),
(1427,339,ls),
(1423,312,o),
(1407,297,o),
(1382,297,cs),
(1312,297,o),
(1247,431,o),
(1086,431,cs),
(1043,431,l),
(1000,170,l),
(1008,170,ls),
(1215,170,o),
(1218,-12,o),
(1494,-12,cs)
);
}
);
width = 1994;
}
);
metricRight = "=ba-khmer";
script = khmer;
subCategory = Other;
unicode = 6029;
}
{
category = Letter;
glyphname = "nno-khmer";
kernLeft = KH_LO;
layers = (
{
anchors = (
{
name = bottom;
pos = (1161,0);
},
{
name = bottomright;
pos = (1495,0);
},
{
name = top;
pos = (1364,1233);
},
{
name = topright;
pos = (2382,1233);
}
);
layerId = "200BE2C5-40F6-4CF4-AF4F-A33C0CC0964F";
shapes = (
{
closed = 1;
nodes = (
(319,-7,o),
(340,-4,o),
(369,3,c),
(377,45,l),
(343,36,o),
(326,33,o),
(305,33,cs),
(222,33,o),
(188,79,o),
(201,158,cs),
(323,893,ls),
(353,1076,o),
(514,1201,o),
(707,1201,cs),
(900,1201,o),
(1005,1076,o),
(975,893,cs),
(827,0,l),
(877,0,l),
(1217,337,l),
(1220,337,l),
(1450,0,l),
(1495,0,l),
(1642,893,ls),
(1673,1076,o),
(1832,1201,o),
(2026,1201,cs),
(2221,1201,o),
(2324,1076,o),
(2294,893,cs),
(2146,0,l),
(2193,0,l),
(2340,893,ls),
(2375,1104,o),
(2248,1248,o),
(2027,1248,cs),
(1806,1248,o),
(1631,1104,o),
(1596,893,cs),
(1459,69,l),
(1456,69,l),
(1238,388,l),
(1212,388,l),
(887,69,l),
(884,69,l),
(1021,893,ls),
(1056,1104,o),
(929,1248,o),
(708,1248,cs),
(487,1248,o),
(311,1104,o),
(276,893,cs),
(155,158,ls),
(137,53,o),
(184,-7,o),
(292,-7,cs)
);
}
);
width = 2506;
},
{
anchors = (
{
name = bottom;
pos = (1199,0);
},
{
name = bottomright;
pos = (1599,0);
},
{
name = top;
pos = (1403,1233);
},
{
name = topright;
pos = (2478,1233);
}
);
layerId = "11F4534A-B963-4AB5-820F-DAF9A20CD933";
shapes = (
{
closed = 1;
nodes = (
(387,-7,o),
(425,0,o),
(446,8,c),
(468,144,l),
(446,137,o),
(426,135,o),
(401,135,cs),
(336,135,o),
(303,154,o),
(312,211,cs),
(417,845,ls),
(442,997,o),
(565,1097,o),
(719,1097,cs),
(873,1097,o),
(963,997,o),
(937,845,cs),
(798,0,l),
(969,0,l),
(1249,279,l),
(1254,279,l),
(1442,0,l),
(1599,0,l),
(1739,845,ls),
(1764,997,o),
(1887,1097,o),
(2041,1097,cs),
(2196,1097,o),
(2285,997,o),
(2260,845,cs),
(2120,0,l),
(2287,0,l),
(2428,852,ls),
(2469,1097,o),
(2305,1248,o),
(2052,1248,cs),
(1799,1248,o),
(1614,1097,o),
(1573,852,cs),
(1470,228,l),
(1463,228,l),
(1300,464,l),
(1251,464,l),
(1010,228,l),
(1003,228,l),
(1106,852,ls),
(1147,1097,o),
(983,1248,o),
(729,1248,cs),
(476,1248,o),
(292,1097,o),
(251,852,cs),
(144,207,ls),
(124,82,o),
(195,-7,o),
(344,-7,cs)
);
}
);
width = 2582;
},
{
anchors = (
{
name = bottom;
pos = (1206,0);
},
{
name = bottomright;
pos = (1720,0);
},
{
name = top;
pos = (1410,1233);
},
{
name = topright;
pos = (2557,1233);
}
);
layerId = "D0EC06BF-13F9-4C88-A6F5-B8203AF6C77E";
shapes = (
{
closed = 1;
nodes = (
(427,-7,o),
(509,1,o),
(579,27,c),
(621,282,l),
(592,276,o),
(571,273,o),
(554,273,cs),
(507,273,o),
(487,296,o),
(494,334,cs),
(575,822,ls),
(588,901,o),
(644,954,o),
(723,954,cs),
(801,954,o),
(841,901,o),
(828,822,cs),
(692,0,l),
(1081,0,l),
(1237,164,l),
(1246,164,l),
(1348,0,l),
(1720,0,l),
(1856,822,ls),
(1869,901,o),
(1926,954,o),
(2004,954,cs),
(2082,954,o),
(2122,901,o),
(2109,822,cs),
(1973,0,l),
(2367,0,l),
(2505,831,ls),
(2548,1089,o),
(2380,1248,o),
(2039,1248,cs),
(1699,1248,o),
(1511,1089,o),
(1468,831,cs),
(1391,369,l),
(1382,369,l),
(1309,474,l),
(1260,474,l),
(1151,369,l),
(1143,369,l),
(1219,831,ls),
(1262,1089,o),
(1095,1248,o),
(757,1248,cs),
(416,1248,o),
(225,1089,o),
(182,831,cs),
(87,260,ls),
(59,87,o),
(163,-7,o),
(371,-7,cs)
);
}
);
width = 2596;
}
);
script = khmer;
subCategory = Other;
unicode = 6030;
}
{
category = Letter;
glyphname = "ta-khmer";
layers = (
{
anchors = (
{
name = bottom;
pos = (515,0);
},
{
name = bottomright;
pos = (901,0);
},
{
name = top;
pos = (719,1233);
},
{
name = topright;
pos = (1105,1233);
}
);
layerId = "200BE2C5-40F6-4CF4-AF4F-A33C0CC0964F";
shapes = (
{
closed = 1;
nodes = (
(319,-7,o),
(340,-4,o),
(369,3,c),
(377,45,l),
(343,36,o),
(326,33,o),
(305,33,cs),
(222,33,o),
(188,79,o),
(201,158,cs),
(271,582,ls),
(305,783,o),
(461,908,o),
(672,908,cs),
(884,908,o),
(984,783,o),
(951,582,cs),
(855,0,l),
(901,0,l),
(997,582,ls),
(1035,810,o),
(909,954,o),
(673,954,cs),
(436,954,o),
(263,810,o),
(225,582,cs),
(155,158,ls),
(137,53,o),
(184,-7,o),
(292,-7,cs)
);
},
{
closed = 1;
nodes = (
(1105,1187,l),
(1112,1233,l),
(325,1233,l),
(318,1187,l)
);
}
);
width = 1215;
},
{
anchors = (
{
name = bottom;
pos = (553,0);
},
{
name = bottomright;
pos = (981,0);
},
{
name = top;
pos = (758,1233);
},
{
name = topright;
pos = (1201,1233);
}
);
background = {
shapes = (
{
ref = "ka-khmer";
}
);
};
layerId = "11F4534A-B963-4AB5-820F-DAF9A20CD933";
shapes = (
{
closed = 1;
nodes = (
(367,-7,o),
(425,0,o),
(446,8,c),
(468,144,l),
(446,137,o),
(424,135,o),
(401,135,cs),
(334,135,o),
(303,154,o),
(312,211,cs),
(361,505,ls),
(387,661,o),
(516,768,o),
(681,768,cs),
(845,768,o),
(940,661,o),
(913,505,cs),
(830,0,l),
(997,0,l),
(1082,513,ls),
(1122,755,o),
(955,919,o),
(691,919,cs),
(427,919,o),
(235,755,o),
(195,513,cs),
(144,207,ls),
(123,82,o),
(175,-7,o),
(344,-7,cs)
);
},
{
closed = 1;
nodes = (
(1183,1076,l),
(1209,1233,l),
(307,1233,l),
(281,1076,l)
);
}
);
width = 1292;
},
{
anchors = (
{
name = bottom;
pos = (580,0);
},
{
name = bottomright;
pos = (1115,0);
},
{
name = top;
pos = (784,1233);
},
{
name = topright;
pos = (1319,1233);
}
);
layerId = "D0EC06BF-13F9-4C88-A6F5-B8203AF6C77E";
shapes = (
{
closed = 1;
nodes = (
(427,-7,o),
(509,1,o),
(579,27,c),
(621,282,l),
(592,276,o),
(571,273,o),
(554,273,cs),
(507,273,o),
(488,296,o),
(494,334,cs),
(504,397,ls),
(518,481,o),
(581,536,o),
(668,536,cs),
(754,536,o),
(800,481,o),
(786,397,cs),
(721,0,l),
(1115,0,l),
(1183,413,ls),
(1226,671,o),
(1052,831,o),
(702,831,cs),
(351,831,o),
(156,671,o),
(113,413,cs),
(87,260,ls),
(59,87,o),
(163,-7,o),
(371,-7,cs)
);
},
{
closed = 1;
nodes = (
(1271,895,l),
(1327,1233,l),
(241,1233,l),
(185,895,l)
);
}
);
width = 1344;
}
);
script = khmer;
subCategory = Other;
unicode = 6031;
}
{
category = Letter;
glyphname = "tha-khmer";
kernLeft = KH_CA;
layers = (
{
anchors = (
{
name = bottom;
pos = (523,0);
},
{
name = bottomright;
pos = (902,0);
},
{
name = top;
pos = (727,1233);
},
{
name = topright;
pos = (1113,1233);
}
);
layerId = "200BE2C5-40F6-4CF4-AF4F-A33C0CC0964F";
shapes = (
{
closed = 1;
nodes = (
(750,-15,o),
(930,128,o),
(965,336,cs),
(1041,796,ls),
(1058,900,o),
(1012,961,o),
(903,961,cs),
(876,961,o),
(856,957,o),
(826,951,c),
(819,908,l),
(853,917,o),
(868,920,o),
(891,920,cs),
(972,920,o),
(1007,875,o),
(994,796,cs),
(919,336,ls),
(889,156,o),
(729,32,o),
(521,32,cs),
(321,32,o),
(209,156,o),
(239,336,cs),
(335,915,ls),
(338,935,o),
(331,945,o),
(316,950,cs),
(212,983,l),
(222,962,l),
(235,1039,ls),
(252,1147,o),
(317,1187,o),
(411,1187,cs),
(1011,1187,ls),
(1076,1187,o),
(1110,1212,o),
(1120,1273,cs),
(1137,1373,l),
(1092,1373,l),
(1075,1273,ls),
(1071,1245,o),
(1057,1233,o),
(1020,1233,cs),
(419,1233,ls),
(297,1233,o),
(214,1177,o),
(191,1039,cs),
(177,950,l),
(288,911,l),
(193,336,ls),
(158,128,o),
(291,-15,o),
(520,-15,cs)
);
}
);
width = 1223;
},
{
anchors = (
{
name = bottom;
pos = (567,0);
},
{
name = bottomright;
pos = (996,0);
},
{
name = top;
pos = (771,1233);
},
{
name = topright;
pos = (1222,1233);
}
);
layerId = "11F4534A-B963-4AB5-820F-DAF9A20CD933";
shapes = (
{
closed = 1;
nodes = (
(852,-15,o),
(1034,144,o),
(1073,377,cs),
(1129,719,ls),
(1151,844,o),
(1097,933,o),
(929,933,cs),
(905,933,o),
(848,926,o),
(828,918,c),
(805,782,l),
(827,788,o),
(849,791,o),
(872,791,cs),
(940,791,o),
(971,772,o),
(961,715,cs),
(907,385,ls),
(881,233,o),
(761,127,o),
(588,127,cs),
(414,127,o),
(329,233,o),
(354,385,cs),
(425,813,ls),
(432,856,o),
(420,871,o),
(381,891,cs),
(271,949,l),
(290,887,l),
(305,973,ls),
(316,1044,o),
(356,1076,o),
(433,1076,cs),
(1002,1076,ls),
(1125,1076,o),
(1204,1131,o),
(1224,1247,cs),
(1245,1373,l),
(1081,1373,l),
(1063,1266,ls),
(1058,1242,o),
(1048,1233,o),
(1023,1233,cs),
(463,1233,ls),
(292,1233,o),
(197,1156,o),
(168,977,cs),
(149,862,l),
(255,801,l),
(185,377,ls),
(147,144,o),
(306,-15,o),
(579,-15,cs)
);
}
);
width = 1305;
},
{
anchors = (
{
name = bottom;
pos = (592,0);
},
{
name = bottomright;
pos = (1105,0);
},
{
name = top;
pos = (796,1233);
},
{
name = topright;
pos = (1332,1233);
}
);
layerId = "D0EC06BF-13F9-4C88-A6F5-B8203AF6C77E";
shapes = (
{
closed = 1;
nodes = (
(938,-15,o),
(1149,132,o),
(1191,385,cs),
(1218,548,ls),
(1247,720,o),
(1143,815,o),
(934,815,cs),
(876,815,o),
(796,807,o),
(727,780,c),
(684,526,l),
(712,532,o),
(735,534,o),
(751,534,cs),
(799,534,o),
(818,511,o),
(812,473,cs),
(801,409,ls),
(787,327,o),
(727,278,o),
(638,278,cs),
(550,278,o),
(505,326,o),
(519,409,cs),
(563,678,ls),
(574,743,o),
(545,761,o),
(494,782,cs),
(339,843,l),
(375,751,l),
(390,838,ls),
(396,876,o),
(422,895,o),
(467,895,cs),
(1007,895,ls),
(1185,895,o),
(1300,993,o),
(1329,1171,cs),
(1356,1335,l),
(969,1335,l),
(956,1256,ls),
(954,1242,o),
(943,1233,o),
(929,1233,cs),
(490,1233,ls),
(230,1233,o),
(140,1096,o),
(108,906,cs),
(81,737,l),
(170,687,l),
(121,385,ls),
(79,132,o),
(265,-15,o),
(604,-15,cs)
);
}
);
width = 1356;
}
);
metricLeft = "=ca-khmer";
script = khmer;
subCategory = Other;
unicode = 6032;
}
{
category = Letter;
glyphname = "to-khmer";
kernLeft = KH_TO;
kernRight = KH_TO;
layers = (
{
anchors = (
{
name = bottom;
pos = (481,0);
},
{
name = bottomright;
pos = (799,0);
},
{
name = top;
pos = (700,1233);
},
{
name = topright;
pos = (1069,1233);
}
);
background = {
anchors = (
{
name = bottom;
pos = (481,0);
},
{
name = bottomright;
pos = (799,0);
},
{
name = top;
pos = (700,1233);
},
{
name = topright;
pos = (1069,1233);
}
);
shapes = (
{
closed = 1;
nodes = (
(687,-15,o),
(830,100,o),
(863,295,cs),
(878,390,ls),
(895,495,o),
(877,542,o),
(842,569,c),
(842,572,l),
(969,577,l),
(975,615,l),
(591,615,ls),
(341,615,o),
(243,723,o),
(271,892,cs),
(301,1076,o),
(473,1201,o),
(691,1201,cs),
(894,1201,o),
(1012,1077,o),
(983,894,c),
(1029,894,l),
(1064,1104,o),
(926,1248,o),
(691,1248,cs),
(449,1248,o),
(260,1104,o),
(224,892,cs),
(191,687,o),
(303,572,o),
(583,572,cs),
(730,572,ls),
(823,572,o),
(849,494,o),
(831,388,cs),
(816,295,ls),
(788,129,o),
(663,32,o),
(479,32,cs),
(295,32,o),
(201,129,o),
(229,295,cs),
(246,400,l),
(199,400,l),
(183,295,ls),
(150,100,o),
(260,-15,o),
(478,-15,cs)
);
}
);
};
layerId = "200BE2C5-40F6-4CF4-AF4F-A33C0CC0964F";
shapes = (
{
closed = 1;
nodes = (
(692,-15,o),
(831,100,o),
(863,295,cs),
(878,390,ls),
(895,495,o),
(877,542,o),
(842,569,c),
(842,572,l),
(969,577,l),
(975,615,l),
(591,615,ls),
(341,615,o),
(246,739,o),
(273,907,cs),
(304,1092,o),
(465,1201,o),
(669,1201,cs),
(888,1201,o),
(1012,1077,o),
(983,894,c),
(1029,894,l),
(1064,1104,o),
(909,1248,o),
(669,1248,cs),
(434,1248,o),
(264,1128,o),
(228,914,cs),
(195,711,o),
(303,572,o),
(583,572,cs),
(730,572,ls),
(823,572,o),
(849,494,o),
(831,388,cs),
(816,295,ls),
(789,129,o),
(663,32,o),
(479,32,cs),
(295,32,o),
(203,129,o),
(229,295,cs),
(246,400,l),
(199,400,l),
(183,295,ls),
(151,100,o),
(264,-15,o),
(478,-15,cs)
);
}
);
width = 1172;
},
{
anchors = (
{
name = bottom;
pos = (532,0);
},
{
name = bottomright;
pos = (881,0);
},
{
name = top;
pos = (717,1233);
},
{
name = topright;
pos = (1121,1233);
}
);
layerId = "11F4534A-B963-4AB5-820F-DAF9A20CD933";
shapes = (
{
closed = 1;
nodes = (
(757,-15,o),
(914,110,o),
(945,299,cs),
(963,410,ls),
(971,460,o),
(956,494,o),
(913,511,c),
(915,519,l),
(1052,524,l),
(1071,643,l),
(636,643,ls),
(431,643,o),
(359,736,o),
(380,866,cs),
(404,1015,o),
(527,1105,o),
(697,1105,cs),
(872,1105,o),
(972,1010,o),
(943,832,c),
(1110,832,l),
(1154,1097,o),
(983,1248,o),
(706,1248,cs),
(425,1248,o),
(248,1095,o),
(212,873,cs),
(171,628,o),
(338,509,o),
(615,509,cs),
(735,509,ls),
(800,509,o),
(810,485,o),
(801,428,cs),
(780,308,ls),
(762,199,o),
(668,127,o),
(543,127,cs),
(418,127,o),
(348,199,o),
(366,308,cs),
(383,409,l),
(217,409,l),
(199,299,ls),
(167,110,o),
(307,-15,o),
(532,-15,cs)
);
}
);
width = 1233;
},
{
anchors = (
{
name = bottom;
pos = (559,0);
},
{
name = bottomright;
pos = (1001,0);
},
{
name = top;
pos = (751,1233);
},
{
name = topright;
pos = (1279,1233);
}
);
background = {
shapes = (
{
closed = 1;
nodes = (
(945,-15,o),
(1119,97,o),
(1119,289,cs),
(1119,365,o),
(1088,422,o),
(1032,454,c),
(1032,462,l),
(1172,471,l),
(1172,667,l),
(691,667,ls),
(535,667,o),
(473,726,o),
(473,828,cs),
(473,911,o),
(529,960,o),
(623,960,cs),
(713,960,o),
(780,906,o),
(780,799,c),
(1165,799,l),
(1165,1101,o),
(979,1248,o),
(625,1248,cs),
(260,1248,o),
(79,1088,o),
(79,831,cs),
(79,585,o),
(247,453,o),
(641,453,cs),
(747,453,l),
(747,367,ls),
(747,305,o),
(708,269,o),
(639,269,cs),
(569,269,o),
(530,305,o),
(530,367,cs),
(530,404,l),
(158,404,l),
(158,340,ls),
(158,88,o),
(321,-15,o),
(639,-15,cs)
);
}
);
};
layerId = "D0EC06BF-13F9-4C88-A6F5-B8203AF6C77E";
shapes = (
{
closed = 1;
nodes = (
(847,-15,o),
(1036,87,o),
(1071,287,cs),
(1079,334,ls),
(1087,383,o),
(1075,425,o),
(1013,460,c),
(1014,468,l),
(1137,477,l),
(1170,676,l),
(713,676,ls),
(562,676,o),
(509,728,o),
(524,819,cs),
(538,904,o),
(600,954,o),
(685,954,cs),
(780,954,o),
(819,891,o),
(803,796,c),
(1197,796,l),
(1245,1084,o),
(1076,1248,o),
(727,1248,cs),
(391,1248,o),
(180,1117,o),
(136,852,cs),
(95,604,o),
(234,450,o),
(624,450,cs),
(692,450,ls),
(705,450,o),
(717,444,o),
(713,424,cs),
(702,358,ls),
(690,290,o),
(650,256,o),
(590,256,cs),
(529,256,o),
(502,291,o),
(511,351,cs),
(520,404,l),
(139,404,l),
(126,327,ls),
(89,104,o),
(246,-15,o),
(558,-15,cs)
);
}
);
width = 1299;
}
);
script = khmer;
subCategory = Other;
unicode = 6033;
}
{
category = Letter;
glyphname = "tho-khmer";
kernLeft = KH_CA;
layers = (
{
anchors = (
{
name = bottom;
pos = (523,0);
},
{
name = bottomright;
pos = (909,0);
},
{
name = top;
pos = (727,1233);
},
{
name = topright;
pos = (1113,1233);
}
);
layerId = "200BE2C5-40F6-4CF4-AF4F-A33C0CC0964F";
shapes = (
{
closed = 1;
nodes = (
(184,0,l),
(586,374,l),
(589,374,l),
(867,0,l),
(909,0,l),
(1040,796,ls),
(1058,900,o),
(1015,961,o),
(907,961,cs),
(880,961,o),
(856,957,o),
(825,951,c),
(819,908,l),
(853,917,o),
(873,920,o),
(894,920,cs),
(977,920,o),
(1007,875,o),
(994,796,cs),
(874,71,l),
(871,71,l),
(608,424,l),
(579,424,l),
(198,71,l),
(195,71,l),
(334,915,ls),
(338,935,o),
(331,945,o),
(315,950,cs),
(211,983,l),
(222,962,l),
(235,1039,ls),
(253,1147,o),
(317,1187,o),
(411,1187,cs),
(1105,1187,l),
(1113,1233,l),
(419,1233,ls),
(296,1233,o),
(214,1177,o),
(191,1039,cs),
(176,950,l),
(287,911,l),
(136,0,l)
);
}
);
width = 1222;
},
{
anchors = (
{
name = bottom;
pos = (567,0);
},
{
name = bottomright;
pos = (1010,0);
},
{
name = top;
pos = (771,1233);
},
{
name = topright;
pos = (1215,1233);
}
);
layerId = "11F4534A-B963-4AB5-820F-DAF9A20CD933";
shapes = (
{
closed = 1;
nodes = (
(297,0,l),
(614,265,l),
(621,265,l),
(850,0,l),
(1010,0,l),
(1129,719,ls),
(1151,844,o),
(1097,933,o),
(929,933,cs),
(905,933,o),
(848,926,o),
(828,918,c),
(805,782,l),
(827,788,o),
(849,791,o),
(872,791,cs),
(940,791,o),
(971,772,o),
(961,715,cs),
(876,201,l),
(869,201,l),
(672,424,l),
(602,424,l),
(331,201,l),
(324,201,l),
(425,813,ls),
(432,856,o),
(420,871,o),
(381,891,cs),
(271,949,l),
(297,887,l),
(312,973,ls),
(324,1044,o),
(361,1076,o),
(433,1076,cs),
(1196,1076,l),
(1222,1233,l),
(463,1233,ls),
(292,1233,o),
(197,1156,o),
(168,977,cs),
(149,862,l),
(255,801,l),
(123,0,l)
);
}
);
width = 1305;
},
{
anchors = (
{
name = bottom;
pos = (592,0);
},
{
name = bottomright;
pos = (1127,0);
},
{
name = top;
pos = (796,1233);
},
{
name = topright;
pos = (1332,1233);
}
);
layerId = "D0EC06BF-13F9-4C88-A6F5-B8203AF6C77E";
shapes = (
{
closed = 1;
nodes = (
(473,0,l),
(620,142,l),
(628,142,l),
(729,0,l),
(1127,0,l),
(1218,548,ls),
(1247,720,o),
(1143,815,o),
(934,815,cs),
(876,815,o),
(796,807,o),
(727,780,c),
(684,526,l),
(712,532,o),
(735,534,o),
(751,534,cs),
(799,534,o),
(818,511,o),
(812,473,cs),
(785,313,l),
(776,313,l),
(694,422,l),
(630,422,l),
(511,313,l),
(503,313,l),
(564,684,ls),
(575,750,o),
(547,769,o),
(495,788,cs),
(339,843,l),
(372,735,l),
(390,838,ls),
(396,876,o),
(422,895,o),
(467,895,cs),
(1276,895,l),
(1332,1233,l),
(490,1233,ls),
(230,1233,o),
(140,1096,o),
(108,906,cs),
(81,737,l),
(172,692,l),
(57,0,l)
);
}
);
width = 1356;
}
);
metricLeft = "=ca-khmer";
script = khmer;
subCategory = Other;
unicode = 6034;
}
{
category = Letter;
glyphname = "no-khmer";
kernLeft = KH_NO;
kernRight = KH_NO;
layers = (
{
anchors = (
{
name = bottom;
pos = (496,0);
},
{
name = bottomright;
pos = (889,0);
},
{
name = top;
pos = (687,1233);
},
{
name = topright;
pos = (1089,1233);
}
);
layerId = "200BE2C5-40F6-4CF4-AF4F-A33C0CC0964F";
shapes = (
{
closed = 1;
nodes = (
(825,-9,o),
(909,76,o),
(934,225,cs),
(999,615,l),
(608,615,ls),
(351,615,o),
(266,750,o),
(292,905,cs),
(321,1092,o),
(487,1203,o),
(692,1203,cs),
(910,1203,o),
(1031,1078,o),
(1001,894,c),
(1047,894,l),
(1082,1104,o),
(940,1248,o),
(692,1248,cs),
(462,1248,o),
(281,1123,o),
(247,913,cs),
(217,728,o),
(315,572,o),
(600,572,cs),
(945,572,l),
(887,225,ls),
(868,106,o),
(799,38,o),
(689,38,cs),
(462,38,o),
(540,334,o),
(255,334,cs),
(203,334,l),
(196,290,l),
(250,290,ls),
(513,290,o),
(436,-9,o),
(690,-9,cs)
);
},
{
closed = 1;
nodes = (
(164,0,l),
(237,443,l),
(191,443,l),
(117,0,l)
);
}
);
width = 1191;
},
{
anchors = (
{
name = bottom;
pos = (551,0);
},
{
name = bottomright;
pos = (976,0);
},
{
name = top;
pos = (722,1233);
},
{
name = topright;
pos = (1173,1233);
}
);
layerId = "11F4534A-B963-4AB5-820F-DAF9A20CD933";
shapes = (
{
closed = 1;
nodes = (
(918,-12,o),
(1008,92,o),
(1033,241,cs),
(1100,644,l),
(655,644,ls),
(468,644,o),
(375,724,o),
(399,866,cs),
(423,1014,o),
(544,1105,o),
(716,1105,cs),
(898,1105,o),
(989,1004,o),
(961,832,c),
(1128,832,l),
(1171,1084,o),
(1012,1248,o),
(724,1248,cs),
(455,1248,o),
(271,1110,o),
(232,879,cs),
(191,632,o),
(357,509,o),
(633,509,cs),
(910,509,l),
(865,241,ls),
(855,175,o),
(812,131,o),
(746,131,cs),
(596,131,o),
(580,346,o),
(348,346,cs),
(319,346,l),
(295,202,l),
(316,202,ls),
(497,202,o),
(495,-12,o),
(746,-12,cs)
);
},
{
closed = 1;
nodes = (
(269,0,l),
(340,430,l),
(179,430,l),
(108,0,l)
);
}
);
width = 1276;
},
{
anchors = (
{
name = bottom;
pos = (572,0);
},
{
name = bottomright;
pos = (1065,0);
},
{
name = top;
pos = (746,1233);
},
{
name = topright;
pos = (1272,1233);
}
);
background = {
anchors = (
{
name = bottom;
pos = (652,0);
},
{
name = bottomright;
pos = (1150,0);
},
{
name = top;
pos = (647,1233);
},
{
name = topright;
pos = (1173,1233);
}
);
shapes = (
{
closed = 1;
nodes = (
(1060,-12,o),
(1166,94,o),
(1166,248,cs),
(1166,682,l),
(668,682,ls),
(557,682,o),
(495,738,o),
(495,825,cs),
(495,905,o),
(547,960,o),
(633,960,cs),
(717,960,o),
(780,906,o),
(780,799,c),
(1166,799,l),
(1166,1101,o),
(975,1248,o),
(637,1248,cs),
(281,1248,o),
(101,1085,o),
(101,841,cs),
(101,597,o),
(283,468,o),
(623,468,cs),
(782,468,l),
(782,312,ls),
(782,282,o),
(766,261,o),
(732,261,cs),
(661,261,o),
(620,344,o),
(509,344,cs),
(489,344,l),
(489,111,l),
(513,111,ls),
(601,111,o),
(652,-12,o),
(858,-12,cs)
);
},
{
closed = 1;
nodes = (
(499,0,l),
(499,404,l),
(122,404,l),
(122,0,l)
);
}
);
};
layerId = "D0EC06BF-13F9-4C88-A6F5-B8203AF6C77E";
shapes = (
{
closed = 1;
nodes = (
(975,-12,o),
(1105,95,o),
(1130,249,cs),
(1202,684,l),
(702,684,ls),
(592,684,o),
(537,737,o),
(552,823,cs),
(564,899,o),
(626,954,o),
(711,954,cs),
(792,954,o),
(844,902,o),
(826,796,c),
(1220,796,l),
(1271,1101,o),
(1076,1248,o),
(749,1248,cs),
(409,1248,o),
(200,1101,o),
(159,855,cs),
(118,607,o),
(279,465,o),
(620,465,cs),
(773,465,l),
(748,314,ls),
(744,287,o),
(726,267,o),
(692,267,cs),
(626,267,o),
(596,344,o),
(490,344,cs),
(471,344,l),
(431,106,l),
(455,106,ls),
(540,106,o),
(568,-12,o),
(777,-12,cs)
);
},
{
closed = 1;
nodes = (
(424,0,l),
(491,403,l),
(105,403,l),
(39,0,l)
);
}
);
width = 1318;
}
);
script = khmer;
subCategory = Other;
unicode = 6035;
}
{
category = Letter;
glyphname = "po-khmer";
kernLeft = KH_PO;
layers = (
{
anchors = (
{
name = bottom;
pos = (516,0);
},
{
name = bottomright;
pos = (902,0);
},
{
name = indpTail;
pos = (913,73);
},
{
name = top;
pos = (719,1233);
},
{
name = topright;
pos = (1098,1233);
}
);
layerId = "200BE2C5-40F6-4CF4-AF4F-A33C0CC0964F";
shapes = (
{
closed = 1;
nodes = (
(320,-7,o),
(340,-4,o),
(370,3,c),
(377,45,l),
(343,36,o),
(327,33,o),
(305,33,cs),
(223,33,o),
(189,79,o),
(202,158,cs),
(350,1051,ls),
(364,1140,o),
(429,1199,o),
(507,1199,cs),
(588,1199,o),
(645,1136,o),
(670,1027,c),
(700,1027,l),
(761,1136,o),
(841,1199,o),
(920,1199,cs),
(996,1199,o),
(1044,1140,o),
(1029,1051,cs),
(855,0,l),
(902,0,l),
(1076,1051,ls),
(1095,1165,o),
(1034,1241,o),
(931,1241,cs),
(839,1241,o),
(750,1180,o),
(698,1089,c),
(694,1089,l),
(672,1180,o),
(604,1241,o),
(511,1241,cs),
(408,1241,o),
(322,1165,o),
(303,1051,cs),
(156,158,ls),
(138,53,o),
(185,-7,o),
(293,-7,cs)
);
}
);
width = 1215;
},
{
anchors = (
{
name = bottom;
pos = (553,0);
},
{
name = bottomright;
pos = (997,0);
},
{
name = indpTail;
pos = (1009,73);
},
{
name = top;
pos = (758,1233);
},
{
name = topright;
pos = (1187,1233);
}
);
layerId = "11F4534A-B963-4AB5-820F-DAF9A20CD933";
shapes = (
{
closed = 1;
nodes = (
(367,-7,o),
(425,0,o),
(446,8,c),
(468,144,l),
(446,137,o),
(424,135,o),
(401,135,cs),
(334,135,o),
(303,154,o),
(312,211,cs),
(438,971,ls),
(449,1041,o),
(493,1091,o),
(558,1091,cs),
(631,1091,o),
(675,1039,o),
(681,951,c),
(741,951,l),
(777,1039,o),
(841,1091,o),
(910,1091,cs),
(975,1091,o),
(1003,1047,o),
(991,971,cs),
(830,0,l),
(997,0,l),
(1161,989,ls),
(1187,1147,o),
(1108,1241,o),
(961,1241,cs),
(862,1241,o),
(787,1199,o),
(744,1127,c),
(737,1127,l),
(714,1199,o),
(653,1241,o),
(556,1241,cs),
(409,1241,o),
(300,1147,o),
(273,989,cs),
(144,207,ls),
(124,82,o),
(175,-7,o),
(344,-7,cs)
);
}
);
width = 1292;
},
{
anchors = (
{
name = bottom;
pos = (583,0);
},
{
name = bottomright;
pos = (1122,0);
},
{
name = indpTail;
pos = (1135,73);
},
{
name = top;
pos = (788,1233);
},
{
name = topright;
pos = (1312,1233);
}
);
layerId = "D0EC06BF-13F9-4C88-A6F5-B8203AF6C77E";
shapes = (
{
closed = 1;
nodes = (
(427,-7,o),
(509,1,o),
(579,27,c),
(621,282,l),
(592,276,o),
(571,273,o),
(554,273,cs),
(507,273,o),
(487,296,o),
(494,334,cs),
(582,865,ls),
(588,903,o),
(615,930,o),
(647,930,cs),
(676,930,o),
(700,908,o),
(700,868,c),
(753,868,l),
(768,911,o),
(801,930,o),
(828,930,cs),
(860,930,o),
(878,903,o),
(871,865,cs),
(728,0,l),
(1122,0,l),
(1285,983,ls),
(1311,1137,o),
(1235,1241,o),
(1047,1241,cs),
(932,1241,o),
(840,1194,o),
(773,1114,c),
(763,1114,l),
(722,1194,o),
(645,1241,o),
(529,1241,cs),
(343,1241,o),
(233,1137,o),
(207,983,cs),
(87,260,ls),
(59,87,o),
(163,-7,o),
(371,-7,cs)
);
}
);
width = 1351;
}
);
script = khmer;
subCategory = Other;
unicode = 6038;
}
{
category = Letter;
glyphname = "pho-khmer";
kernLeft = KH_PHO;
layers = (
{
anchors = (
{
name = bottom;
pos = (515,0);
},
{
name = bottomright;
pos = (901,0);
},
{
name = top;
pos = (718,1233);
},
{
name = topright;
pos = (1105,1233);
}
);
layerId = "200BE2C5-40F6-4CF4-AF4F-A33C0CC0964F";
shapes = (
{
closed = 1;
nodes = (
(201,-7,o),
(274,55,o),
(293,170,cs),
(318,316,o),
(240,430,o),
(267,591,cs),
(300,788,o),
(475,908,o),
(673,908,cs),
(881,908,o),
(983,775,o),
(951,582,cs),
(855,0,l),
(901,0,l),
(997,582,ls),
(1033,803,o),
(907,954,o),
(673,954,cs),
(444,954,o),
(257,815,o),
(220,591,cs),
(192,419,o),
(269,308,o),
(247,170,cs),
(231,79,o),
(183,36,o),
(114,36,cs),
(99,36,o),
(70,39,o),
(48,48,c),
(41,4,l),
(63,-4,o),
(85,-7,o),
(108,-7,cs)
);
},
{
closed = 1;
nodes = (
(1105,1187,l),
(1112,1233,l),
(318,1233,l),
(311,1187,l)
);
}
);
width = 1215;
},
{
anchors = (
{
name = bottom;
pos = (553,0);
},
{
name = bottomright;
pos = (997,0);
},
{
name = top;
pos = (758,1233);
},
{
name = topright;
pos = (1201,1233);
}
);
layerId = "11F4534A-B963-4AB5-820F-DAF9A20CD933";
shapes = (
{
closed = 1;
nodes = (
(266,-7,o),
(356,81,o),
(377,215,cs),
(398,338,o),
(346,418,o),
(364,524,cs),
(388,671,o),
(525,768,o),
(681,768,cs),
(845,768,o),
(940,661,o),
(913,505,cs),
(830,0,l),
(997,0,l),
(1082,513,ls),
(1122,755,o),
(952,919,o),
(691,919,cs),
(447,919,o),
(237,769,o),
(197,529,cs),
(173,386,o),
(225,307,o),
(211,217,cs),
(202,167,o),
(175,127,o),
(113,127,cs),
(92,127,o),
(69,131,o),
(52,138,c),
(31,7,l),
(62,-1,o),
(98,-7,o),
(132,-7,cs)
);
},
{
closed = 1;
nodes = (
(1183,1076,l),
(1209,1233,l),
(307,1233,l),
(281,1076,l)
);
}
);
width = 1292;
},
{
anchors = (
{
name = bottom;
pos = (592,0);
},
{
name = bottomright;
pos = (1129,0);
},
{
name = top;
pos = (796,1233);
},
{
name = topright;
pos = (1334,1233);
}
);
layerId = "D0EC06BF-13F9-4C88-A6F5-B8203AF6C77E";
shapes = (
{
closed = 1;
nodes = (
(372,-15,o),
(478,53,o),
(505,217,cs),
(517,292,o),
(510,360,o),
(517,406,cs),
(530,484,o),
(595,536,o),
(681,536,cs),
(771,536,o),
(815,479,o),
(801,397,cs),
(735,0,l),
(1129,0,l),
(1198,413,ls),
(1241,672,o),
(1069,831,o),
(719,831,cs),
(372,831,o),
(171,674,o),
(137,472,cs),
(127,403,o),
(139,349,o),
(133,313,cs),
(128,282,o),
(108,266,o),
(76,266,cs),
(60,266,o),
(42,269,o),
(18,276,c),
(-26,9,l),
(49,-6,o),
(120,-15,o),
(187,-15,cs)
);
},
{
closed = 1;
nodes = (
(1285,895,l),
(1341,1233,l),
(256,1233,l),
(200,895,l)
);
}
);
width = 1359;
}
);
script = khmer;
subCategory = Other;
unicode = 6039;
}
{
category = Letter;
glyphname = "yo-khmer";
layers = (
{
anchors = (
{
name = bottom;
pos = (1176,0);
},
{
name = bottomright;
pos = (1527,0);
},
{
name = top;
pos = (1380,1233);
},
{
name = topright;
pos = (1745,1233);
}
);
layerId = "200BE2C5-40F6-4CF4-AF4F-A33C0CC0964F";
shapes = (
{
closed = 1;
nodes = (
(665,-15,o),
(807,76,o),
(868,202,c),
(871,202,l),
(889,76,o),
(1001,-15,o),
(1175,-15,cs),
(1390,-15,o),
(1563,123,o),
(1596,326,cs),
(1691,896,ls),
(1695,916,o),
(1688,925,o),
(1673,931,cs),
(1535,983,l),
(1545,962,l),
(1560,1055,ls),
(1577,1152,o),
(1629,1187,o),
(1708,1187,cs),
(1801,1187,l),
(1809,1233,l),
(1716,1233,ls),
(1615,1233,o),
(1538,1184,o),
(1516,1055,cs),
(1500,950,l),
(1644,894,l),
(1550,326,ls),
(1521,151,o),
(1367,32,o),
(1176,32,cs),
(985,32,o),
(884,151,o),
(913,326,cs),
(1007,896,ls),
(1011,916,o),
(1004,925,o),
(989,931,cs),
(851,983,l),
(861,962,l),
(876,1055,ls),
(893,1152,o),
(945,1187,o),
(1025,1187,cs),
(1118,1187,l),
(1126,1233,l),
(1033,1233,ls),
(931,1233,o),
(855,1184,o),
(833,1055,cs),
(816,950,l),
(961,894,l),
(866,326,ls),
(838,151,o),
(679,32,o),
(491,32,cs),
(303,32,o),
(201,151,o),
(229,326,cs),
(353,1076,ls),
(367,1155,o),
(412,1200,o),
(495,1200,cs),
(519,1200,o),
(537,1196,o),
(568,1188,c),
(575,1230,l),
(546,1237,o),
(528,1241,o),
(501,1241,cs),
(393,1241,o),
(324,1180,o),
(307,1076,cs),
(183,326,ls),
(149,123,o),
(276,-15,o),
(490,-15,cs)
);
}
);
width = 1856;
},
{
anchors = (
{
name = bottom;
pos = (1230,0);
},
{
name = bottomright;
pos = (1644,0);
},
{
name = top;
pos = (1435,1233);
},
{
name = topright;
pos = (1863,1233);
}
);
layerId = "11F4534A-B963-4AB5-820F-DAF9A20CD933";
shapes = (
{
closed = 1;
nodes = (
(697,-15,o),
(820,49,o),
(909,175,c),
(918,175,l),
(964,49,o),
(1082,-15,o),
(1242,-15,cs),
(1499,-15,o),
(1683,144,o),
(1721,377,cs),
(1793,813,ls),
(1801,856,o),
(1789,873,o),
(1750,891,cs),
(1647,939,l),
(1652,879,l),
(1666,966,ls),
(1678,1037,o),
(1721,1076,o),
(1804,1076,cs),
(1894,1076,l),
(1920,1233,l),
(1818,1233,ls),
(1655,1233,o),
(1559,1151,o),
(1531,977,cs),
(1511,855,l),
(1624,799,l),
(1556,385,ls),
(1532,244,o),
(1417,137,o),
(1252,137,cs),
(1087,137,o),
(1009,244,o),
(1032,385,cs),
(1103,813,ls),
(1110,856,o),
(1098,873,o),
(1059,891,cs),
(956,939,l),
(961,879,l),
(975,966,ls),
(987,1037,o),
(1031,1076,o),
(1113,1076,cs),
(1203,1076,l),
(1229,1233,l),
(1127,1233,ls),
(964,1233,o),
(868,1151,o),
(840,977,cs),
(820,855,l),
(933,799,l),
(865,385,ls),
(841,244,o),
(726,137,o),
(561,137,cs),
(396,137,o),
(318,244,o),
(341,385,cs),
(443,1001,ls),
(453,1063,o),
(490,1099,o),
(544,1099,cs),
(572,1099,o),
(598,1095,o),
(617,1089,c),
(640,1227,l),
(620,1234,o),
(569,1241,o),
(532,1241,cs),
(396,1241,o),
(301,1156,o),
(277,1011,cs),
(172,377,ls),
(134,144,o),
(280,-15,o),
(537,-15,cs)
);
}
);
width = 1954;
},
{
anchors = (
{
name = bottom;
pos = (1237,0);
},
{
name = bottomright;
pos = (1743,0);
},
{
name = top;
pos = (1441,1233);
},
{
name = topright;
pos = (1969,1233);
}
);
layerId = "D0EC06BF-13F9-4C88-A6F5-B8203AF6C77E";
shapes = (
{
closed = 1;
nodes = (
(681,-15,o),
(830,8,o),
(926,124,c),
(935,124,l),
(1007,8,o),
(1145,-15,o),
(1273,-15,cs),
(1612,-15,o),
(1788,145,o),
(1831,403,cs),
(1879,695,ls),
(1889,756,o),
(1859,774,o),
(1809,790,cs),
(1644,842,l),
(1679,783,l),
(1691,852,ls),
(1695,880,o),
(1721,895,o),
(1766,895,cs),
(1940,895,l),
(1996,1233,l),
(1770,1233,ls),
(1532,1233,o),
(1447,1116,o),
(1420,953,cs),
(1385,737,l),
(1484,693,l),
(1439,420,ls),
(1425,335,o),
(1360,279,o),
(1284,279,cs),
(1208,279,o),
(1163,335,o),
(1177,420,cs),
(1222,695,ls),
(1232,756,o),
(1203,774,o),
(1152,790,cs),
(988,842,l),
(1023,783,l),
(1035,852,ls),
(1039,880,o),
(1065,895,o),
(1109,895,cs),
(1284,895,l),
(1340,1233,l),
(1113,1233,ls),
(876,1233,o),
(791,1116,o),
(764,953,cs),
(728,737,l),
(828,693,l),
(783,420,ls),
(769,335,o),
(703,279,o),
(622,279,cs),
(541,279,o),
(495,335,o),
(508,420,cs),
(587,895,ls),
(593,929,o),
(609,949,o),
(650,949,cs),
(663,949,o),
(676,947,o),
(700,942,c),
(745,1219,l),
(695,1231,o),
(627,1241,o),
(559,1241,cs),
(310,1241,o),
(229,1113,o),
(197,921,cs),
(111,403,ls),
(68,145,o),
(204,-15,o),
(551,-15,cs)
);
}
);
width = 1992;
}
);
metricRight = "ba-khmer";
script = khmer;
subCategory = Other;
unicode = 6041;
}
{
category = Letter;
glyphname = "ro-khmer";
kernLeft = KH_RO;
layers = (
{
anchors = (
{
name = bottom;
pos = (180,0);
},
{
name = bottomright;
pos = (297,0);
},
{
name = top;
pos = (445,1233);
},
{
name = topright;
pos = (728,1233);
}
);
background = {
anchors = (
{
name = bottom;
pos = (264,0);
},
{
name = bottomright;
pos = (381,0);
},
{
name = top;
pos = (325,1233);
},
{
name = topright;
pos = (608,1233);
}
);
shapes = (
{
closed = 1;
nodes = (
(333,-7,o),
(388,53,o),
(388,158,cs),
(388,896,ls),
(388,916,o),
(381,926,o),
(364,931,cs),
(181,985,l),
(193,962,l),
(193,1047,ls),
(193,1157,o),
(244,1197,o),
(338,1197,cs),
(383,1197,o),
(417,1191,o),
(444,1184,c),
(444,1228,l),
(423,1233,o),
(387,1241,o),
(340,1241,cs),
(223,1241,o),
(151,1187,o),
(151,1047,cs),
(151,952,l),
(342,896,l),
(342,158,ls),
(342,79,o),
(303,33,o),
(236,33,cs),
(191,33,o),
(158,43,o),
(121,57,c),
(121,14,l),
(153,1,o),
(185,-7,o),
(236,-7,cs)
);
}
);
};
layerId = "200BE2C5-40F6-4CF4-AF4F-A33C0CC0964F";
shapes = (
{
closed = 1;
nodes = (
(259,-7,o),
(313,53,o),
(331,158,cs),
(453,896,ls),
(456,916,o),
(450,926,o),
(435,931,cs),
(260,985,l),
(269,962,l),
(283,1047,ls),
(300,1154,o),
(356,1187,o),
(451,1187,cs),
(556,1187,l),
(564,1233,l),
(460,1233,ls),
(343,1233,o),
(264,1186,o),
(241,1047,cs),
(225,952,l),
(407,896,l),
(284,158,ls),
(271,79,o),
(234,33,o),
(157,33,cs),
(122,33,o),
(81,43,o),
(47,57,c),
(39,14,l),
(70,1,o),
(111,-7,o),
(151,-7,cs)
);
}
);
width = 618;
},
{
anchors = (
{
name = bottom;
pos = (241,0);
},
{
name = bottomright;
pos = (380,0);
},
{
name = top;
pos = (460,1233);
},
{
name = topright;
pos = (796,1233);
}
);
layerId = "11F4534A-B963-4AB5-820F-DAF9A20CD933";
shapes = (
{
closed = 1;
nodes = (
(310,-15,o),
(407,69,o),
(431,215,cs),
(531,820,ls),
(538,863,o),
(529,886,o),
(487,898,cs),
(326,946,l),
(335,887,l),
(350,973,ls),
(361,1044,o),
(402,1076,o),
(481,1076,cs),
(608,1076,l),
(634,1233,l),
(496,1233,ls),
(333,1233,o),
(241,1164,o),
(212,991,cs),
(188,848,l),
(359,793,l),
(265,225,ls),
(255,163,o),
(220,127,o),
(168,127,cs),
(116,127,o),
(85,132,o),
(55,140,c),
(31,2,l),
(75,-8,o),
(126,-15,o),
(172,-15,cs)
);
}
);
width = 694;
},
{
anchors = (
{
name = bottom;
pos = (295,0);
},
{
name = bottomright;
pos = (517,0);
},
{
name = top;
pos = (536,1233);
},
{
name = topright;
pos = (933,1233);
}
);
background = {
anchors = (
{
name = bottom;
pos = (375,0);
},
{
name = bottomright;
pos = (615,0);
},
{
name = top;
pos = (411,1233);
},
{
name = topright;
pos = (806,1233);
}
);
shapes = (
{
closed = 1;
nodes = (
(511,-7,o),
(615,86,o),
(615,301,cs),
(615,689,ls),
(615,754,o),
(585,777,o),
(530,792,cs),
(339,847,l),
(388,741,l),
(388,828,ls),
(388,879,o),
(425,909,o),
(501,909,cs),
(554,909,o),
(601,903,o),
(652,894,c),
(652,1221,l),
(583,1233,o),
(521,1241,o),
(455,1241,cs),
(197,1241,o),
(106,1126,o),
(106,916,cs),
(106,727,l),
(230,683,l),
(230,345,ls),
(230,296,o),
(205,272,o),
(156,272,cs),
(132,272,o),
(108,275,o),
(71,284,c),
(71,20,l),
(132,2,o),
(204,-7,o),
(297,-7,cs)
);
}
);
};
layerId = "D0EC06BF-13F9-4C88-A6F5-B8203AF6C77E";
shapes = (
{
closed = 1;
nodes = (
(431,-7,o),
(553,81,o),
(583,261,cs),
(652,684,ls),
(663,750,o),
(636,772,o),
(583,788,cs),
(400,843,l),
(433,735,l),
(447,823,ls),
(457,877,o),
(495,895,o),
(549,895,cs),
(708,895,l),
(764,1233,l),
(580,1233,ls),
(298,1233,o),
(207,1105,o),
(175,913,cs),
(143,722,l),
(257,678,l),
(203,350,ls),
(195,302,o),
(166,278,o),
(117,278,cs),
(95,278,o),
(71,281,o),
(36,289,c),
(-9,21,l),
(49,2,o),
(123,-7,o),
(215,-7,cs)
);
}
);
width = 780;
}
);
script = khmer;
subCategory = Other;
unicode = 6042;
}
{
category = Letter;
glyphname = "lo-khmer";
kernLeft = KH_LO;
layers = (
{
anchors = (
{
name = bottom;
pos = (1184,0);
},
{
name = bottomright;
pos = (1527,0);
},
{
name = top;
pos = (1388,1233);
},
{
name = topright;
pos = (1745,1233);
}
);
layerId = "200BE2C5-40F6-4CF4-AF4F-A33C0CC0964F";
shapes = (
{
closed = 1;
nodes = (
(320,-7,o),
(340,-4,o),
(370,3,c),
(377,45,l),
(343,36,o),
(327,33,o),
(305,33,cs),
(223,33,o),
(188,79,o),
(201,158,cs),
(324,893,ls),
(353,1076,o),
(512,1201,o),
(707,1201,cs),
(902,1201,o),
(1005,1076,o),
(975,893,cs),
(884,340,ls),
(849,129,o),
(971,-15,o),
(1182,-15,cs),
(1393,-15,o),
(1563,129,o),
(1598,340,cs),
(1689,896,ls),
(1693,916,o),
(1687,925,o),
(1671,931,cs),
(1533,983,l),
(1543,962,l),
(1559,1055,ls),
(1575,1152,o),
(1628,1187,o),
(1707,1187,cs),
(1800,1187,l),
(1808,1233,l),
(1715,1233,ls),
(1613,1233,o),
(1537,1184,o),
(1515,1055,cs),
(1498,950,l),
(1643,894,l),
(1551,340,ls),
(1521,157,o),
(1369,32,o),
(1183,32,cs),
(997,32,o),
(900,157,o),
(930,340,cs),
(1022,893,ls),
(1057,1104,o),
(928,1248,o),
(707,1248,cs),
(487,1248,o),
(312,1104,o),
(277,893,cs),
(155,158,ls),
(137,53,o),
(185,-7,o),
(293,-7,cs)
);
}
);
width = 1855;
},
{
anchors = (
{
name = bottom;
pos = (1230,0);
},
{
name = bottomright;
pos = (1644,0);
},
{
name = top;
pos = (1435,1233);
},
{
name = topright;
pos = (1863,1233);
}
);
layerId = "11F4534A-B963-4AB5-820F-DAF9A20CD933";
shapes = (
{
closed = 1;
nodes = (
(367,-7,o),
(425,0,o),
(446,8,c),
(468,144,l),
(446,137,o),
(424,135,o),
(401,135,cs),
(334,135,o),
(303,154,o),
(312,211,cs),
(417,848,ls),
(442,996,o),
(566,1097,o),
(723,1097,cs),
(881,1097,o),
(971,996,o),
(947,848,cs),
(869,376,ls),
(831,144,o),
(991,-15,o),
(1244,-15,cs),
(1498,-15,o),
(1683,144,o),
(1721,376,cs),
(1793,813,ls),
(1801,856,o),
(1789,873,o),
(1750,891,cs),
(1647,939,l),
(1652,879,l),
(1666,966,ls),
(1678,1037,o),
(1721,1076,o),
(1804,1076,cs),
(1894,1076,l),
(1920,1233,l),
(1818,1233,ls),
(1655,1233,o),
(1559,1151,o),
(1531,977,cs),
(1511,855,l),
(1624,799,l),
(1556,385,ls),
(1531,238,o),
(1409,137,o),
(1255,137,cs),
(1101,137,o),
(1014,238,o),
(1038,385,cs),
(1116,857,ls),
(1154,1089,o),
(991,1248,o),
(733,1248,cs),
(477,1248,o),
(290,1089,o),
(252,857,cs),
(144,207,ls),
(124,82,o),
(175,-7,o),
(344,-7,cs)
);
}
);
width = 1954;
},
{
anchors = (
{
name = bottom;
pos = (1237,0);
},
{
name = bottomright;
pos = (1743,0);
},
{
name = top;
pos = (1441,1233);
},
{
name = topright;
pos = (1969,1233);
}
);
layerId = "D0EC06BF-13F9-4C88-A6F5-B8203AF6C77E";
shapes = (
{
closed = 1;
nodes = (
(427,-7,o),
(509,1,o),
(579,27,c),
(621,282,l),
(592,276,o),
(571,273,o),
(554,273,cs),
(507,273,o),
(487,296,o),
(494,334,cs),
(573,815,ls),
(587,898,o),
(647,954,o),
(729,954,cs),
(812,954,o),
(856,898,o),
(842,815,cs),
(775,403,ls),
(732,144,o),
(902,-15,o),
(1248,-15,cs),
(1595,-15,o),
(1790,145,o),
(1832,403,cs),
(1880,695,ls),
(1890,756,o),
(1860,774,o),
(1810,790,cs),
(1646,842,l),
(1681,783,l),
(1692,852,ls),
(1697,880,o),
(1723,895,o),
(1767,895,cs),
(1942,895,l),
(1998,1233,l),
(1772,1233,ls),
(1534,1233,o),
(1449,1116,o),
(1422,953,cs),
(1386,737,l),
(1486,693,l),
(1440,419,ls),
(1426,335,o),
(1365,279,o),
(1282,279,cs),
(1199,279,o),
(1157,335,o),
(1171,419,cs),
(1239,831,ls),
(1282,1089,o),
(1111,1248,o),
(764,1248,cs),
(418,1248,o),
(225,1089,o),
(182,831,cs),
(87,260,ls),
(59,87,o),
(163,-7,o),
(371,-7,cs)
);
}
);
width = 1994;
}
);
metricRight = "ba-khmer";
script = khmer;
subCategory = Other;
unicode = 6043;
}
{
category = Letter;
glyphname = "vo-khmer";
kernLeft = KH_VO;
layers = (
{
anchors = (
{
name = bottom;
pos = (189,0);
},
{
name = bottomright;
pos = (306,0);
},
{
name = top;
pos = (476,1233);
},
{
name = topright;
pos = (737,1233);
}
);
layerId = "200BE2C5-40F6-4CF4-AF4F-A33C0CC0964F";
shapes = (
{
closed = 1;
nodes = (
(268,-7,o),
(322,53,o),
(340,158,cs),
(462,896,ls),
(465,916,o),
(457,926,o),
(442,931,cs),
(268,988,l),
(284,960,l),
(304,1076,ls),
(317,1158,o),
(363,1188,o),
(431,1188,cs),
(537,1188,ls),
(574,1188,o),
(593,1204,o),
(599,1241,cs),
(620,1373,l),
(577,1373,l),
(553,1233,l),
(438,1233,ls),
(343,1233,o),
(279,1188,o),
(260,1076,cs),
(239,951,l),
(415,895,l),
(293,158,ls),
(280,79,o),
(243,33,o),
(166,33,cs),
(131,33,o),
(90,43,o),
(56,57,c),
(49,14,l),
(79,1,o),
(119,-7,o),
(160,-7,cs)
);
}
);
width = 634;
},
{
anchors = (
{
name = bottom;
pos = (249,0);
},
{
name = bottomright;
pos = (388,0);
},
{
name = top;
pos = (468,1233);
},
{
name = topright;
pos = (768,1233);
}
);
layerId = "11F4534A-B963-4AB5-820F-DAF9A20CD933";
shapes = (
{
closed = 1;
nodes = (
(319,-7,o),
(416,76,o),
(440,222,cs),
(539,816,ls),
(546,859,o),
(536,879,o),
(495,894,cs),
(321,956,l),
(344,902,l),
(356,977,ls),
(368,1047,o),
(406,1078,o),
(475,1078,cs),
(572,1078,ls),
(643,1078,o),
(679,1108,o),
(690,1178,cs),
(723,1373,l),
(563,1373,l),
(540,1233,l),
(491,1233,ls),
(334,1233,o),
(247,1163,o),
(220,1001,cs),
(196,857,l),
(367,793,l),
(275,233,ls),
(265,170,o),
(230,135,o),
(178,135,cs),
(126,135,o),
(95,140,o),
(64,147,c),
(41,9,l),
(85,-1,o),
(135,-7,o),
(181,-7,cs)
);
}
);
width = 703;
},
{
anchors = (
{
name = bottom;
pos = (309,0);
},
{
name = bottomright;
pos = (532,0);
},
{
name = top;
pos = (550,1233);
},
{
name = topright;
pos = (948,1233);
}
);
background = {
shapes = (
{
closed = 1;
nodes = (
(628,697,ls),
(628,762,o),
(596,783,o),
(544,799,cs),
(348,857,l),
(348,864,ls),
(348,906,o),
(359,922,o),
(407,922,cs),
(503,922,ls),
(639,922,o),
(721,1002,o),
(721,1124,cs),
(721,1350,l),
(353,1350,l),
(353,1233,l),
(299,1233,ls),
(155,1233,o),
(73,1134,o),
(73,961,cs),
(73,746,l),
(243,687,l),
(243,613,l),
(628,613,l)
);
}
);
};
layerId = "D0EC06BF-13F9-4C88-A6F5-B8203AF6C77E";
shapes = (
{
closed = 1;
nodes = (
(445,-7,o),
(567,81,o),
(596,261,cs),
(673,729,ls),
(684,796,o),
(657,818,o),
(606,833,cs),
(257,934,l),
(397,697,l),
(430,897,ls),
(436,935,o),
(454,945,o),
(495,945,cs),
(598,945,ls),
(708,945,o),
(783,1010,o),
(801,1122,cs),
(837,1334,l),
(463,1334,l),
(446,1233,l),
(413,1233,ls),
(273,1233,o),
(179,1146,o),
(154,996,cs),
(112,741,l),
(271,681,l),
(216,349,ls),
(208,302,o),
(180,278,o),
(131,278,cs),
(108,278,o),
(86,281,o),
(50,289,c),
(6,20,l),
(64,2,o),
(135,-7,o),
(229,-7,cs)
);
}
);
width = 794;
}
);
script = khmer;
subCategory = Other;
unicode = 6044;
}
{
category = Letter;
glyphname = "sha-khmer";
layers = (
{
anchors = (
{
name = bottom;
pos = (515,0);
},
{
name = bottomright;
pos = (901,0);
},
{
name = top;
pos = (719,1233);
},
{
name = topright;
pos = (1105,1233);
}
);
layerId = "200BE2C5-40F6-4CF4-AF4F-A33C0CC0964F";
shapes = (
{
closed = 1;
nodes = (
(1114,372,l),
(1121,416,l),
(774,416,l),
(767,372,l)
);
},
{
closed = 1;
nodes = (
(129,0,l),
(175,0,l),
(180,25,ls),
(218,257,o),
(348,374,o),
(542,374,cs),
(590,374,l),
(597,417,l),
(549,417,ls),
(387,417,o),
(267,345,o),
(215,212,c),
(210,212,l),
(271,582,ls),
(305,783,o),
(462,908,o),
(673,908,cs),
(884,908,o),
(984,783,o),
(951,582,cs),
(855,0,l),
(901,0,l),
(997,582,ls),
(1035,810,o),
(909,954,o),
(673,954,cs),
(436,954,o),
(263,810,o),
(225,582,cs)
);
},
{
closed = 1;
nodes = (
(1105,1187,l),
(1113,1233,l),
(326,1233,l),
(318,1187,l)
);
}
);
width = 1215;
},
{
anchors = (
{
name = bottom;
pos = (553,0);
},
{
name = bottomright;
pos = (997,0);
},
{
name = top;
pos = (758,1233);
},
{
name = topright;
pos = (1201,1233);
}
);
layerId = "11F4534A-B963-4AB5-820F-DAF9A20CD933";
shapes = (
{
closed = 1;
nodes = (
(1203,313,l),
(1224,441,l),
(759,441,l),
(737,313,l)
);
},
{
closed = 1;
nodes = (
(110,0,l),
(277,0,l),
(295,107,ls),
(313,222,o),
(388,312,o),
(525,312,cs),
(623,312,l),
(644,444,l),
(543,444,ls),
(464,444,o),
(389,415,o),
(340,336,c),
(332,336,l),
(361,505,ls),
(387,661,o),
(516,768,o),
(681,768,cs),
(845,768,o),
(940,661,o),
(913,505,cs),
(830,0,l),
(997,0,l),
(1082,513,ls),
(1122,755,o),
(955,919,o),
(691,919,cs),
(427,919,o),
(235,755,o),
(195,513,cs)
);
},
{
closed = 1;
nodes = (
(1183,1076,l),
(1209,1233,l),
(307,1233,l),
(281,1076,l)
);
}
);
width = 1292;
},
{
anchors = (
{
name = bottom;
pos = (580,0);
},
{
name = bottomright;
pos = (1115,0);
},
{
name = top;
pos = (784,1233);
},
{
name = topright;
pos = (1319,1233);
}
);
layerId = "D0EC06BF-13F9-4C88-A6F5-B8203AF6C77E";
shapes = (
{
closed = 1;
nodes = (
(1229,148,l),
(1263,353,l),
(708,353,l),
(675,148,l)
);
},
{
closed = 1;
nodes = (
(44,0,l),
(436,0,l),
(444,53,ls),
(452,100,o),
(486,127,o),
(535,127,cs),
(631,127,l),
(672,378,l),
(622,378,ls),
(555,378,o),
(514,343,o),
(491,282,c),
(485,282,l),
(505,400,ls),
(519,484,o),
(582,540,o),
(668,540,cs),
(755,540,o),
(801,484,o),
(787,400,cs),
(721,0,l),
(1115,0,l),
(1184,417,ls),
(1227,674,o),
(1053,833,o),
(703,833,cs),
(352,833,o),
(156,674,o),
(113,417,cs)
);
},
{
closed = 1;
nodes = (
(1271,895,l),
(1327,1233,l),
(241,1233,l),
(185,895,l)
);
}
);
width = 1344;
}
);
script = khmer;
subCategory = Other;
unicode = 6045;
}
{
category = Letter;
glyphname = "sso-khmer";
kernLeft = KH_BA;
layers = (
{
anchors = (
{
name = bottom;
pos = (527,0);
},
{
name = bottomright;
pos = (891,0);
},
{
name = top;
pos = (731,1233);
},
{
name = topright;
pos = (1110,1233);
}
);
layerId = "200BE2C5-40F6-4CF4-AF4F-A33C0CC0964F";
shapes = (
{
closed = 1;
nodes = (
(1196,532,l),
(1203,576,l),
(746,576,l),
(739,532,l)
);
},
{
closed = 1;
nodes = (
(749,-15,o),
(927,124,o),
(960,329,cs),
(1054,896,ls),
(1057,916,o),
(1051,925,o),
(1036,931,cs),
(897,983,l),
(908,962,l),
(923,1055,ls),
(939,1152,o),
(992,1187,o),
(1071,1187,cs),
(1164,1187,l),
(1172,1233,l),
(1079,1233,ls),
(977,1233,o),
(900,1184,o),
(879,1055,cs),
(863,950,l),
(1007,894,l),
(913,329,ls),
(884,153,o),
(725,32,o),
(524,32,cs),
(324,32,o),
(220,153,o),
(249,329,cs),
(343,896,ls),
(346,916,o),
(340,925,o),
(324,931,cs),
(186,983,l),
(196,962,l),
(212,1055,ls),
(228,1152,o),
(281,1187,o),
(360,1187,cs),
(453,1187,l),
(461,1233,l),
(368,1233,ls),
(266,1233,o),
(188,1184,o),
(168,1055,cs),
(151,950,l),
(296,894,l),
(202,329,ls),
(168,124,o),
(299,-15,o),
(524,-15,cs)
);
}
);
width = 1219;
},
{
anchors = (
{
name = bottom;
pos = (559,0);
},
{
name = bottomright;
pos = (985,0);
},
{
name = top;
pos = (765,1233);
},
{
name = topright;
pos = (1204,1233);
}
);
layerId = "11F4534A-B963-4AB5-820F-DAF9A20CD933";
shapes = (
{
closed = 1;
nodes = (
(1240,517,l),
(1261,645,l),
(732,645,l),
(711,517,l)
);
},
{
closed = 1;
nodes = (
(834,-15,o),
(1024,147,o),
(1063,384,cs),
(1135,812,ls),
(1142,855,o),
(1130,871,o),
(1090,889,cs),
(988,937,l),
(993,878,l),
(1007,964,ls),
(1019,1036,o),
(1063,1075,o),
(1145,1075,cs),
(1235,1075,l),
(1260,1232,l),
(1159,1232,ls),
(996,1232,o),
(901,1149,o),
(872,975,cs),
(852,853,l),
(965,798,l),
(897,393,ls),
(872,241,o),
(745,137,o),
(583,137,cs),
(420,137,o),
(327,241,o),
(352,393,cs),
(422,813,ls),
(429,856,o),
(417,873,o),
(378,891,cs),
(276,939,l),
(280,879,l),
(295,966,ls),
(306,1037,o),
(350,1076,o),
(432,1076,cs),
(522,1076,l),
(548,1233,l),
(447,1233,ls),
(284,1233,o),
(187,1151,o),
(159,977,cs),
(140,855,l),
(252,799,l),
(183,384,ls),
(144,147,o),
(311,-15,o),
(572,-15,cs)
);
}
);
width = 1295;
},
{
anchors = (
{
name = bottom;
pos = (605,0);
},
{
name = bottomright;
pos = (1116,0);
},
{
name = top;
pos = (810,1233);
},
{
name = topright;
pos = (1341,1233);
}
);
layerId = "D0EC06BF-13F9-4C88-A6F5-B8203AF6C77E";
shapes = (
{
closed = 1;
nodes = (
(1310,414,l),
(1344,618,l),
(732,618,l),
(698,414,l)
);
},
{
closed = 1;
nodes = (
(956,-15,o),
(1161,137,o),
(1204,403,cs),
(1252,695,ls),
(1263,759,o),
(1231,775,o),
(1183,790,cs),
(1018,842,l),
(1054,783,l),
(1065,853,ls),
(1070,880,o),
(1095,895,o),
(1140,895,cs),
(1314,895,l),
(1370,1233,l),
(1144,1233,ls),
(906,1233,o),
(821,1116,o),
(794,953,cs),
(759,737,l),
(858,693,l),
(812,419,ls),
(798,330,o),
(739,279,o),
(649,279,cs),
(559,279,o),
(516,330,o),
(530,419,cs),
(576,695,ls),
(586,756,o),
(556,774,o),
(506,790,cs),
(342,842,l),
(377,783,l),
(388,852,ls),
(393,880,o),
(419,895,o),
(463,895,cs),
(637,895,l),
(693,1233,l),
(468,1233,ls),
(230,1233,o),
(145,1116,o),
(118,953,cs),
(82,737,l),
(182,693,l),
(134,403,ls),
(89,137,o),
(273,-15,o),
(615,-15,cs)
);
}
);
width = 1364;
}
);
metricLeft = "=ba-khmer";
script = khmer;
subCategory = Other;
unicode = 6046;
}
{
category = Letter;
glyphname = "sa-khmer";
kernLeft = KH_SA;
layers = (
{
anchors = (
{
name = bottom;
pos = (1163,0);
},
{
name = bottomright;
pos = (1512,0);
},
{
name = top;
pos = (1376,1233);
},
{
name = topright;
pos = (1731,1233);
}
);
layerId = "200BE2C5-40F6-4CF4-AF4F-A33C0CC0964F";
shapes = (
{
closed = 1;
nodes = (
(305,-7,o),
(325,-4,o),
(356,3,c),
(363,45,l),
(329,36,o),
(312,33,o),
(291,33,cs),
(208,33,o),
(174,79,o),
(187,158,cs),
(259,592,ls),
(289,771,o),
(442,893,o),
(633,893,cs),
(825,893,o),
(926,771,o),
(896,592,cs),
(852,330,ls),
(818,125,o),
(945,-15,o),
(1160,-15,cs),
(1376,-15,o),
(1547,125,o),
(1581,330,cs),
(1675,896,ls),
(1679,916,o),
(1672,925,o),
(1657,931,cs),
(1519,983,l),
(1529,962,l),
(1544,1055,ls),
(1560,1152,o),
(1613,1187,o),
(1692,1187,cs),
(1785,1187,l),
(1793,1233,l),
(1700,1233,ls),
(1599,1233,o),
(1521,1184,o),
(1500,1055,cs),
(1484,950,l),
(1628,894,l),
(1535,330,ls),
(1505,153,o),
(1351,32,o),
(1161,32,cs),
(970,32,o),
(869,153,o),
(899,330,cs),
(943,592,ls),
(977,799,o),
(849,940,o),
(633,940,cs),
(417,940,o),
(247,799,o),
(212,592,cs),
(140,158,ls),
(123,53,o),
(170,-7,o),
(279,-7,cs)
);
},
{
closed = 1;
nodes = (
(535,921,l),
(383,998,l),
(394,977,l),
(402,1028,ls),
(419,1134,o),
(505,1195,o),
(662,1195,cs),
(761,1195,o),
(865,1170,o),
(950,1135,c),
(973,1177,l),
(881,1217,o),
(763,1241,o),
(663,1241,cs),
(481,1241,o),
(382,1164,o),
(359,1032,cs),
(348,967,l),
(504,887,l)
);
}
);
width = 1840;
},
{
anchors = (
{
name = bottom;
pos = (1217,0);
},
{
name = bottomright;
pos = (1631,0);
},
{
name = top;
pos = (1422,1233);
},
{
name = topright;
pos = (1850,1233);
}
);
layerId = "11F4534A-B963-4AB5-820F-DAF9A20CD933";
shapes = (
{
closed = 1;
nodes = (
(353,-15,o),
(411,-7,o),
(431,1,c),
(454,137,l),
(432,130,o),
(409,127,o),
(387,127,cs),
(319,127,o),
(288,147,o),
(297,204,cs),
(348,505,ls),
(372,649,o),
(489,750,o),
(652,750,cs),
(817,750,o),
(902,649,o),
(879,505,cs),
(856,369,ls),
(818,141,o),
(969,-15,o),
(1230,-15,cs),
(1493,-15,o),
(1669,141,o),
(1707,369,cs),
(1780,813,ls),
(1788,856,o),
(1776,873,o),
(1737,891,cs),
(1634,939,l),
(1639,879,l),
(1653,966,ls),
(1665,1037,o),
(1708,1076,o),
(1791,1076,cs),
(1881,1076,l),
(1907,1233,l),
(1805,1233,ls),
(1642,1233,o),
(1545,1151,o),
(1518,977,cs),
(1498,855,l),
(1611,799,l),
(1541,378,ls),
(1518,236,o),
(1401,137,o),
(1240,137,cs),
(1082,137,o),
(1001,236,o),
(1025,378,cs),
(1047,515,ls),
(1085,743,o),
(929,898,o),
(662,898,cs),
(396,898,o),
(219,743,o),
(182,515,cs),
(130,200,ls),
(110,75,o),
(161,-15,o),
(330,-15,cs)
);
},
{
closed = 1;
nodes = (
(561,868,l),
(454,951,l),
(462,887,l),
(476,973,ls),
(492,1068,o),
(566,1097,o),
(699,1097,cs),
(796,1097,o),
(900,1087,o),
(1005,1063,c),
(1051,1209,l),
(935,1233,o),
(819,1241,o),
(715,1241,cs),
(486,1241,o),
(365,1170,o),
(334,984,cs),
(319,898,l),
(436,804,l)
);
}
);
width = 1941;
},
{
anchors = (
{
name = bottom;
pos = (1227,0);
},
{
name = bottomright;
pos = (1735,0);
},
{
name = top;
pos = (1431,1233);
},
{
name = topright;
pos = (1961,1233);
}
);
layerId = "D0EC06BF-13F9-4C88-A6F5-B8203AF6C77E";
shapes = (
{
closed = 1;
nodes = (
(421,-7,o),
(502,1,o),
(570,27,c),
(612,282,l),
(583,276,o),
(561,273,o),
(545,273,cs),
(499,273,o),
(479,296,o),
(485,334,cs),
(501,428,ls),
(513,495,o),
(570,540,o),
(652,540,cs),
(735,540,o),
(783,495,o),
(771,428,cs),
(760,364,ls),
(720,129,o),
(893,-15,o),
(1239,-15,cs),
(1585,-15,o),
(1778,129,o),
(1817,364,cs),
(1871,695,ls),
(1881,756,o),
(1852,774,o),
(1801,790,cs),
(1637,842,l),
(1672,783,l),
(1684,852,ls),
(1688,880,o),
(1714,895,o),
(1759,895,cs),
(1933,895,l),
(1989,1233,l),
(1763,1233,ls),
(1525,1233,o),
(1440,1116,o),
(1413,953,cs),
(1377,737,l),
(1477,693,l),
(1427,389,ls),
(1416,323,o),
(1356,279,o),
(1273,279,cs),
(1191,279,o),
(1148,324,o),
(1159,389,cs),
(1174,481,ls),
(1207,684,o),
(1060,820,o),
(692,820,cs),
(323,820,o),
(150,684,o),
(116,481,cs),
(79,260,ls),
(49,87,o),
(154,-7,o),
(362,-7,cs)
);
},
{
closed = 1;
nodes = (
(596,774,l),
(497,850,l),
(519,772,l),
(529,838,ls),
(536,877,o),
(568,903,o),
(680,903,cs),
(781,903,o),
(841,897,o),
(951,879,c),
(1052,1218,l),
(952,1233,o),
(832,1242,o),
(703,1242,cs),
(464,1242,o),
(289,1125,o),
(254,913,cs),
(231,773,l),
(313,700,l)
);
}
);
width = 1985;
}
);
metricRight = "ba-khmer";
script = khmer;
subCategory = Other;
unicode = 6047;
}
{
category = Letter;
glyphname = "ha-khmer";
kernLeft = KH_BA;
layers = (
{
anchors = (
{
name = bottom;
pos = (1191,0);
},
{
name = bottomright;
pos = (1561,0);
},
{
name = top;
pos = (1395,1233);
},
{
name = topright;
pos = (1751,1233);
}
);
layerId = "200BE2C5-40F6-4CF4-AF4F-A33C0CC0964F";
shapes = (
{
closed = 1;
nodes = (
(715,-15,o),
(885,129,o),
(920,340,cs),
(1012,893,ls),
(1042,1077,o),
(1204,1203,o),
(1397,1203,cs),
(1591,1203,o),
(1695,1077,o),
(1665,893,cs),
(1516,0,l),
(1561,0,l),
(1710,893,ls),
(1745,1104,o),
(1617,1248,o),
(1397,1248,cs),
(1177,1248,o),
(1001,1104,o),
(967,893,cs),
(875,340,ls),
(844,156,o),
(688,31,o),
(503,31,cs),
(319,31,o),
(220,156,o),
(251,340,cs),
(343,896,ls),
(346,916,o),
(340,925,o),
(324,931,cs),
(186,983,l),
(196,962,l),
(212,1055,ls),
(228,1152,o),
(281,1187,o),
(360,1187,cs),
(453,1187,l),
(461,1233,l),
(368,1233,ls),
(266,1233,o),
(188,1184,o),
(168,1055,cs),
(151,950,l),
(296,894,l),
(204,340,ls),
(169,129,o),
(292,-15,o),
(503,-15,cs)
);
}
);
width = 1875;
},
{
anchors = (
{
name = bottom;
pos = (1233,0);
},
{
name = bottomright;
pos = (1669,0);
},
{
name = top;
pos = (1438,1233);
},
{
name = topright;
pos = (1859,1233);
}
);
layerId = "11F4534A-B963-4AB5-820F-DAF9A20CD933";
shapes = (
{
closed = 1;
nodes = (
(817,-15,o),
(988,144,o),
(1026,376,cs),
(1104,848,ls),
(1128,994,o),
(1249,1097,o),
(1415,1097,cs),
(1581,1097,o),
(1666,994,o),
(1642,848,cs),
(1502,0,l),
(1669,0,l),
(1811,857,ls),
(1849,1089,o),
(1694,1248,o),
(1425,1248,cs),
(1157,1248,o),
(977,1089,o),
(938,857,cs),
(860,385,ls),
(836,239,o),
(725,137,o),
(572,137,cs),
(411,137,o),
(327,239,o),
(351,385,cs),
(422,813,ls),
(429,856,o),
(417,873,o),
(378,891,cs),
(276,939,l),
(280,879,l),
(295,966,ls),
(306,1037,o),
(350,1076,o),
(432,1076,cs),
(522,1076,l),
(548,1233,l),
(447,1233,ls),
(284,1233,o),
(187,1151,o),
(159,977,cs),
(140,855,l),
(252,799,l),
(183,376,ls),
(144,144,o),
(298,-15,o),
(562,-15,cs)
);
}
);
width = 1964;
},
{
anchors = (
{
name = bottom;
pos = (1260,0);
},
{
name = bottomright;
pos = (1788,0);
},
{
name = top;
pos = (1463,1233);
},
{
name = topright;
pos = (1969,1233);
}
);
layerId = "D0EC06BF-13F9-4C88-A6F5-B8203AF6C77E";
shapes = (
{
closed = 1;
nodes = (
(955,-15,o),
(1149,145,o),
(1191,403,cs),
(1259,815,ls),
(1273,898,o),
(1335,954,o),
(1417,954,cs),
(1500,954,o),
(1542,898,o),
(1528,815,cs),
(1393,0,l),
(1788,0,l),
(1925,831,ls),
(1968,1089,o),
(1798,1248,o),
(1451,1248,cs),
(1105,1248,o),
(911,1089,o),
(868,831,cs),
(799,419,ls),
(785,335,o),
(726,279,o),
(642,279,cs),
(559,279,o),
(516,335,o),
(530,419,cs),
(573,679,ls),
(583,742,o),
(550,758,o),
(503,772,cs),
(339,825,l),
(374,767,l),
(385,836,ls),
(390,863,o),
(415,877,o),
(460,877,cs),
(634,877,l),
(690,1216,l),
(465,1216,ls),
(216,1216,o),
(140,1087,o),
(115,936,cs),
(79,719,l),
(179,676,l),
(134,403,ls),
(91,144,o),
(263,-15,o),
(608,-15,cs)
);
}
);
width = 2017;
}
);
metricLeft = "ba-khmer";
script = khmer;
subCategory = Other;
unicode = 6048;
}
{
category = Letter;
glyphname = "la-khmer";
kernLeft = KH_TO;
layers = (
{
anchors = (
{
name = bottom;
pos = (956,-559);
},
{
name = bottomright;
pos = (1270,-559);
},
{
name = top;
pos = (1251,1233);
},
{
name = topright;
pos = (1567,1233);
}
);
layerId = "200BE2C5-40F6-4CF4-AF4F-A33C0CC0964F";
shapes = (
{
closed = 1;
nodes = (
(691,-559,l),
(1003,-293,l),
(1228,-559,l),
(1270,-559,l),
(1511,896,ls),
(1514,916,o),
(1508,925,o),
(1492,931,cs),
(1354,983,l),
(1364,962,l),
(1380,1055,ls),
(1396,1152,o),
(1449,1187,o),
(1528,1187,cs),
(1621,1187,l),
(1629,1233,l),
(1536,1233,ls),
(1434,1233,o),
(1358,1184,o),
(1336,1055,cs),
(1319,950,l),
(1463,894,l),
(1234,-492,l),
(1231,-492,l),
(1023,-244,l),
(994,-244,l),
(703,-492,l),
(700,-492,l),
(764,-105,l),
(604,-105,l),
(597,-148,l),
(711,-148,l),
(643,-559,l)
);
},
{
ref = "to-khmer";
}
);
width = 1676;
},
{
anchors = (
{
name = bottom;
pos = (1005,-559);
},
{
name = bottomright;
pos = (1390,-559);
},
{
name = top;
pos = (1328,1233);
},
{
name = topright;
pos = (1687,1233);
}
);
layerId = "11F4534A-B963-4AB5-820F-DAF9A20CD933";
shapes = (
{
closed = 1;
nodes = (
(789,-559,l),
(1046,-354,l),
(1236,-559,l),
(1390,-559,l),
(1617,813,ls),
(1624,856,o),
(1612,873,o),
(1573,891,cs),
(1471,939,l),
(1475,879,l),
(1489,966,ls),
(1501,1037,o),
(1545,1076,o),
(1627,1076,cs),
(1717,1076,l),
(1743,1233,l),
(1641,1233,ls),
(1479,1233,o),
(1382,1151,o),
(1354,977,cs),
(1335,855,l),
(1447,799,l),
(1252,-381,l),
(1247,-381,l),
(1080,-203,l),
(1048,-203,l),
(821,-381,l),
(817,-381,l),
(863,-105,l),
(595,-105,l),
(576,-218,l),
(675,-218,l),
(619,-559,l)
);
},
{
ref = "to-khmer";
}
);
width = 1777;
},
{
anchors = (
{
name = bottom;
pos = (1081,-559);
},
{
name = bottomright;
pos = (1613,-559);
},
{
name = top;
pos = (1381,1233);
},
{
name = topright;
pos = (1908,1233);
}
);
layerId = "D0EC06BF-13F9-4C88-A6F5-B8203AF6C77E";
shapes = (
{
closed = 1;
nodes = (
(952,-559,l),
(1113,-419,l),
(1226,-559,l),
(1612,-559,l),
(1819,695,ls),
(1829,756,o),
(1800,774,o),
(1750,790,cs),
(1585,842,l),
(1620,783,l),
(1632,852,ls),
(1636,880,o),
(1662,895,o),
(1707,895,cs),
(1881,895,l),
(1937,1233,l),
(1711,1233,ls),
(1473,1233,o),
(1388,1116,o),
(1361,953,cs),
(1326,737,l),
(1425,693,l),
(1264,-278,l),
(1255,-278,l),
(1167,-161,l),
(1124,-161,l),
(999,-278,l),
(990,-278,l),
(1020,-93,l),
(561,-93,l),
(532,-273,l),
(615,-273,l),
(567,-559,l)
);
},
{
ref = "to-khmer";
}
);
width = 1933;
}
);
metricLeft = "to-khmer";
metricRight = "ba-khmer";
script = khmer;
subCategory = Other;
unicode = 6049;
}
{
category = Letter;
glyphname = "qa-khmer";
layers = (
{
anchors = (
{
name = bottom;
pos = (578,0);
},
{
name = bottomright;
pos = (1001,0);
},
{
name = top;
pos = (783,1233);
},
{
name = topright;
pos = (1205,1233);
}
);
layerId = "200BE2C5-40F6-4CF4-AF4F-A33C0CC0964F";
shapes = (
{
closed = 1;
nodes = (
(947,-7,o),
(1009,53,o),
(1026,158,cs),
(1148,896,ls),
(1152,916,o),
(1146,926,o),
(1130,931,cs),
(956,985,l),
(964,962,l),
(978,1047,ls),
(996,1154,o),
(1052,1187,o),
(1146,1187,cs),
(1250,1187,l),
(1258,1233,l),
(1156,1233,ls),
(1039,1233,o),
(959,1186,o),
(936,1047,cs),
(921,952,l),
(1102,896,l),
(980,158,ls),
(967,79,o),
(924,33,o),
(847,33,cs),
(812,33,o),
(777,43,o),
(743,57,c),
(735,14,l),
(766,1,o),
(799,-7,o),
(839,-7,cs)
);
},
{
closed = 1;
nodes = (
(251,-7,o),
(313,53,o),
(330,158,cs),
(452,896,ls),
(456,916,o),
(450,926,o),
(434,931,cs),
(260,985,l),
(268,962,l),
(282,1047,ls),
(300,1154,o),
(356,1187,o),
(450,1187,cs),
(554,1187,l),
(562,1233,l),
(460,1233,ls),
(343,1233,o),
(263,1186,o),
(240,1047,cs),
(225,952,l),
(406,896,l),
(284,158,ls),
(271,79,o),
(228,33,o),
(151,33,cs),
(116,33,o),
(81,43,o),
(47,57,c),
(39,14,l),
(70,1,o),
(103,-7,o),
(143,-7,cs)
);
},
{
closed = 1;
nodes = (
(1064,529,l),
(1071,573,l),
(381,573,l),
(375,529,l)
);
}
);
width = 1313;
},
{
anchors = (
{
name = bottom;
pos = (591,0);
},
{
name = bottomright;
pos = (1067,0);
},
{
name = top;
pos = (796,1233);
},
{
name = topright;
pos = (1276,1233);
}
);
layerId = "11F4534A-B963-4AB5-820F-DAF9A20CD933";
shapes = (
{
closed = 1;
nodes = (
(996,-15,o),
(1093,69,o),
(1117,215,cs),
(1217,820,ls),
(1225,863,o),
(1215,886,o),
(1173,898,cs),
(1012,946,l),
(1022,887,l),
(1036,973,ls),
(1048,1044,o),
(1089,1076,o),
(1168,1076,cs),
(1295,1076,l),
(1321,1233,l),
(1183,1233,ls),
(1020,1233,o),
(927,1164,o),
(898,991,cs),
(874,848,l),
(1045,793,l),
(951,225,ls),
(941,163,o),
(906,127,o),
(855,127,cs),
(802,127,o),
(772,132,o),
(741,140,c),
(718,2,l),
(761,-8,o),
(812,-15,o),
(858,-15,cs)
);
},
{
closed = 1;
nodes = (
(310,-15,o),
(407,69,o),
(431,215,cs),
(531,820,ls),
(538,863,o),
(529,886,o),
(487,898,cs),
(326,946,l),
(335,887,l),
(350,973,ls),
(361,1044,o),
(402,1076,o),
(481,1076,cs),
(608,1076,l),
(634,1233,l),
(496,1233,ls),
(333,1233,o),
(240,1164,o),
(212,991,cs),
(188,848,l),
(359,793,l),
(265,225,ls),
(255,163,o),
(220,127,o),
(168,127,cs),
(116,127,o),
(85,132,o),
(55,140,c),
(31,2,l),
(75,-8,o),
(126,-15,o),
(172,-15,cs)
);
},
{
closed = 1;
nodes = (
(1031,485,l),
(1054,617,l),
(409,617,l),
(387,485,l)
);
}
);
width = 1376;
},
{
anchors = (
{
name = bottom;
pos = (646,0);
},
{
name = bottomright;
pos = (1209,0);
},
{
name = top;
pos = (850,1233);
},
{
name = topright;
pos = (1435,1233);
}
);
layerId = "D0EC06BF-13F9-4C88-A6F5-B8203AF6C77E";
shapes = (
{
closed = 1;
nodes = (
(1123,-7,o),
(1245,81,o),
(1275,261,cs),
(1345,684,ls),
(1356,750,o),
(1329,772,o),
(1276,788,cs),
(1093,843,l),
(1125,735,l),
(1140,823,ls),
(1149,879,o),
(1183,895,o),
(1227,895,cs),
(1401,895,l),
(1457,1233,l),
(1273,1233,ls),
(991,1233,o),
(899,1103,o),
(867,913,cs),
(835,722,l),
(949,678,l),
(895,350,ls),
(887,302,o),
(859,278,o),
(809,278,cs),
(786,278,o),
(764,281,o),
(728,289,c),
(684,21,l),
(745,1,o),
(819,-7,o),
(908,-7,cs)
);
},
{
closed = 1;
nodes = (
(431,-7,o),
(553,81,o),
(583,261,cs),
(652,684,ls),
(663,750,o),
(636,772,o),
(583,788,cs),
(400,843,l),
(433,735,l),
(447,823,ls),
(457,879,o),
(491,895,o),
(534,895,cs),
(708,895,l),
(764,1233,l),
(580,1233,ls),
(298,1233,o),
(207,1103,o),
(175,913,cs),
(143,722,l),
(257,678,l),
(203,350,ls),
(195,302,o),
(166,278,o),
(117,278,cs),
(95,278,o),
(71,281,o),
(36,289,c),
(-9,21,l),
(49,2,o),
(123,-7,o),
(215,-7,cs)
);
},
{
closed = 1;
nodes = (
(1035,412,l),
(1068,609,l),
(513,609,l),
(480,412,l)
);
}
);
width = 1460;
}
);
script = khmer;
subCategory = Other;
unicode = 6050;
}
{
category = Letter;
glyphname = "qi-khmer";
layers = (
{
layerId = "200BE2C5-40F6-4CF4-AF4F-A33C0CC0964F";
shapes = (
{
closed = 1;
nodes = (
(316,-7,o),
(340,-4,o),
(370,3,c),
(377,45,l),
(343,36,o),
(322,33,o),
(301,33,cs),
(218,33,o),
(188,79,o),
(201,158,cs),
(271,582,ls),
(304,783,o),
(461,908,o),
(673,908,cs),
(884,908,o),
(984,783,o),
(951,582,cs),
(855,0,l),
(901,0,l),
(997,582,ls),
(1035,810,o),
(909,954,o),
(673,954,cs),
(436,954,o),
(263,810,o),
(225,582,cs),
(155,158,ls),
(137,53,o),
(180,-7,o),
(289,-7,cs)
);
},
{
closed = 1;
nodes = (
(981,1187,ls),
(1067,1187,o),
(1109,1220,o),
(1124,1303,cs),
(1136,1373,l),
(1091,1373,l),
(1079,1303,ls),
(1070,1254,o),
(1050,1233,o),
(990,1233,cs),
(326,1233,l),
(318,1187,l)
);
}
);
width = 1215;
},
{
layerId = "11F4534A-B963-4AB5-820F-DAF9A20CD933";
shapes = (
{
closed = 1;
nodes = (
(367,-15,o),
(424,-7,o),
(444,1,c),
(467,137,l),
(445,130,o),
(423,127,o),
(400,127,cs),
(332,127,o),
(301,147,o),
(311,204,cs),
(361,505,ls),
(387,661,o),
(516,768,o),
(681,768,cs),
(845,768,o),
(940,661,o),
(913,505,cs),
(830,0,l),
(997,0,l),
(1082,513,ls),
(1122,755,o),
(955,919,o),
(691,919,cs),
(427,919,o),
(235,755,o),
(195,513,cs),
(143,200,ls),
(123,75,o),
(175,-15,o),
(343,-15,cs)
);
},
{
closed = 1;
nodes = (
(989,1076,ls),
(1112,1076,o),
(1191,1131,o),
(1211,1247,cs),
(1232,1373,l),
(1068,1373,l),
(1049,1266,ls),
(1045,1242,o),
(1035,1233,o),
(1010,1233,cs),
(307,1233,l),
(281,1076,l)
);
}
);
width = 1292;
},
{
layerId = "D0EC06BF-13F9-4C88-A6F5-B8203AF6C77E";
shapes = (
{
closed = 1;
nodes = (
(430,-7,o),
(511,1,o),
(579,27,c),
(621,282,l),
(592,276,o),
(569,273,o),
(554,273,cs),
(507,273,o),
(488,296,o),
(494,334,cs),
(504,397,ls),
(518,481,o),
(581,536,o),
(668,536,cs),
(754,536,o),
(800,481,o),
(786,397,cs),
(721,0,l),
(1115,0,l),
(1183,413,ls),
(1226,671,o),
(1052,831,o),
(703,831,cs),
(351,831,o),
(156,671,o),
(113,413,cs),
(87,260,ls),
(59,87,o),
(163,-7,o),
(371,-7,cs)
);
},
{
closed = 1;
nodes = (
(995,895,ls),
(1173,895,o),
(1287,993,o),
(1316,1171,cs),
(1343,1334,l),
(956,1334,l),
(946,1274,ls),
(942,1249,o),
(924,1233,o),
(900,1233,cs),
(241,1233,l),
(185,895,l)
);
}
);
width = 1344;
}
);
script = khmer;
subCategory = Other;
unicode = 6053;
}
{
category = Letter;
glyphname = "qii-khmer";
layers = (
{
layerId = "200BE2C5-40F6-4CF4-AF4F-A33C0CC0964F";
shapes = (
{
closed = 1;
nodes = (
(982,-559,ls),
(1186,-559,o),
(1295,-467,o),
(1330,-257,cs),
(1616,1471,ls),
(1645,1648,o),
(1553,1769,o),
(1383,1769,cs),
(1243,1769,o),
(1151,1686,o),
(1117,1621,c),
(1111,1621,l),
(1143,1815,l),
(1098,1815,l),
(1041,1473,l),
(1084,1466,l),
(1111,1624,o),
(1239,1724,o),
(1383,1724,cs),
(1529,1724,o),
(1594,1621,o),
(1569,1471,cs),
(1284,-257,ls),
(1254,-436,o),
(1172,-513,o),
(989,-513,cs),
(731,-513,l),
(724,-559,l)
);
},
{
closed = 1;
nodes = (
(315,-567,o),
(342,-564,o),
(364,-559,c),
(370,-518,l),
(347,-524,o),
(327,-526,o),
(310,-526,cs),
(204,-526,o),
(156,-452,o),
(172,-356,cs),
(193,-229,o),
(321,-138,o),
(500,-138,cs),
(679,-138,o),
(753,-228,o),
(731,-365,cs),
(699,-559,l),
(744,-559,l),
(776,-365,ls),
(803,-201,o),
(707,-93,o),
(500,-93,cs),
(295,-93,o),
(154,-195,o),
(129,-348,cs),
(109,-470,o),
(172,-567,o),
(294,-567,cs)
);
},
{
closed = 1;
nodes = (
(316,-7,o),
(340,-4,o),
(370,3,c),
(377,45,l),
(343,36,o),
(322,33,o),
(301,33,cs),
(218,33,o),
(188,79,o),
(201,158,cs),
(320,876,ls),
(353,1076,o),
(509,1201,o),
(721,1201,cs),
(932,1201,o),
(1033,1076,o),
(999,876,cs),
(855,0,l),
(901,0,l),
(1046,876,ls),
(1084,1104,o),
(958,1248,o),
(721,1248,cs),
(485,1248,o),
(311,1104,o),
(273,876,cs),
(155,158,ls),
(137,53,o),
(180,-7,o),
(289,-7,cs)
);
}
);
width = 1686;
},
{
background = {
shapes = (
{
closed = 1;
nodes = (
(452,-15,o),
(509,-7,o),
(528,1,c),
(528,137,l),
(507,130,o),
(485,127,o),
(463,127,cs),
(395,127,o),
(361,147,o),
(361,204,cs),
(361,833,ls),
(361,990,o),
(473,1097,o),
(637,1097,cs),
(801,1097,o),
(913,990,o),
(913,833,cs),
(913,0,l),
(1081,0,l),
(1081,842,ls),
(1081,1084,o),
(901,1248,o),
(637,1248,cs),
(373,1248,o),
(193,1084,o),
(193,842,cs),
(193,200,ls),
(193,75,o),
(260,-15,o),
(429,-15,cs)
);
}
);
};
layerId = "11F4534A-B963-4AB5-820F-DAF9A20CD933";
shapes = (
{
closed = 1;
nodes = (
(1124,-559,ls),
(1329,-559,o),
(1476,-449,o),
(1508,-262,cs),
(1792,1453,ls),
(1826,1660,o),
(1705,1799,o),
(1500,1799,cs),
(1382,1799,o),
(1292,1752,o),
(1235,1676,c),
(1226,1676,l),
(1257,1862,l),
(1095,1862,l),
(1031,1475,l),
(1190,1446,l),
(1223,1575,o),
(1336,1655,o),
(1448,1655,cs),
(1580,1655,o),
(1639,1543,o),
(1620,1430,cs),
(1342,-253,ls),
(1322,-371,o),
(1249,-433,o),
(1145,-433,cs),
(817,-433,l),
(796,-559,l)
);
},
{
closed = 1;
nodes = (
(350,-573,o),
(375,-569,o),
(420,-559,c),
(438,-447,l),
(401,-456,o),
(385,-457,o),
(377,-457,cs),
(324,-457,o),
(293,-424,o),
(303,-366,cs),
(317,-277,o),
(409,-221,o),
(543,-221,cs),
(683,-221,o),
(755,-283,o),
(738,-385,cs),
(710,-559,l),
(868,-559,l),
(899,-375,ls),
(927,-209,o),
(805,-90,o),
(550,-90,cs),
(305,-90,o),
(169,-204,o),
(143,-366,cs),
(126,-465,o),
(151,-573,o),
(319,-573,cs)
);
},
{
closed = 1;
nodes = (
(386,-15,o),
(424,-7,o),
(444,1,c),
(467,137,l),
(445,130,o),
(425,127,o),
(400,127,cs),
(335,127,o),
(301,147,o),
(311,204,cs),
(415,833,ls),
(441,990,o),
(571,1097,o),
(735,1097,cs),
(900,1097,o),
(994,990,o),
(968,833,cs),
(830,0,l),
(997,0,l),
(1137,842,ls),
(1177,1084,o),
(1009,1248,o),
(745,1248,cs),
(481,1248,o),
(289,1084,o),
(249,842,cs),
(143,200,ls),
(123,75,o),
(194,-15,o),
(343,-15,cs)
);
}
);
width = 1846;
},
{
layerId = "D0EC06BF-13F9-4C88-A6F5-B8203AF6C77E";
shapes = (
{
closed = 1;
nodes = (
(1281,-559,ls),
(1533,-559,o),
(1697,-449,o),
(1732,-233,cs),
(2009,1436,ls),
(2049,1677,o),
(1921,1815,o),
(1700,1815,cs),
(1566,1815,o),
(1481,1766,o),
(1407,1678,c),
(1395,1678,l),
(1428,1878,l),
(1056,1878,l),
(999,1529,l),
(1356,1427,l),
(1396,1500,o),
(1446,1543,o),
(1519,1543,cs),
(1591,1543,o),
(1627,1500,o),
(1614,1423,cs),
(1340,-231,ls),
(1323,-332,o),
(1265,-359,o),
(1187,-359,cs),
(887,-359,l),
(854,-559,l)
);
},
{
closed = 1;
nodes = (
(360,-573,o),
(425,-561,o),
(446,-552,c),
(471,-399,l),
(462,-401,o),
(449,-404,o),
(441,-404,cs),
(423,-404,o),
(407,-392,o),
(412,-361,cs),
(419,-320,o),
(460,-286,o),
(529,-286,cs),
(609,-286,o),
(639,-327,o),
(626,-401,cs),
(600,-559,l),
(964,-559,l),
(993,-383,ls),
(1028,-175,o),
(860,-78,o),
(550,-78,cs),
(202,-78,o),
(74,-199,o),
(49,-351,cs),
(25,-496,o),
(100,-573,o),
(287,-573,cs)
);
},
{
closed = 1;
nodes = (
(430,-7,o),
(511,1,o),
(579,27,c),
(621,282,l),
(592,276,o),
(569,273,o),
(554,273,cs),
(507,273,o),
(487,296,o),
(494,334,cs),
(573,815,ls),
(587,898,o),
(652,954,o),
(737,954,cs),
(822,954,o),
(869,898,o),
(855,815,cs),
(721,0,l),
(1115,0,l),
(1252,831,ls),
(1295,1089,o),
(1119,1248,o),
(771,1248,cs),
(423,1248,o),
(225,1089,o),
(182,831,cs),
(87,260,ls),
(59,87,o),
(163,-7,o),
(371,-7,cs)
);
}
);
width = 2000;
}
);
script = khmer;
subCategory = Other;
unicode = 6054;
}
{
category = Letter;
glyphname = "qu-khmer";
layers = (
{
layerId = "200BE2C5-40F6-4CF4-AF4F-A33C0CC0964F";
shapes = (
{
closed = 1;
nodes = (
(631,-15,o),
(759,92,o),
(837,241,c),
(844,241,l),
(804,0,l),
(850,0,l),
(928,469,l),
(884,469,l),
(879,446,ls),
(843,250,o),
(693,31,o),
(434,31,cs),
(248,31,o),
(156,144,o),
(189,343,cs),
(227,572,l),
(564,572,ls),
(841,572,o),
(1000,677,o),
(1034,886,cs),
(1072,1114,o),
(928,1248,o),
(694,1248,cs),
(451,1248,o),
(266,1104,o),
(231,894,c),
(278,894,l),
(308,1078,o),
(477,1203,o),
(694,1203,cs),
(899,1203,o),
(1023,1090,o),
(990,895,cs),
(959,710,o),
(817,615,o),
(570,615,cs),
(188,615,l),
(143,343,ls),
(105,116,o),
(217,-15,o),
(434,-15,cs)
);
}
);
width = 1148;
},
{
layerId = "11F4534A-B963-4AB5-820F-DAF9A20CD933";
shapes = (
{
closed = 1;
nodes = (
(630,-15,o),
(729,47,o),
(800,155,c),
(809,155,l),
(783,1,l),
(949,1,l),
(1019,423,l),
(852,423,l),
(849,407,ls),
(828,261,o),
(700,135,o),
(522,135,cs),
(375,135,o),
(281,222,o),
(305,372,cs),
(328,509,l),
(605,509,ls),
(889,509,o),
(1086,625,o),
(1123,847,cs),
(1161,1081,o),
(998,1248,o),
(729,1248,cs),
(458,1248,o),
(257,1077,o),
(216,832,c),
(383,832,l),
(410,993,o),
(545,1105,o),
(721,1105,cs),
(892,1105,o),
(980,997,o),
(957,861,cs),
(934,722,o),
(812,644,o),
(628,644,cs),
(183,644,l),
(134,345,ls),
(97,124,o),
(244,-15,o),
(476,-15,cs)
);
}
);
width = 1261;
},
{
layerId = "D0EC06BF-13F9-4C88-A6F5-B8203AF6C77E";
shapes = (
{
closed = 1;
nodes = (
(530,-15,o),
(645,29,o),
(715,126,c),
(728,126,l),
(707,0,l),
(1077,0,l),
(1144,403,l),
(773,403,l),
(769,391,ls),
(731,291,o),
(681,227,o),
(594,227,cs),
(513,227,o),
(460,282,o),
(474,365,cs),
(491,466,l),
(655,466,ls),
(1006,466,o),
(1211,579,o),
(1251,819,cs),
(1292,1068,o),
(1131,1248,o),
(756,1248,cs),
(418,1248,o),
(204,1101,o),
(153,796,c),
(547,796,l),
(564,902,o),
(637,954,o),
(727,954,cs),
(817,954,o),
(865,901,o),
(852,823,cs),
(839,740,o),
(764,683,o),
(646,683,cs),
(134,683,l),
(79,347,ls),
(42,127,o),
(146,-15,o),
(393,-15,cs)
);
}
);
width = 1321;
}
);
script = khmer;
subCategory = Other;
unicode = 6055;
}
{
category = Letter;
glyphname = "quk-khmer";
layers = (
{
layerId = "200BE2C5-40F6-4CF4-AF4F-A33C0CC0964F";
shapes = (
{
closed = 1;
nodes = (
(1111,1466,l),
(1118,1513,l),
(375,1513,l),
(367,1466,l)
);
},
{
ref = "qu-khmer";
}
);
width = 1148;
},
{
layerId = "11F4534A-B963-4AB5-820F-DAF9A20CD933";
shapes = (
{
closed = 1;
nodes = (
(1207,1466,l),
(1232,1617,l),
(396,1617,l),
(371,1466,l)
);
},
{
ref = "qu-khmer";
}
);
width = 1261;
},
{
layerId = "D0EC06BF-13F9-4C88-A6F5-B8203AF6C77E";
shapes = (
{
closed = 1;
nodes = (
(1321,1394,l),
(1363,1642,l),
(340,1642,l),
(299,1394,l)
);
},
{
ref = "qu-khmer";
}
);
width = 1321;
}
);
metricWidth = "qu-khmer";
script = khmer;
subCategory = Other;
unicode = 6056;
}
{
category = Letter;
glyphname = "quu-khmer";
layers = (
{
layerId = "200BE2C5-40F6-4CF4-AF4F-A33C0CC0964F";
shapes = (
{
closed = 1;
nodes = (
(586,-15,o),
(707,97,o),
(779,241,c),
(785,241,l),
(745,0,l),
(791,0,l),
(868,469,l),
(825,469,l),
(821,446,ls),
(785,250,o),
(643,31,o),
(405,31,cs),
(238,31,o),
(156,139,o),
(187,328,cs),
(227,572,l),
(564,572,ls),
(841,572,o),
(1000,679,o),
(1035,889,cs),
(1072,1114,o),
(928,1248,o),
(694,1248,cs),
(451,1248,o),
(265,1104,o),
(231,894,c),
(277,894,l),
(308,1078,o),
(479,1203,o),
(694,1203,cs),
(900,1203,o),
(1022,1091,o),
(990,897,cs),
(959,713,o),
(817,615,o),
(570,615,cs),
(188,615,l),
(140,328,ls),
(105,111,o),
(212,-15,o),
(405,-15,cs)
);
},
{
closed = 1;
nodes = (
(980,0,l),
(1057,469,l),
(1014,469,l),
(936,0,l)
);
}
);
width = 1148;
},
{
background = {
shapes = (
{
closed = 1;
nodes = (
(663,-15,o),
(747,70,o),
(793,169,c),
(801,169,l),
(801,1,l),
(967,1,l),
(967,423,l),
(800,423,l),
(800,417,ls),
(800,262,o),
(684,135,o),
(530,135,cs),
(408,135,o),
(327,215,o),
(327,336,cs),
(327,509,l),
(604,509,ls),
(917,509,o),
(1067,655,o),
(1067,860,cs),
(1067,1111,o),
(879,1248,o),
(620,1248,cs),
(342,1248,o),
(162,1097,o),
(162,832,c),
(329,832,l),
(329,1010,o),
(439,1105,o),
(620,1105,cs),
(784,1105,o),
(898,1020,o),
(898,858,cs),
(898,737,o),
(809,640,o),
(604,640,cs),
(160,640,l),
(160,316,ls),
(160,117,o),
(284,-15,o),
(490,-15,cs)
);
},
{
closed = 1;
nodes = (
(1183,0,l),
(1183,423,l),
(1046,423,l),
(1046,0,l)
);
}
);
};
layerId = "11F4534A-B963-4AB5-820F-DAF9A20CD933";
shapes = (
{
closed = 1;
nodes = (
(539,-15,o),
(657,32,o),
(732,140,c),
(741,140,l),
(718,1,l),
(871,1,l),
(940,423,l),
(786,423,l),
(784,407,ls),
(767,283,o),
(635,135,o),
(476,135,cs),
(361,135,o),
(279,211,o),
(300,343,cs),
(328,509,l),
(605,509,ls),
(889,509,o),
(1086,624,o),
(1123,847,cs),
(1161,1080,o),
(998,1248,o),
(729,1248,cs),
(458,1248,o),
(257,1077,o),
(216,832,c),
(383,832,l),
(410,993,o),
(545,1105,o),
(721,1105,cs),
(892,1105,o),
(980,997,o),
(957,861,cs),
(934,722,o),
(812,644,o),
(628,644,cs),
(183,644,l),
(129,316,ls),
(93,100,o),
(241,-15,o),
(423,-15,cs)
);
},
{
closed = 1;
nodes = (
(1121,0,l),
(1191,423,l),
(1054,423,l),
(984,0,l)
);
}
);
width = 1261;
},
{
background = {
shapes = (
{
closed = 1;
nodes = (
(1261,0,l),
(1261,404,l),
(1073,404,l),
(1073,0,l)
);
},
{
closed = 1;
nodes = (
(814,404,l),
(811,392,ls),
(791,308,o),
(744,258,o),
(659,258,cs),
(567,258,o),
(512,314,o),
(512,400,cs),
(512,468,l),
(681,468,ls),
(1029,468,o),
(1215,597,o),
(1215,841,cs),
(1215,1085,o),
(1031,1248,o),
(668,1248,cs),
(324,1248,o),
(128,1101,o),
(128,799,c),
(513,799,l),
(513,906,o),
(580,960,o),
(672,960,cs),
(764,960,o),
(820,905,o),
(820,825,cs),
(820,738,o),
(756,681,o),
(637,681,cs),
(128,681,l),
(128,347,ls),
(128,127,o),
(273,-15,o),
(524,-15,cs),
(660,-15,o),
(748,36,o),
(801,142,c),
(815,142,l),
(815,0,l),
(1025,0,l),
(1025,404,l)
);
}
);
};
layerId = "D0EC06BF-13F9-4C88-A6F5-B8203AF6C77E";
shapes = (
{
closed = 1;
nodes = (
(540,-15,o),
(644,32,o),
(719,140,c),
(732,140,l),
(709,0,l),
(938,0,l),
(1005,403,l),
(776,403,l),
(771,391,ls),
(744,329,o),
(701,233,o),
(592,233,cs),
(517,233,o),
(483,279,o),
(496,357,cs),
(514,466,l),
(679,466,ls),
(1029,466,o),
(1234,577,o),
(1274,818,cs),
(1315,1066,o),
(1160,1248,o),
(785,1248,cs),
(448,1248,o),
(227,1101,o),
(176,796,c),
(570,796,l),
(588,902,o),
(665,954,o),
(755,954,cs),
(846,954,o),
(888,900,o),
(876,823,cs),
(861,738,o),
(788,683,o),
(669,683,cs),
(157,683,l),
(96,311,ls),
(62,103,o),
(175,-15,o),
(399,-15,cs)
);
},
{
closed = 1;
nodes = (
(1249,0,l),
(1316,402,l),
(1095,402,l),
(1028,0,l)
);
}
);
width = 1367;
}
);
script = khmer;
subCategory = Other;
unicode = 6057;
}
{
category = Letter;
glyphname = "quuv-khmer";
layers = (
{
layerId = "200BE2C5-40F6-4CF4-AF4F-A33C0CC0964F";
shapes = (
{
closed = 1;
nodes = (
(311,1373,l),
(356,1373,l),
(361,1404,ls),
(383,1535,o),
(471,1584,o),
(554,1584,cs),
(705,1584,o),
(787,1425,o),
(952,1425,cs),
(1047,1425,o),
(1105,1477,o),
(1124,1585,cs),
(1143,1699,l),
(1096,1699,l),
(1077,1585,ls),
(1072,1554,o),
(1052,1471,o),
(952,1471,cs),
(815,1471,o),
(727,1629,o),
(554,1629,cs),
(423,1629,o),
(339,1537,o),
(316,1404,cs)
);
},
{
ref = "qu-khmer";
}
);
width = 1148;
},
{
layerId = "11F4534A-B963-4AB5-820F-DAF9A20CD933";
shapes = (
{
closed = 1;
nodes = (
(296,1327,l),
(456,1327,l),
(465,1384,ls),
(478,1457,o),
(532,1500,o),
(601,1500,cs),
(721,1500,o),
(808,1373,o),
(973,1373,cs),
(1105,1373,o),
(1207,1453,o),
(1230,1591,cs),
(1252,1722,l),
(1092,1722,l),
(1072,1601,ls),
(1063,1544,o),
(1023,1519,o),
(978,1519,cs),
(877,1519,o),
(799,1645,o),
(607,1645,cs),
(454,1645,o),
(335,1565,o),
(307,1393,cs)
);
},
{
ref = "qu-khmer";
}
);
width = 1261;
},
{
layerId = "D0EC06BF-13F9-4C88-A6F5-B8203AF6C77E";
shapes = (
{
closed = 1;
nodes = (
(260,1303,l),
(624,1303,l),
(628,1327,ls),
(638,1388,o),
(664,1430,o),
(736,1430,cs),
(820,1430,o),
(952,1374,o),
(1083,1374,cs),
(1228,1374,o),
(1332,1444,o),
(1359,1607,cs),
(1390,1795,l),
(1031,1795,l),
(1017,1712,ls),
(1013,1686,o),
(1017,1671,o),
(973,1671,cs),
(895,1671,o),
(786,1719,o),
(648,1719,cs),
(431,1719,o),
(309,1601,o),
(273,1384,cs)
);
},
{
ref = "qu-khmer";
}
);
width = 1321;
}
);
metricWidth = "qu-khmer";
script = khmer;
subCategory = Other;
unicode = 6058;
}
{
category = Letter;
glyphname = "ry-khmer";
layers = (
{
anchors = (
{
name = _indpTail;
pos = (918,73);
}
);
layerId = "200BE2C5-40F6-4CF4-AF4F-A33C0CC0964F";
shapes = (
{
closed = 1;
nodes = (
(685,-543,o),
(836,-423,o),
(872,-204,cs),
(888,-105,l),
(844,-105,l),
(828,-204,ls),
(797,-397,o),
(662,-499,o),
(462,-499,cs),
(330,-499,o),
(209,-455,o),
(92,-359,c),
(84,-414,l),
(177,-484,o),
(308,-543,o),
(463,-543,cs)
);
},
{
ref = "ba-khmer";
}
);
width = 1219;
},
{
anchors = (
{
name = _indpTail;
pos = (1012,73);
}
);
layerId = "11F4534A-B963-4AB5-820F-DAF9A20CD933";
shapes = (
{
closed = 1;
nodes = (
(759,-566,o),
(924,-463,o),
(963,-224,cs),
(983,-105,l),
(815,-105,l),
(796,-215,ls),
(772,-361,o),
(663,-419,o),
(500,-419,cs),
(358,-419,o),
(235,-375,o),
(101,-281,c),
(73,-448,l),
(183,-514,o),
(315,-566,o),
(499,-566,cs)
);
},
{
ref = "ba-khmer";
}
);
width = 1295;
},
{
anchors = (
{
name = _indpTail;
pos = (1150,73);
}
);
layerId = "D0EC06BF-13F9-4C88-A6F5-B8203AF6C77E";
shapes = (
{
closed = 1;
nodes = (
(892,-566,o),
(1065,-438,o),
(1105,-196,cs),
(1122,-93,l),
(732,-93,l),
(720,-166,ls),
(710,-229,o),
(663,-271,o),
(509,-271,cs),
(370,-271,o),
(233,-243,o),
(84,-183,c),
(33,-493,l),
(161,-540,o),
(300,-566,o),
(503,-566,cs)
);
},
{
ref = "ba-khmer";
}
);
width = 1366;
}
);
production = uni17AB;
script = khmer;
subCategory = Other;
unicode = 6059;
}
{
category = Letter;
glyphname = "ryy-khmer";
layers = (
{
anchors = (
{
name = _indpTail;
pos = (918,73);
}
);
layerId = "200BE2C5-40F6-4CF4-AF4F-A33C0CC0964F";
shapes = (
{
closed = 1;
nodes = (
(630,-543,o),
(758,-475,o),
(822,-348,c),
(825,-348,l),
(843,-416,o),
(872,-469,o),
(954,-524,c),
(989,-489,l),
(907,-439,o),
(847,-355,o),
(864,-252,cs),
(888,-105,l),
(844,-105,l),
(828,-204,ls),
(797,-397,o),
(663,-499,o),
(461,-499,cs),
(327,-499,o),
(208,-455,o),
(92,-359,c),
(83,-414,l),
(177,-484,o),
(306,-543,o),
(462,-543,cs)
);
},
{
ref = "ba-khmer";
}
);
width = 1219;
},
{
anchors = (
{
name = _indpTail;
pos = (1012,73);
}
);
layerId = "11F4534A-B963-4AB5-820F-DAF9A20CD933";
shapes = (
{
closed = 1;
nodes = (
(649,-566,o),
(764,-512,o),
(834,-426,c),
(840,-426,l),
(847,-487,o),
(886,-532,o),
(954,-566,c),
(1077,-459,l),
(996,-415,o),
(941,-359,o),
(953,-282,cs),
(983,-105,l),
(815,-105,l),
(794,-230,ls),
(775,-348,o),
(649,-419,o),
(489,-419,cs),
(361,-419,o),
(236,-375,o),
(101,-281,c),
(73,-448,l),
(178,-514,o),
(290,-566,o),
(468,-566,cs)
);
},
{
ref = "ba-khmer";
}
);
width = 1295;
},
{
anchors = (
{
name = _indpTail;
pos = (1150,73);
}
);
layerId = "D0EC06BF-13F9-4C88-A6F5-B8203AF6C77E";
shapes = (
{
closed = 1;
nodes = (
(580,-566,o),
(708,-529,o),
(808,-443,c),
(817,-443,l),
(830,-478,o),
(848,-511,o),
(883,-545,c),
(1180,-428,l),
(1129,-366,o),
(1094,-265,o),
(1100,-224,cs),
(1122,-93,l),
(732,-93,l),
(719,-166,ls),
(709,-229,o),
(663,-271,o),
(509,-271,cs),
(370,-271,o),
(233,-243,o),
(84,-183,c),
(33,-493,l),
(147,-540,o),
(269,-566,o),
(413,-566,cs)
);
},
{
ref = "ba-khmer";
}
);
width = 1366;
}
);
production = uni17AC;
script = khmer;
subCategory = Other;
unicode = 6060;
}
{
category = Letter;
glyphname = "ly-khmer";
layers = (
{
anchors = (
{
name = _indpTail;
pos = (913,73);
}
);
layerId = "200BE2C5-40F6-4CF4-AF4F-A33C0CC0964F";
shapes = (
{
closed = 1;
nodes = (
(681,-543,o),
(832,-423,o),
(868,-204,cs),
(884,-105,l),
(840,-105,l),
(824,-204,ls),
(793,-397,o),
(657,-499,o),
(457,-499,cs),
(326,-499,o),
(204,-455,o),
(88,-359,c),
(79,-414,l),
(173,-484,o),
(303,-543,o),
(458,-543,cs)
);
},
{
ref = "po-khmer";
}
);
width = 1215;
},
{
anchors = (
{
name = _indpTail;
pos = (1009,73);
}
);
layerId = "11F4534A-B963-4AB5-820F-DAF9A20CD933";
shapes = (
{
closed = 1;
nodes = (
(756,-566,o),
(921,-463,o),
(960,-224,cs),
(980,-105,l),
(812,-105,l),
(793,-215,ls),
(769,-361,o),
(660,-419,o),
(497,-419,cs),
(355,-419,o),
(232,-375,o),
(98,-281,c),
(71,-448,l),
(180,-514,o),
(312,-566,o),
(496,-566,cs)
);
},
{
ref = "po-khmer";
}
);
width = 1292;
},
{
anchors = (
{
name = _indpTail;
pos = (1135,73);
}
);
layerId = "D0EC06BF-13F9-4C88-A6F5-B8203AF6C77E";
shapes = (
{
closed = 1;
nodes = (
(876,-566,o),
(1049,-438,o),
(1089,-196,cs),
(1107,-93,l),
(717,-93,l),
(705,-166,ls),
(695,-229,o),
(648,-271,o),
(494,-271,cs),
(355,-271,o),
(218,-243,o),
(69,-183,c),
(18,-493,l),
(146,-540,o),
(285,-566,o),
(488,-566,cs)
);
},
{
ref = "po-khmer";
}
);
width = 1351;
}
);
production = uni17AD;
script = khmer;
subCategory = Other;
unicode = 6061;
}
{
category = Letter;
glyphname = "lyy-khmer";
layers = (
{
anchors = (
{
name = _indpTail;
pos = (913,73);
}
);
layerId = "200BE2C5-40F6-4CF4-AF4F-A33C0CC0964F";
shapes = (
{
closed = 1;
nodes = (
(625,-543,o),
(753,-475,o),
(817,-348,c),
(820,-348,l),
(839,-416,o),
(868,-469,o),
(950,-524,c),
(985,-489,l),
(903,-439,o),
(843,-355,o),
(860,-252,cs),
(884,-105,l),
(840,-105,l),
(824,-204,ls),
(793,-397,o),
(659,-499,o),
(457,-499,cs),
(323,-499,o),
(204,-455,o),
(87,-359,c),
(79,-414,l),
(172,-484,o),
(302,-543,o),
(457,-543,cs)
);
},
{
ref = "po-khmer";
}
);
width = 1215;
},
{
anchors = (
{
name = _indpTail;
pos = (1009,73);
}
);
layerId = "11F4534A-B963-4AB5-820F-DAF9A20CD933";
shapes = (
{
closed = 1;
nodes = (
(646,-566,o),
(761,-512,o),
(831,-426,c),
(837,-426,l),
(844,-487,o),
(883,-532,o),
(951,-566,c),
(1074,-459,l),
(993,-415,o),
(938,-359,o),
(951,-282,cs),
(980,-105,l),
(812,-105,l),
(791,-230,ls),
(772,-348,o),
(647,-419,o),
(487,-419,cs),
(359,-419,o),
(233,-375,o),
(98,-281,c),
(71,-448,l),
(175,-514,o),
(287,-566,o),
(465,-566,cs)
);
},
{
ref = "po-khmer";
}
);
width = 1292;
},
{
anchors = (
{
name = _indpTail;
pos = (1135,73);
}
);
layerId = "D0EC06BF-13F9-4C88-A6F5-B8203AF6C77E";
shapes = (
{
closed = 1;
nodes = (
(565,-566,o),
(693,-529,o),
(793,-443,c),
(801,-443,l),
(815,-478,o),
(833,-511,o),
(868,-545,c),
(1164,-428,l),
(1114,-366,o),
(1079,-265,o),
(1085,-224,cs),
(1107,-93,l),
(716,-93,l),
(704,-166,ls),
(694,-229,o),
(648,-271,o),
(494,-271,cs),
(355,-271,o),
(218,-243,o),
(69,-183,c),
(18,-493,l),
(132,-540,o),
(254,-566,o),
(398,-566,cs)
);
},
{
ref = "po-khmer";
}
);
width = 1351;
}
);
production = uni17AE;
script = khmer;
subCategory = Other;
unicode = 6062;
}
{
category = Letter;
glyphname = "qe-khmer";
layers = (
{
layerId = "200BE2C5-40F6-4CF4-AF4F-A33C0CC0964F";
shapes = (
{
closed = 1;
nodes = (
(177,0,l),
(578,374,l),
(581,374,l),
(859,0,l),
(901,0,l),
(1046,874,ls),
(1084,1102,o),
(946,1222,o),
(737,1222,cs),
(554,1222,o),
(423,1131,o),
(349,1017,c),
(343,1017,l),
(403,1373,l),
(356,1373,l),
(278,899,l),
(321,889,l),
(367,1038,o),
(530,1177,o),
(737,1177,cs),
(908,1177,o),
(1033,1082,o),
(999,874,cs),
(866,71,l),
(863,71,l),
(600,424,l),
(571,424,l),
(190,71,l),
(187,71,l),
(276,609,ls),
(281,636,o),
(268,652,o),
(239,652,cs),
(123,652,l),
(116,608,l),
(229,608,l),
(129,0,l)
);
}
);
width = 1215;
},
{
layerId = "11F4534A-B963-4AB5-820F-DAF9A20CD933";
shapes = (
{
closed = 1;
nodes = (
(283,0,l),
(605,284,l),
(611,284,l),
(839,0,l),
(997,0,l),
(1138,852,ls),
(1175,1071,o),
(1028,1220,o),
(785,1220,cs),
(616,1220,o),
(519,1148,o),
(460,1075,c),
(451,1075,l),
(500,1373,l),
(337,1373,l),
(256,881,l),
(414,845,l),
(449,978,o),
(575,1069,o),
(731,1069,cs),
(892,1069,o),
(991,972,o),
(967,829,cs),
(863,204,l),
(855,204,l),
(650,459,l),
(608,459,l),
(319,204,l),
(311,204,l),
(363,516,ls),
(377,599,o),
(340,640,o),
(251,640,cs),
(116,640,l),
(93,503,l),
(193,503,l),
(110,0,l)
);
}
);
width = 1292;
},
{
layerId = "D0EC06BF-13F9-4C88-A6F5-B8203AF6C77E";
shapes = (
{
closed = 1;
nodes = (
(445,0,l),
(613,179,l),
(622,179,l),
(730,0,l),
(1114,0,l),
(1258,869,ls),
(1298,1113,o),
(1152,1247,o),
(910,1247,cs),
(754,1247,o),
(665,1188,o),
(596,1097,c),
(584,1097,l),
(623,1335,l),
(248,1335,l),
(183,940,l),
(553,843,l),
(581,920,o),
(644,968,o),
(727,968,cs),
(825,968,o),
(871,908,o),
(853,804,cs),
(780,366,l),
(772,366,l),
(692,489,l),
(627,489,l),
(507,366,l),
(498,366,l),
(526,532,ls),
(541,623,o),
(485,689,o),
(394,689,cs),
(79,689,l),
(45,488,l),
(124,488,l),
(44,0,l)
);
}
);
width = 1343;
}
);
script = khmer;
subCategory = Other;
unicode = 6063;
}
{
category = Letter;
glyphname = "qai-khmer";
layers = (
{
layerId = "200BE2C5-40F6-4CF4-AF4F-A33C0CC0964F";
shapes = (
{
closed = 1;
nodes = (
(361,-570,o),
(428,-479,o),
(475,-380,c),
(456,-378,l),
(568,-516,l),
(633,-516,ls),
(738,-516,o),
(810,-457,o),
(827,-359,cs),
(843,-265,l),
(798,-265,l),
(782,-359,ls),
(769,-429,o),
(717,-473,o),
(640,-473,cs),
(591,-473,l),
(486,-345,l),
(447,-345,l),
(403,-452,o),
(335,-525,o),
(243,-525,cs),
(160,-525,o),
(115,-471,o),
(129,-385,cs),
(145,-289,o),
(223,-219,o),
(337,-209,cs),
(721,-174,ls),
(827,-164,o),
(884,-104,o),
(902,6,cs),
(1075,1051,ls),
(1094,1165,o),
(1033,1241,o),
(930,1241,cs),
(839,1241,o),
(750,1180,o),
(697,1089,c),
(693,1089,l),
(672,1180,o),
(603,1241,o),
(511,1241,cs),
(407,1241,o),
(321,1165,o),
(303,1051,cs),
(155,158,ls),
(137,53,o),
(184,-7,o),
(292,-7,cs),
(319,-7,o),
(340,-4,o),
(370,3,c),
(377,48,l),
(343,39,o),
(327,36,o),
(305,36,cs),
(223,36,o),
(188,79,o),
(201,158,cs),
(349,1051,ls),
(364,1140,o),
(428,1197,o),
(506,1197,cs),
(587,1197,o),
(645,1136,o),
(670,1027,c),
(700,1027,l),
(761,1136,o),
(840,1197,o),
(919,1197,cs),
(996,1197,o),
(1043,1140,o),
(1028,1051,cs),
(855,7,ls),
(840,-84,o),
(801,-123,o),
(724,-129,cs),
(338,-164,ls),
(199,-177,o),
(104,-260,o),
(84,-377,cs),
(65,-495,o),
(134,-570,o),
(242,-570,cs)
);
}
);
width = 1215;
},
{
layerId = "11F4534A-B963-4AB5-820F-DAF9A20CD933";
shapes = (
{
closed = 1;
nodes = (
(411,-573,o),
(515,-485,o),
(540,-344,c),
(481,-366,l),
(578,-519,l),
(662,-519,ls),
(799,-519,o),
(888,-454,o),
(907,-340,cs),
(916,-279,l),
(758,-279,l),
(751,-319,ls),
(743,-367,o),
(712,-399,o),
(667,-399,cs),
(622,-399,l),
(556,-304,l),
(467,-304,l),
(436,-398,o),
(380,-450,o),
(307,-450,cs),
(235,-450,o),
(213,-401,o),
(223,-345,cs),
(231,-292,o),
(264,-249,o),
(318,-242,cs),
(756,-183,ls),
(930,-159,o),
(983,-88,o),
(1001,21,cs),
(1161,989,ls),
(1187,1147,o),
(1108,1241,o),
(961,1241,cs),
(862,1241,o),
(787,1199,o),
(744,1127,c),
(737,1127,l),
(714,1199,o),
(653,1241,o),
(556,1241,cs),
(409,1241,o),
(300,1147,o),
(273,989,cs),
(143,200,ls),
(122,75,o),
(194,-15,o),
(343,-15,cs),
(386,-15,o),
(424,-7,o),
(444,1,c),
(467,137,l),
(445,130,o),
(425,127,o),
(400,127,cs),
(335,127,o),
(301,147,o),
(311,204,cs),
(438,971,ls),
(449,1041,o),
(489,1091,o),
(558,1091,cs),
(628,1091,o),
(675,1039,o),
(681,951,c),
(741,951,l),
(777,1039,o),
(841,1091,o),
(910,1091,cs),
(975,1091,o),
(1003,1047,o),
(991,971,cs),
(836,36,ls),
(826,-22,o),
(801,-56,o),
(735,-65,cs),
(301,-124,ls),
(155,-143,o),
(81,-234,o),
(64,-341,cs),
(41,-479,o),
(122,-573,o),
(269,-573,cs)
);
}
);
width = 1292;
},
{
layerId = "D0EC06BF-13F9-4C88-A6F5-B8203AF6C77E";
shapes = (
{
closed = 1;
nodes = (
(431,-566,o),
(551,-484,o),
(590,-380,c),
(542,-377,l),
(632,-537,l),
(745,-537,ls),
(933,-537,o),
(1015,-452,o),
(1040,-300,cs),
(1047,-256,l),
(713,-256,l),
(707,-292,ls),
(703,-314,o),
(692,-326,o),
(673,-326,cs),
(653,-326,l),
(603,-269,l),
(522,-269,l),
(503,-318,o),
(478,-346,o),
(429,-346,cs),
(387,-346,o),
(365,-324,o),
(370,-293,cs),
(375,-266,o),
(397,-243,o),
(432,-239,cs),
(882,-191,ls),
(1076,-171,o),
(1108,-84,o),
(1121,-4,cs),
(1282,967,ls),
(1311,1143,o),
(1221,1241,o),
(1050,1241,cs),
(932,1241,o),
(840,1194,o),
(773,1114,c),
(763,1114,l),
(722,1194,o),
(646,1241,o),
(527,1241,cs),
(356,1241,o),
(233,1143,o),
(204,967,cs),
(87,260,ls),
(56,72,o),
(183,-7,o),
(368,-7,cs),
(424,-7,o),
(507,0,o),
(579,27,c),
(621,282,l),
(592,276,o),
(569,273,o),
(554,273,cs),
(507,273,o),
(487,296,o),
(494,334,cs),
(582,865,ls),
(588,903,o),
(615,930,o),
(647,930,cs),
(676,930,o),
(700,908,o),
(700,868,c),
(753,868,l),
(768,911,o),
(801,930,o),
(828,930,cs),
(860,930,o),
(878,903,o),
(871,865,cs),
(737,51,ls),
(725,-17,o),
(698,-40,o),
(649,-45,cs),
(279,-85,ls),
(110,-103,o),
(30,-191,o),
(11,-305,cs),
(-15,-458,o),
(76,-566,o),
(266,-566,cs)
);
}
);
width = 1351;
}
);
production = uni17B0;
script = khmer;
subCategory = Other;
unicode = 6064;
}
{
category = Letter;
glyphname = "qoo-khmer";
layers = (
{
layerId = "200BE2C5-40F6-4CF4-AF4F-A33C0CC0964F";
shapes = (
{
closed = 1;
nodes = (
(311,1373,l),
(358,1373,l),
(360,1387,ls),
(382,1524,o),
(501,1606,o),
(687,1606,cs),
(836,1606,o),
(951,1553,o),
(1096,1454,c),
(1122,1495,l),
(994,1585,o),
(858,1652,o),
(687,1652,cs),
(480,1652,o),
(340,1554,o),
(313,1387,cs)
);
},
{
ref = "qu-khmer";
}
);
width = 1148;
},
{
layerId = "11F4534A-B963-4AB5-820F-DAF9A20CD933";
shapes = (
{
closed = 1;
nodes = (
(297,1327,l),
(457,1327,l),
(464,1364,ls),
(487,1478,o),
(548,1546,o),
(701,1546,cs),
(823,1546,o),
(976,1503,o),
(1123,1413,c),
(1204,1548,l),
(1041,1649,o),
(881,1699,o),
(726,1699,cs),
(487,1699,o),
(340,1580,o),
(305,1377,cs)
);
},
{
alignment = -1;
ref = "qu-khmer";
}
);
width = 1261;
},
{
background = {
shapes = (
{
closed = 1;
nodes = (
(499,1304,l),
(499,1341,ls),
(499,1378,o),
(516,1396,o),
(550,1396,cs),
(1126,1396,l),
(1126,1690,l),
(459,1690,ls),
(250,1690,o),
(143,1603,o),
(143,1420,cs),
(143,1304,l)
);
},
{
ref = "qu-khmer";
}
);
};
layerId = "D0EC06BF-13F9-4C88-A6F5-B8203AF6C77E";
shapes = (
{
closed = 1;
nodes = (
(260,1303,l),
(624,1303,l),
(625,1316,ls),
(639,1398,o),
(681,1440,o),
(796,1440,cs),
(933,1440,o),
(1107,1380,o),
(1235,1311,c),
(1372,1604,l),
(1208,1676,o),
(1026,1729,o),
(813,1729,cs),
(455,1729,o),
(305,1577,o),
(266,1340,cs)
);
},
{
ref = "qu-khmer";
}
);
width = 1321;
}
);
metricWidth = "qu-khmer";
production = uni17B1;
script = khmer;
subCategory = Other;
unicode = 6065;
}
{
category = Letter;
glyphname = "qooVariant-khmer";
layers = (
{
layerId = "200BE2C5-40F6-4CF4-AF4F-A33C0CC0964F";
shapes = (
{
closed = 1;
nodes = (
(743,-15,o),
(931,89,o),
(963,284,cs),
(993,467,o),
(868,545,o),
(792,566,c),
(793,572,l),
(884,604,o),
(1012,668,o),
(1037,820,cs),
(1060,955,o),
(986,1069,o),
(800,1069,cs),
(734,1069,o),
(667,1055,o),
(613,1031,c),
(620,991,l),
(663,1008,o),
(731,1024,o),
(796,1024,cs),
(943,1024,o),
(1011,943,o),
(992,830,cs),
(967,681,o),
(812,591,o),
(690,591,cs),
(592,591,l),
(584,546,l),
(682,546,ls),
(810,546,o),
(945,460,o),
(917,291,cs),
(890,130,o),
(727,32,o),
(520,32,cs),
(305,32,o),
(198,138,o),
(226,308,cs),
(345,1023,ls),
(376,1211,o),
(516,1338,o),
(741,1338,cs),
(839,1338,o),
(951,1314,o),
(1033,1270,c),
(1042,1324,l),
(952,1358,o),
(857,1385,o),
(745,1385,cs),
(495,1385,o),
(336,1251,o),
(298,1023,cs),
(180,308,ls),
(146,104,o),
(279,-15,o),
(519,-15,cs)
);
}
);
width = 1204;
},
{
layerId = "11F4534A-B963-4AB5-820F-DAF9A20CD933";
shapes = (
{
closed = 1;
nodes = (
(827,-15,o),
(1014,90,o),
(1046,287,cs),
(1073,453,o),
(969,528,o),
(896,553,c),
(897,561,l),
(984,596,o),
(1097,643,o),
(1122,791,cs),
(1148,952,o),
(1044,1062,o),
(867,1062,cs),
(792,1062,o),
(721,1042,o),
(665,1013,c),
(694,883,l),
(728,903,o),
(774,915,o),
(823,915,cs),
(916,915,o),
(972,870,o),
(958,788,cs),
(943,695,o),
(850,629,o),
(735,629,cs),
(625,629,l),
(601,485,l),
(711,485,ls),
(831,485,o),
(903,409,o),
(887,310,cs),
(867,193,o),
(735,134,o),
(578,134,cs),
(377,134,o),
(297,231,o),
(321,375,cs),
(414,932,ls),
(447,1130,o),
(559,1235,o),
(776,1235,cs),
(870,1235,o),
(1007,1215,o),
(1090,1180,c),
(1116,1341,l),
(1021,1368,o),
(889,1385,o),
(779,1385,cs),
(453,1385,o),
(297,1237,o),
(249,951,cs),
(153,370,ls),
(114,134,o),
(244,-15,o),
(561,-15,cs)
);
}
);
width = 1210;
},
{
layerId = "D0EC06BF-13F9-4C88-A6F5-B8203AF6C77E";
shapes = (
{
closed = 1;
nodes = (
(953,-15,o),
(1148,90,o),
(1182,293,cs),
(1200,403,o),
(1165,505,o),
(1038,534,c),
(1039,542,l),
(1128,565,o),
(1222,620,o),
(1245,758,cs),
(1272,921,o),
(1179,1034,o),
(945,1034,cs),
(843,1034,o),
(742,1012,o),
(673,980,c),
(697,757,l),
(723,769,o),
(759,776,o),
(785,776,cs),
(851,776,o),
(869,739,o),
(863,700,cs),
(855,653,o),
(815,626,o),
(750,626,cs),
(663,626,l),
(631,438,l),
(687,438,ls),
(793,438,o),
(813,396,o),
(806,351,cs),
(796,291,o),
(740,259,o),
(645,259,cs),
(522,259,o),
(460,312,o),
(477,417,cs),
(558,905,ls),
(583,1052,o),
(698,1126,o),
(891,1126,cs),
(977,1126,o),
(1058,1111,o),
(1163,1092,c),
(1210,1378,l),
(1097,1397,o),
(978,1411,o),
(865,1411,cs),
(489,1411,o),
(227,1259,o),
(171,922,cs),
(81,383,ls),
(39,124,o),
(220,-15,o),
(612,-15,cs)
);
}
);
width = 1323;
}
);
production = uni17B2;
script = khmer;
subCategory = Other;
unicode = 6066;
}
{
category = Letter;
glyphname = "qau-khmer";
layers = (
{
layerId = "200BE2C5-40F6-4CF4-AF4F-A33C0CC0964F";
shapes = (
{
closed = 1;
nodes = (
(311,1373,l),
(356,1373,l),
(359,1387,ls),
(379,1518,o),
(481,1584,o),
(619,1584,cs),
(777,1584,o),
(879,1497,o),
(959,1389,c),
(1004,1389,l),
(1031,1556,ls),
(1043,1626,o),
(1078,1654,o),
(1140,1654,cs),
(1179,1654,l),
(1187,1699,l),
(1148,1699,ls),
(1055,1699,o),
(1003,1653,o),
(987,1558,cs),
(968,1447,l),
(965,1447,l),
(884,1554,o),
(772,1629,o),
(619,1629,cs),
(449,1629,o),
(337,1537,o),
(313,1387,cs)
);
},
{
ref = "qu-khmer";
}
);
width = 1148;
},
{
layerId = "11F4534A-B963-4AB5-820F-DAF9A20CD933";
shapes = (
{
closed = 1;
nodes = (
(296,1327,l),
(455,1327,l),
(460,1362,ls),
(479,1476,o),
(569,1536,o),
(681,1536,cs),
(799,1536,o),
(881,1470,o),
(943,1359,c),
(1139,1359,l),
(1162,1498,ls),
(1174,1570,o),
(1204,1591,o),
(1252,1591,cs),
(1286,1591,l),
(1308,1722,l),
(1256,1722,ls),
(1124,1722,o),
(1041,1655,o),
(1020,1521,cs),
(1013,1475,l),
(1006,1475,l),
(937,1617,o),
(838,1689,o),
(684,1689,cs),
(496,1689,o),
(335,1583,o),
(304,1379,cs)
);
},
{
ref = "qu-khmer";
}
);
width = 1261;
},
{
background = {
shapes = (
{
closed = 1;
nodes = (
(711,1644,o),
(609,1690,o),
(471,1690,cs),
(260,1690,o),
(157,1586,o),
(157,1398,cs),
(157,1275,l),
(499,1275,l),
(499,1308,ls),
(499,1361,o),
(529,1385,o),
(588,1385,cs),
(650,1385,o),
(695,1363,o),
(759,1308,c),
(1092,1308,l),
(1092,1481,ls),
(1092,1508,o),
(1103,1525,o),
(1129,1525,cs),
(1230,1525,l),
(1230,1794,l),
(971,1794,ls),
(852,1794,o),
(789,1727,o),
(789,1611,cs),
(789,1562,l),
(780,1562,l)
);
},
{
ref = "qu-khmer";
}
);
};
layerId = "D0EC06BF-13F9-4C88-A6F5-B8203AF6C77E";
shapes = (
{
closed = 1;
nodes = (
(260,1302,l),
(623,1302,l),
(628,1329,ls),
(639,1392,o),
(689,1431,o),
(758,1431,cs),
(833,1431,o),
(905,1390,o),
(932,1327,c),
(1234,1327,l),
(1258,1472,ls),
(1268,1529,o),
(1287,1547,o),
(1340,1547,cs),
(1401,1547,l),
(1443,1795,l),
(1252,1795,ls),
(1085,1795,o),
(1033,1713,o),
(1016,1607,cs),
(1007,1551,l),
(997,1551,l),
(952,1649,o),
(865,1721,o),
(687,1721,cs),
(450,1721,o),
(308,1593,o),
(272,1376,cs)
);
},
{
ref = "qu-khmer";
}
);
width = 1321;
}
);
metricWidth = "qu-khmer";
script = khmer;
subCategory = Other;
unicode = 6067;
}
{
category = Letter;
glyphname = "aaSign-khmer";
layers = (
{
anchors = (
{
name = auStroke;
pos = (476,1161);
}
);
layerId = "200BE2C5-40F6-4CF4-AF4F-A33C0CC0964F";
shapes = (
{
closed = 1;
nodes = (
(238,0,l),
(284,0,l),
(449,993,ls),
(476,1156,o),
(380,1248,o),
(231,1248,cs),
(159,1248,o),
(72,1227,o),
(-10,1172,c),
(-18,1123,l),
(-17,1123,l),
(69,1178,o),
(160,1201,o),
(230,1201,cs),
(359,1201,o),
(424,1124,o),
(402,993,cs)
);
}
);
width = 598;
},
{
anchors = (
{
name = auStroke;
pos = (520,1161);
}
);
background = {
anchors = (
{
name = auStroke;
pos = (412,1161);
}
);
shapes = (
{
closed = 1;
nodes = (
(244,0,l),
(412,0,l),
(412,902,ls),
(412,1116,o),
(281,1233,o),
(62,1233,cs),
(-198,1233,l),
(-198,1076,l),
(55,1076,ls),
(174,1076,o),
(244,1013,o),
(244,892,cs)
);
}
);
};
layerId = "11F4534A-B963-4AB5-820F-DAF9A20CD933";
shapes = (
{
closed = 1;
nodes = (
(161,0,l),
(328,0,l),
(487,964,ls),
(519,1153,o),
(407,1248,o),
(235,1248,cs),
(148,1248,o),
(72,1224,o),
(1,1185,c),
(-24,1035,l),
(-19,1035,l),
(46,1073,o),
(109,1095,o),
(172,1095,cs),
(276,1095,o),
(332,1036,o),
(315,929,cs)
);
}
);
width = 623;
},
{
anchors = (
{
name = auStroke;
pos = (639,1161);
}
);
background = {
anchors = (
{
name = auStroke;
pos = (531,1161);
}
);
shapes = (
{
closed = 1;
nodes = (
(137,0,l),
(531,0,l),
(531,801,ls),
(531,1131,o),
(356,1233,o),
(62,1233,cs),
(-151,1233,l),
(-151,894,l),
(0,894,ls),
(107,894,o),
(137,847,o),
(137,767,cs)
);
}
);
};
layerId = "D0EC06BF-13F9-4C88-A6F5-B8203AF6C77E";
shapes = (
{
closed = 1;
nodes = (
(53,0,l),
(447,0,l),
(592,875,ls),
(631,1109,o),
(515,1248,o),
(253,1248,cs),
(121,1248,o),
(20,1223,o),
(-38,1198,c),
(-90,881,l),
(-81,881,l),
(-44,899,o),
(7,915,o),
(66,915,cs),
(153,915,o),
(196,865,o),
(183,782,cs)
);
}
);
width = 676;
}
);
script = khmer;
subCategory = Other;
unicode = 6070;
}
{
category = Mark;
glyphname = "iMark-khmer";
layers = (
{
anchors = (
{
name = _topright;
pos = (875,1233);
}
);
layerId = "200BE2C5-40F6-4CF4-AF4F-A33C0CC0964F";
shapes = (
{
closed = 1;
nodes = (
(914,1466,l),
(918,1495,l),
(885,1504,o),
(847,1513,o),
(783,1513,cs),
(208,1513,l),
(201,1466,l)
);
}
);
width = 814;
},
{
anchors = (
{
name = _topright;
pos = (961,1233);
}
);
layerId = "11F4534A-B963-4AB5-820F-DAF9A20CD933";
shapes = (
{
closed = 1;
nodes = (
(1000,1466,l),
(1016,1564,l),
(964,1604,o),
(897,1629,o),
(761,1629,cs),
(227,1629,l),
(200,1466,l)
);
}
);
width = 900;
},
{
anchors = (
{
name = _topright;
pos = (1152,1233);
}
);
layerId = "D0EC06BF-13F9-4C88-A6F5-B8203AF6C77E";
shapes = (
{
closed = 1;
nodes = (
(1179,1396,l),
(1198,1510,l),
(1149,1649,o),
(1050,1721,o),
(842,1721,cs),
(242,1721,l),
(189,1396,l)
);
}
);
width = 1090;
}
);
metricLeft = "=50";
metricRight = "=|";
script = khmer;
subCategory = Nonspacing;
unicode = 6071;
}
{
category = Mark;
glyphname = "iiMark-khmer";
layers = (
{
anchors = (
{
name = _topright;
pos = (875,1233);
}
);
layerId = "200BE2C5-40F6-4CF4-AF4F-A33C0CC0964F";
shapes = (
{
closed = 1;
nodes = (
(914,1466,l),
(971,1815,l),
(926,1815,l),
(875,1503,l),
(873,1503,l),
(853,1509,o),
(829,1513,o),
(799,1513,cs),
(208,1513,l),
(201,1466,l)
);
}
);
width = 814;
},
{
anchors = (
{
name = _topright;
pos = (961,1233);
}
);
background = {
anchors = (
{
name = _topright;
pos = (761,1233);
}
);
shapes = (
{
closed = 1;
nodes = (
(762,1466,l),
(762,1876,l),
(599,1876,l),
(599,1589,l),
(595,1589,l),
(566,1608,o),
(523,1619,o),
(478,1619,cs),
(49,1619,l),
(49,1466,l)
);
}
);
};
layerId = "11F4534A-B963-4AB5-820F-DAF9A20CD933";
shapes = (
{
closed = 1;
nodes = (
(1000,1466,l),
(1069,1885,l),
(910,1885,l),
(861,1587,l),
(855,1587,l),
(812,1619,o),
(771,1629,o),
(707,1629,cs),
(227,1629,l),
(200,1466,l)
);
}
);
width = 900;
},
{
anchors = (
{
name = _topright;
pos = (1152,1236);
}
);
background = {
anchors = (
{
name = _topright;
pos = (1040,1233);
}
);
shapes = (
{
closed = 1;
nodes = (
(1040,1396,l),
(1040,1885,l),
(691,1885,l),
(691,1655,l),
(684,1655,l),
(632,1701,o),
(583,1721,o),
(500,1721,cs),
(50,1721,l),
(50,1396,l)
);
}
);
};
layerId = "D0EC06BF-13F9-4C88-A6F5-B8203AF6C77E";
shapes = (
{
closed = 1;
nodes = (
(1179,1396,l),
(1260,1885,l),
(904,1885,l),
(866,1655,l),
(858,1655,l),
(813,1701,o),
(767,1721,o),
(683,1721,cs),
(242,1721,l),
(189,1396,l)
);
}
);
width = 1090;
}
);
metricLeft = "=50";
metricRight = "=|";
script = khmer;
subCategory = Nonspacing;
unicode = 6072;
}
{
category = Mark;
glyphname = "yMark-khmer";
layers = (
{
anchors = (
{
name = _topright;
pos = (875,1233);
}
);
layerId = "200BE2C5-40F6-4CF4-AF4F-A33C0CC0964F";
shapes = (
{
closed = 1;
nodes = (
(767,1466,ls),
(877,1466,o),
(959,1536,o),
(975,1636,cs),
(992,1741,o),
(931,1815,o),
(832,1815,cs),
(737,1815,o),
(653,1741,o),
(638,1650,cs),
(624,1564,o),
(654,1504,o),
(724,1479,c),
(710,1496,l),
(691,1508,o),
(665,1513,o),
(623,1513,cs),
(208,1513,l),
(201,1466,l)
);
},
{
closed = 1;
nodes = (
(715,1512,o),
(669,1568,o),
(681,1643,cs),
(693,1716,o),
(755,1772,o),
(824,1772,cs),
(898,1772,o),
(945,1716,o),
(933,1643,cs),
(920,1564,o),
(863,1512,o),
(789,1512,cs)
);
}
);
width = 847;
},
{
anchors = (
{
name = _topright;
pos = (961,1233);
}
);
background = {
anchors = (
{
name = _topright;
pos = (849,1233);
}
);
shapes = (
{
closed = 1;
nodes = (
(669,1466,ls),
(811,1466,o),
(900,1551,o),
(900,1679,cs),
(900,1801,o),
(806,1892,o),
(683,1892,cs),
(559,1892,o),
(465,1801,o),
(465,1680,cs),
(465,1637,o),
(475,1601,o),
(502,1564,c),
(517,1571,l),
(480,1612,o),
(443,1629,o),
(359,1629,cs),
(49,1629,l),
(49,1466,l)
);
},
{
closed = 1;
nodes = (
(633,1590,o),
(596,1628,o),
(596,1679,cs),
(596,1730,o),
(633,1769,o),
(683,1769,cs),
(732,1769,o),
(769,1730,o),
(769,1679,cs),
(769,1628,o),
(732,1590,o),
(683,1590,cs)
);
}
);
};
layerId = "11F4534A-B963-4AB5-820F-DAF9A20CD933";
shapes = (
{
closed = 1;
nodes = (
(834,1466,ls),
(975,1466,o),
(1078,1549,o),
(1098,1675,cs),
(1118,1795,o),
(1033,1885,o),
(910,1885,cs),
(787,1885,o),
(686,1795,o),
(667,1676,cs),
(659,1635,o),
(662,1599,o),
(683,1564,c),
(699,1571,l),
(669,1612,o),
(635,1629,o),
(551,1629,cs),
(227,1629,l),
(200,1466,l)
);
},
{
closed = 1;
nodes = (
(819,1590,o),
(789,1627,o),
(797,1676,cs),
(806,1724,o),
(848,1761,o),
(897,1761,cs),
(945,1761,o),
(976,1724,o),
(967,1676,cs),
(959,1627,o),
(917,1590,o),
(868,1590,cs)
);
}
);
width = 963;
},
{
anchors = (
{
name = _topright;
pos = (1152,1233);
}
);
layerId = "D0EC06BF-13F9-4C88-A6F5-B8203AF6C77E";
shapes = (
{
closed = 1;
nodes = (
(948,1396,ls),
(1112,1396,o),
(1246,1504,o),
(1270,1647,cs),
(1294,1793,o),
(1200,1904,o),
(1035,1904,cs),
(874,1904,o),
(747,1794,o),
(724,1653,cs),
(718,1617,o),
(718,1594,o),
(731,1553,c),
(801,1583,l),
(752,1693,o),
(675,1716,o),
(588,1716,cs),
(242,1716,l),
(189,1396,l)
);
},
{
closed = 1;
nodes = (
(943,1578,o),
(919,1609,o),
(926,1650,cs),
(933,1691,o),
(967,1722,o),
(1005,1722,cs),
(1044,1722,o),
(1068,1691,o),
(1061,1650,cs),
(1054,1609,o),
(1020,1578,o),
(981,1578,cs)
);
}
);
width = 1140;
}
);
metricLeft = "=50";
metricRight = "=|";
script = khmer;
subCategory = Nonspacing;
unicode = 6073;
}
{
category = Mark;
glyphname = "yyMark-khmer";
layers = (
{
anchors = (
{
name = _topright;
pos = (875,1233);
}
);
layerId = "200BE2C5-40F6-4CF4-AF4F-A33C0CC0964F";
shapes = (
{
closed = 1;
nodes = (
(914,1466,l),
(971,1815,l),
(926,1815,l),
(874,1498,l),
(872,1498,l),
(853,1508,o),
(829,1513,o),
(799,1513,cs),
(208,1513,l),
(201,1466,l)
);
},
{
closed = 1;
nodes = (
(620,1503,l),
(672,1815,l),
(627,1815,l),
(575,1503,l)
);
}
);
width = 814;
},
{
anchors = (
{
name = _topright;
pos = (961,1233);
}
);
background = {
anchors = (
{
name = _topright;
pos = (761,1233);
}
);
shapes = (
{
closed = 1;
nodes = (
(762,1466,l),
(762,1862,l),
(599,1862,l),
(599,1589,l),
(595,1589,l),
(566,1608,o),
(523,1619,o),
(478,1619,cs),
(49,1619,l),
(49,1466,l)
);
},
{
closed = 1;
nodes = (
(443,1570,l),
(443,1862,l),
(281,1862,l),
(281,1570,l)
);
}
);
};
layerId = "11F4534A-B963-4AB5-820F-DAF9A20CD933";
shapes = (
{
closed = 1;
nodes = (
(1000,1466,l),
(1069,1885,l),
(913,1885,l),
(864,1587,l),
(858,1587,l),
(818,1619,o),
(785,1629,o),
(737,1629,cs),
(227,1629,l),
(200,1466,l)
);
},
{
closed = 1;
nodes = (
(692,1596,l),
(740,1885,l),
(585,1885,l),
(537,1596,l)
);
}
);
width = 900;
},
{
anchors = (
{
name = _topright;
pos = (1160,1233);
}
);
background = {
anchors = (
{
name = _topright;
pos = (1048,1233);
}
);
shapes = (
{
closed = 1;
nodes = (
(1048,1396,l),
(1048,1908,l),
(726,1908,l),
(726,1670,l),
(618,1684,l),
(618,1908,l),
(297,1908,l),
(297,1699,l),
(50,1699,l),
(50,1396,l)
);
}
);
};
layerId = "D0EC06BF-13F9-4C88-A6F5-B8203AF6C77E";
shapes = (
{
closed = 1;
nodes = (
(1179,1396,l),
(1260,1885,l),
(947,1885,l),
(912,1670,l),
(904,1670,l),
(853,1701,o),
(802,1715,o),
(713,1715,cs),
(241,1715,l),
(189,1396,l)
);
},
{
closed = 1;
nodes = (
(760,1631,l),
(802,1885,l),
(489,1885,l),
(447,1631,l)
);
}
);
width = 1090;
}
);
metricLeft = "=50";
metricRight = "=|";
script = khmer;
subCategory = Nonspacing;
unicode = 6074;
}
{
category = Mark;
glyphname = "uMark-khmer";
layers = (
{
anchors = (
{
name = _bottomright;
pos = (129,0);
}
);
background = {
anchors = (
{
name = _bottomright;
pos = (129,0);
}
);
shapes = (
{
closed = 1;
nodes = (
(129,-559,l),
(129,-105,l),
(-43,-105,l),
(-43,-147,l),
(84,-147,l),
(84,-559,l)
);
}
);
};
layerId = "200BE2C5-40F6-4CF4-AF4F-A33C0CC0964F";
shapes = (
{
closed = 1;
nodes = (
(-9,-559,l),
(37,-559,l),
(94,-212,ls),
(106,-141,o),
(78,-105,o),
(12,-105,cs),
(-60,-105,l),
(-67,-147,l),
(-1,-147,ls),
(39,-147,o),
(56,-169,o),
(49,-212,cs)
);
}
);
width = 272;
},
{
anchors = (
{
name = _bottomright;
pos = (220,0);
}
);
layerId = "11F4534A-B963-4AB5-820F-DAF9A20CD933";
shapes = (
{
closed = 1;
nodes = (
(-28,-559,l),
(128,-559,l),
(176,-263,ls),
(195,-148,o),
(165,-105,o),
(65,-105,cs),
(-60,-105,l),
(-80,-225,l),
(-11,-225,ls),
(16,-225,o),
(25,-238,o),
(20,-269,cs)
);
}
);
width = 363;
},
{
anchors = (
{
name = _bottomright;
pos = (432,0);
}
);
background = {
anchors = (
{
name = _bottomright;
pos = (524,0);
}
);
shapes = (
{
closed = 1;
nodes = (
(153,-559,l),
(524,-559,l),
(524,-93,l),
(49,-93,l),
(49,-261,l),
(153,-261,l)
);
}
);
};
layerId = "D0EC06BF-13F9-4C88-A6F5-B8203AF6C77E";
shapes = (
{
closed = 1;
nodes = (
(-33,-559,l),
(340,-559,l),
(389,-257,ls),
(410,-130,o),
(366,-93,o),
(238,-93,cs),
(-58,-93,l),
(-86,-262,l),
(-12,-262,ls),
(12,-262,o),
(14,-271,o),
(12,-290,cs)
);
}
);
width = 575;
}
);
metricLeft = "=50";
metricRight = "=|";
script = khmer;
subCategory = Nonspacing;
unicode = 6075;
}
{
category = Mark;
glyphname = "uaMark-khmer";
layers = (
{
anchors = (
{
name = _bottomright;
pos = (509,0);
}
);
layerId = "200BE2C5-40F6-4CF4-AF4F-A33C0CC0964F";
shapes = (
{
closed = 1;
nodes = (
(1,-559,l),
(30,-379,l),
(33,-379,l),
(371,-559,l),
(417,-559,l),
(491,-105,l),
(446,-105,l),
(379,-511,l),
(377,-511,l),
(38,-331,l),
(75,-105,l),
(-60,-105,l),
(-66,-147,l),
(24,-147,l),
(-45,-559,l)
);
}
);
width = 652;
},
{
anchors = (
{
name = _bottomright;
pos = (601,0);
}
);
layerId = "11F4534A-B963-4AB5-820F-DAF9A20CD933";
shapes = (
{
closed = 1;
nodes = (
(84,-559,l),
(105,-434,l),
(109,-434,l),
(355,-559,l),
(508,-559,l),
(582,-105,l),
(430,-105,l),
(376,-428,l),
(372,-428,l),
(126,-302,l),
(159,-105,l),
(-60,-105,l),
(-79,-218,l),
(-12,-218,l),
(-68,-559,l)
);
}
);
width = 743;
},
{
anchors = (
{
name = _bottomright;
pos = (774,0);
}
);
background = {
anchors = (
{
name = _bottomright;
pos = (840,0);
}
);
shapes = (
{
closed = 1;
nodes = (
(394,-535,l),
(479,-428,l),
(562,-535,l),
(840,-535,l),
(840,-93,l),
(539,-93,l),
(539,-334,l),
(533,-334,l),
(487,-281,l),
(471,-281,l),
(424,-334,l),
(418,-334,l),
(418,-93,l),
(71,-93,l),
(71,-259,l),
(159,-259,l),
(159,-535,l)
);
}
);
};
layerId = "D0EC06BF-13F9-4C88-A6F5-B8203AF6C77E";
shapes = (
{
closed = 1;
nodes = (
(185,-559,l),
(202,-451,l),
(207,-451,l),
(377,-559,l),
(682,-559,l),
(759,-93,l),
(439,-93,l),
(393,-368,l),
(388,-368,l),
(236,-269,l),
(266,-93,l),
(-57,-93,l),
(-85,-259,l),
(-18,-259,l),
(-68,-559,l)
);
}
);
width = 917;
}
);
metricLeft = "=50";
metricRight = "=|";
script = khmer;
subCategory = Nonspacing;
unicode = 6077;
}
{
category = Letter;
glyphname = "yaSign-khmer";
layers = (
{
layerId = "200BE2C5-40F6-4CF4-AF4F-A33C0CC0964F";
shapes = (
{
closed = 1;
nodes = (
(17,-570,o),
(137,-477,o),
(164,-314,cs),
(418,1223,ls),
(450,1415,o),
(365,1513,o),
(166,1513,cs),
(-200,1513,l),
(-207,1466,l),
(159,1466,ls),
(327,1466,o),
(399,1384,o),
(372,1223,cs),
(117,-314,ls),
(95,-448,o),
(-13,-525,o),
(-167,-525,cs),
(-320,-525,o),
(-388,-448,o),
(-366,-314,cs),
(-331,-105,l),
(-377,-105,l),
(-412,-314,ls),
(-439,-477,o),
(-350,-570,o),
(-167,-570,cs)
);
},
{
closed = 1;
nodes = (
(139,1503,l),
(191,1815,l),
(145,1815,l),
(94,1503,l)
);
},
{
closed = 1;
nodes = (
(410,1485,o),
(445,1540,o),
(460,1635,cs),
(490,1815,l),
(445,1815,l),
(415,1635,ls),
(402,1555,o),
(372,1502,o),
(320,1465,c),
(348,1443,l)
);
}
);
width = 529;
},
{
background = {
shapes = (
{
closed = 1;
nodes = (
(215,-550,o),
(359,-426,o),
(359,-239,cs),
(359,1266,ls),
(359,1403,o),
(340,1463,o),
(279,1513,c),
(279,1516,l),
(316,1557,o),
(333,1599,o),
(333,1681,cs),
(333,1877,l),
(170,1877,l),
(170,1649,ls),
(170,1606,o),
(165,1580,o),
(151,1533,c),
(232,1536,l),
(191,1584,o),
(118,1619,o),
(15,1619,cs),
(-372,1619,l),
(-372,1466,l),
(-22,1466,ls),
(121,1466,o),
(192,1407,o),
(192,1288,cs),
(192,-230,ls),
(192,-341,o),
(114,-415,o),
(-4,-415,cs),
(-123,-415,o),
(-201,-341,o),
(-201,-230,cs),
(-201,-105,l),
(-368,-105,l),
(-368,-239,ls),
(-368,-426,o),
(-223,-550,o),
(-4,-550,cs)
);
},
{
closed = 1;
nodes = (
(20,1570,l),
(20,1877,l),
(-143,1877,l),
(-143,1570,l)
);
}
);
};
layerId = "11F4534A-B963-4AB5-820F-DAF9A20CD933";
shapes = (
{
closed = 1;
nodes = (
(71,-573,o),
(230,-444,o),
(263,-247,cs),
(520,1310,ls),
(551,1493,o),
(432,1619,o),
(228,1619,cs),
(-185,1619,l),
(-210,1466,l),
(187,1466,ls),
(316,1466,o),
(369,1407,o),
(349,1288,cs),
(97,-239,ls),
(79,-350,o),
(-20,-423,o),
(-149,-423,cs),
(-279,-423,o),
(-352,-350,o),
(-334,-239,cs),
(-312,-105,l),
(-479,-105,l),
(-503,-247,ls),
(-535,-444,o),
(-390,-573,o),
(-159,-573,cs)
);
},
{
closed = 1;
nodes = (
(204,1570,l),
(256,1885,l),
(99,1885,l),
(47,1570,l)
);
},
{
closed = 1;
nodes = (
(526,1565,o),
(548,1636,o),
(556,1688,cs),
(589,1885,l),
(432,1885,l),
(400,1693,ls),
(392,1644,o),
(373,1604,o),
(338,1561,c),
(419,1501,l)
);
}
);
width = 598;
},
{
background = {
shapes = (
{
closed = 0;
nodes = (
(-167,-573,ls)
);
}
);
};
layerId = "D0EC06BF-13F9-4C88-A6F5-B8203AF6C77E";
shapes = (
{
closed = 1;
nodes = (
(177,-573,o),
(380,-445,o),
(420,-198,cs),
(655,1222,ls),
(707,1532,o),
(527,1715,o),
(172,1715,cs),
(-296,1715,l),
(-348,1396,l),
(98,1396,ls),
(242,1396,o),
(279,1333,o),
(257,1200,cs),
(32,-161,ls),
(18,-244,o),
(-42,-291,o),
(-135,-291,cs),
(-225,-291,o),
(-271,-244,o),
(-256,-161,cs),
(-244,-93,l),
(-639,-93,l),
(-656,-198,ls),
(-697,-445,o),
(-508,-573,o),
(-167,-573,cs)
);
},
{
closed = 1;
nodes = (
(219,1561,l),
(273,1885,l),
(-40,1885,l),
(-94,1561,l)
);
},
{
closed = 1;
nodes = (
(647,1556,o),
(684,1602,o),
(699,1692,cs),
(731,1885,l),
(418,1885,l),
(388,1700,ls),
(379,1647,o),
(361,1604,o),
(335,1549,c),
(580,1508,l)
);
}
);
width = 682;
}
);
production = uni17BF;
script = khmer;
subCategory = Other;
unicode = 6079;
}
{
category = Letter;
glyphname = "ieSign-khmer";
layers = (
{
layerId = "200BE2C5-40F6-4CF4-AF4F-A33C0CC0964F";
shapes = (
{
closed = 1;
nodes = (
(5,-570,o),
(138,-466,o),
(164,-314,cs),
(463,1493,ls),
(489,1647,o),
(414,1769,o),
(237,1769,cs),
(92,1769,o),
(0,1687,o),
(-38,1629,c),
(-44,1629,l),
(-13,1815,l),
(-58,1815,l),
(-115,1473,l),
(-72,1466,l),
(-41,1624,o),
(83,1724,o),
(233,1724,cs),
(385,1724,o),
(438,1623,o),
(417,1493,cs),
(117,-314,ls),
(96,-439,o),
(-23,-525,o),
(-167,-525,cs),
(-311,-525,o),
(-387,-439,o),
(-366,-314,cs),
(-331,-105,l),
(-377,-105,l),
(-412,-314,ls),
(-438,-466,o),
(-338,-570,o),
(-167,-570,cs)
);
}
);
width = 529;
},
{
layerId = "11F4534A-B963-4AB5-820F-DAF9A20CD933";
shapes = (
{
closed = 1;
nodes = (
(71,-573,o),
(230,-444,o),
(263,-247,cs),
(548,1475,ls),
(581,1677,o),
(444,1801,o),
(252,1801,cs),
(132,1801,o),
(49,1753,o),
(-15,1661,c),
(-24,1661,l),
(13,1885,l),
(-150,1885,l),
(-215,1489,l),
(-56,1460,l),
(-24,1574,o),
(87,1655,o),
(209,1655,cs),
(332,1655,o),
(396,1572,o),
(376,1452,cs),
(97,-239,ls),
(79,-350,o),
(-20,-423,o),
(-149,-423,cs),
(-279,-423,o),
(-352,-350,o),
(-334,-239,cs),
(-312,-105,l),
(-479,-105,l),
(-503,-247,ls),
(-535,-444,o),
(-390,-573,o),
(-159,-573,cs)
);
}
);
width = 598;
},
{
layerId = "D0EC06BF-13F9-4C88-A6F5-B8203AF6C77E";
shapes = (
{
closed = 1;
nodes = (
(177,-573,o),
(380,-445,o),
(420,-198,cs),
(691,1437,ls),
(730,1676,o),
(603,1814,o),
(367,1814,cs),
(228,1814,o),
(139,1764,o),
(67,1677,c),
(55,1677,l),
(89,1885,l),
(-274,1885,l),
(-343,1469,l),
(16,1428,l),
(54,1503,o),
(105,1547,o),
(187,1547,cs),
(264,1547,o),
(307,1497,o),
(295,1423,cs),
(32,-161,ls),
(18,-244,o),
(-41,-291,o),
(-133,-291,cs),
(-225,-291,o),
(-271,-244,o),
(-256,-161,cs),
(-244,-93,l),
(-639,-93,l),
(-656,-198,ls),
(-697,-445,o),
(-508,-573,o),
(-165,-573,cs)
);
}
);
width = 682;
}
);
production = uni17C0;
script = khmer;
subCategory = Other;
unicode = 6080;
}
{
category = Letter;
glyphname = "eSign-khmer";
kernRight = KH_E;
layers = (
{
anchors = (
{
name = top_part;
pos = (431,1233);
}
);
layerId = "200BE2C5-40F6-4CF4-AF4F-A33C0CC0964F";
shapes = (
{
closed = 1;
nodes = (
(319,-7,o),
(343,-4,o),
(373,3,c),
(380,45,l),
(345,36,o),
(325,33,o),
(304,33,cs),
(221,33,o),
(191,79,o),
(204,158,cs),
(352,1049,ls),
(368,1145,o),
(422,1194,o),
(504,1194,cs),
(524,1194,o),
(557,1191,o),
(583,1187,c),
(590,1232,l),
(569,1236,o),
(540,1241,o),
(512,1241,cs),
(404,1241,o),
(327,1176,o),
(305,1049,cs),
(158,158,ls),
(140,53,o),
(183,-7,o),
(292,-7,cs)
);
}
);
width = 592;
},
{
anchors = (
{
name = top_part;
pos = (452,1233);
}
);
layerId = "11F4534A-B963-4AB5-820F-DAF9A20CD933";
shapes = (
{
closed = 1;
nodes = (
(362,-15,o),
(420,-7,o),
(440,1,c),
(464,144,l),
(441,137,o),
(420,135,o),
(397,135,cs),
(329,135,o),
(299,160,o),
(311,233,cs),
(433,972,ls),
(446,1047,o),
(487,1084,o),
(568,1084,cs),
(596,1084,o),
(615,1080,o),
(640,1075,c),
(665,1231,l),
(640,1236,o),
(606,1241,o),
(565,1241,cs),
(411,1241,o),
(297,1161,o),
(267,977,cs),
(142,222,ls),
(119,84,o),
(170,-15,o),
(339,-15,cs)
);
}
);
width = 647;
},
{
anchors = (
{
name = top_part;
pos = (491,1233);
}
);
background = {
anchors = (
{
name = top_part;
pos = (366,1233);
}
);
shapes = (
{
closed = 1;
nodes = (
(487,-7,o),
(567,1,o),
(631,26,c),
(631,276,l),
(602,270,o),
(580,268,o),
(565,268,cs),
(517,268,o),
(493,290,o),
(493,329,cs),
(493,852,ls),
(493,902,o),
(519,931,o),
(563,931,cs),
(590,931,o),
(612,927,o),
(636,920,c),
(636,1219,l),
(567,1235,o),
(509,1241,o),
(435,1241,cs),
(224,1241,o),
(108,1124,o),
(108,911,cs),
(108,257,ls),
(108,87,o),
(225,-7,o),
(432,-7,cs)
);
}
);
};
layerId = "D0EC06BF-13F9-4C88-A6F5-B8203AF6C77E";
shapes = (
{
closed = 1;
nodes = (
(403,-7,o),
(487,0,o),
(559,27,c),
(601,282,l),
(572,276,o),
(551,273,o),
(534,273,cs),
(487,273,o),
(467,295,o),
(473,334,cs),
(555,824,ls),
(563,873,o),
(593,902,o),
(636,902,cs),
(664,902,o),
(684,900,o),
(708,896,c),
(762,1228,l),
(695,1237,o),
(635,1241,o),
(560,1241,cs),
(347,1241,o),
(210,1123,o),
(175,908,cs),
(67,260,ls),
(39,87,o),
(143,-7,o),
(351,-7,cs)
);
}
);
width = 723;
}
);
production = uni17C1;
script = khmer;
subCategory = Other;
unicode = 6081;
}
{
category = Letter;
glyphname = "aeSign-khmer";
kernRight = KH_E;
layers = (
{
anchors = (
{
name = _top_part;
pos = (431,1233);
}
);
layerId = "200BE2C5-40F6-4CF4-AF4F-A33C0CC0964F";
shapes = (
{
closed = 1;
nodes = (
(598,1373,o),
(701,1466,o),
(724,1603,cs),
(759,1815,l),
(713,1815,l),
(679,1603,ls),
(660,1493,o),
(572,1418,o),
(469,1418,cs),
(395,1418,o),
(341,1457,o),
(313,1525,c),
(271,1495,l),
(307,1417,o),
(379,1373,o),
(468,1373,cs)
);
},
{
ref = "eSign-khmer";
}
);
width = 592;
},
{
anchors = (
{
name = _top_part;
pos = (452,1233);
}
);
layerId = "11F4534A-B963-4AB5-820F-DAF9A20CD933";
shapes = (
{
closed = 1;
nodes = (
(632,1373,o),
(745,1457,o),
(769,1603,cs),
(816,1885,l),
(655,1885,l),
(609,1610,ls),
(599,1551,o),
(556,1518,o),
(496,1518,cs),
(444,1518,o),
(407,1543,o),
(396,1601,c),
(253,1525,l),
(281,1434,o),
(350,1373,o),
(474,1373,cs)
);
},
{
ref = "eSign-khmer";
}
);
width = 647;
},
{
anchors = (
{
name = _top_part;
pos = (491,1233);
}
);
layerId = "D0EC06BF-13F9-4C88-A6F5-B8203AF6C77E";
shapes = (
{
closed = 1;
nodes = (
(683,1337,o),
(840,1440,o),
(870,1621,cs),
(917,1908,l),
(558,1908,l),
(522,1692,ls),
(513,1638,o),
(483,1608,o),
(438,1608,cs),
(405,1608,o),
(381,1628,o),
(364,1666,c),
(166,1472,l),
(220,1394,o),
(316,1337,o),
(465,1337,cs)
);
},
{
ref = "eSign-khmer";
}
);
width = 723;
}
);
metricWidth = "eSign-khmer";
production = uni17C2;
script = khmer;
subCategory = Other;
unicode = 6082;
}
{
category = Letter;
glyphname = "aiSign-khmer";
kernRight = KH_E;
layers = (
{
anchors = (
{
name = _top_part;
pos = (431,1233);
}
);
layerId = "200BE2C5-40F6-4CF4-AF4F-A33C0CC0964F";
shapes = (
{
closed = 1;
nodes = (
(564,1373,o),
(659,1445,o),
(677,1555,cs),
(695,1663,o),
(633,1743,o),
(508,1743,cs),
(403,1743,l),
(426,1885,l),
(381,1885,l),
(350,1697,l),
(500,1697,ls),
(599,1697,o),
(647,1644,o),
(633,1562,cs),
(620,1478,o),
(547,1418,o),
(456,1418,cs),
(419,1418,o),
(387,1428,o),
(359,1447,c),
(331,1407,l),
(366,1385,o),
(407,1373,o),
(452,1373,cs)
);
},
{
ref = "eSign-khmer";
}
);
width = 592;
},
{
anchors = (
{
name = _top_part;
pos = (452,1233);
}
);
layerId = "11F4534A-B963-4AB5-820F-DAF9A20CD933";
shapes = (
{
closed = 1;
nodes = (
(611,1373,o),
(727,1449,o),
(751,1590,cs),
(773,1728,o),
(697,1830,o),
(550,1830,cs),
(489,1830,l),
(510,1955,l),
(347,1955,l),
(303,1692,l),
(504,1692,ls),
(561,1692,o),
(594,1658,o),
(585,1605,cs),
(577,1554,o),
(536,1517,o),
(480,1517,cs),
(444,1517,o),
(404,1533,o),
(380,1551,c),
(307,1426,l),
(337,1398,o),
(396,1373,o),
(473,1373,cs)
);
},
{
ref = "eSign-khmer";
}
);
width = 647;
},
{
anchors = (
{
name = _top_part;
pos = (491,1233);
}
);
layerId = "D0EC06BF-13F9-4C88-A6F5-B8203AF6C77E";
shapes = (
{
closed = 1;
nodes = (
(707,1337,o),
(823,1428,o),
(852,1601,cs),
(878,1756,o),
(788,1840,o),
(619,1840,cs),
(610,1840,l),
(629,1955,l),
(290,1955,l),
(241,1658,l),
(428,1658,ls),
(473,1658,o),
(497,1639,o),
(492,1606,cs),
(486,1572,o),
(463,1548,o),
(424,1548,cs),
(408,1548,o),
(389,1551,o),
(364,1561,c),
(289,1377,l),
(365,1345,o),
(444,1337,o),
(509,1337,cs)
);
},
{
ref = "eSign-khmer";
}
);
width = 723;
}
);
metricWidth = "eSign-khmer";
production = uni17C3;
script = khmer;
subCategory = Other;
unicode = 6083;
}
{
category = Letter;
glyphname = "auSign-khmer";
layers = (
{
anchors = (
{
name = _auStroke;
pos = (476,1161);
}
);
layerId = "200BE2C5-40F6-4CF4-AF4F-A33C0CC0964F";
shapes = (
{
closed = 1;
nodes = (
(444,1215,o),
(514,1301,o),
(539,1452,cs),
(576,1676,l),
(531,1676,l),
(494,1452,ls),
(473,1321,o),
(427,1262,o),
(363,1190,c),
(387,1165,l)
);
},
{
ref = "aaSign-khmer";
}
);
width = 598;
},
{
anchors = (
{
name = _auStroke;
pos = (520,1161);
}
);
layerId = "11F4534A-B963-4AB5-820F-DAF9A20CD933";
shapes = (
{
closed = 1;
nodes = (
(510,1175,o),
(551,1255,o),
(569,1369,cs),
(620,1676,l),
(457,1676,l),
(405,1362,ls),
(391,1279,o),
(359,1211,o),
(307,1156,c),
(401,1113,l)
);
},
{
ref = "aaSign-khmer";
}
);
width = 623;
},
{
anchors = (
{
name = _auStroke;
pos = (639,1161);
}
);
layerId = "D0EC06BF-13F9-4C88-A6F5-B8203AF6C77E";
shapes = (
{
closed = 1;
nodes = (
(632,1209,o),
(679,1312,o),
(699,1433,cs),
(739,1676,l),
(367,1676,l),
(319,1383,ls),
(303,1289,o),
(280,1216,o),
(232,1132,c),
(516,1117,l)
);
},
{
ref = "aaSign-khmer";
}
);
width = 676;
}
);
script = khmer;
subCategory = Other;
unicode = 6085;
}
{
category = Mark;
glyphname = "nikahit-khmer";
layers = (
{
anchors = (
{
name = _top;
pos = (331,1233);
}
);
layerId = "200BE2C5-40F6-4CF4-AF4F-A33C0CC0964F";
shapes = (
{
closed = 1;
nodes = (
(469,1443,o),
(547,1513,o),
(563,1609,cs),
(581,1719,o),
(521,1789,o),
(420,1789,cs),
(320,1789,o),
(242,1719,o),
(226,1623,cs),
(208,1513,o),
(268,1443,o),
(369,1443,cs)
);
},
{
closed = 1;
nodes = (
(297,1485,o),
(255,1538,o),
(268,1616,cs),
(281,1694,o),
(341,1747,o),
(416,1747,cs),
(491,1747,o),
(533,1694,o),
(520,1616,cs),
(507,1538,o),
(447,1485,o),
(372,1485,cs)
);
}
);
width = 439;
},
{
anchors = (
{
name = _top;
pos = (401,1233);
}
);
layerId = "11F4534A-B963-4AB5-820F-DAF9A20CD933";
shapes = (
{
closed = 1;
nodes = (
(577,1443,o),
(691,1544,o),
(714,1679,cs),
(737,1818,o),
(655,1914,o),
(513,1914,cs),
(373,1914,o),
(258,1815,o),
(235,1679,cs),
(212,1540,o),
(295,1443,o),
(435,1443,cs)
);
},
{
closed = 1;
nodes = (
(397,1569,o),
(360,1613,o),
(370,1679,cs),
(381,1742,o),
(431,1788,o),
(493,1788,cs),
(554,1788,o),
(588,1740,o),
(578,1679,cs),
(568,1615,o),
(517,1569,o),
(456,1569,cs)
);
}
);
width = 579;
},
{
anchors = (
{
name = _top;
pos = (478,1233);
}
);
background = {
shapes = (
{
closed = 1;
nodes = (
(-454,1382,o),
(-349,1495,o),
(-349,1653,cs),
(-349,1812,o),
(-454,1924,o),
(-664,1924,cs),
(-874,1924,o),
(-979,1812,o),
(-979,1653,cs),
(-979,1495,o),
(-874,1382,o),
(-664,1382,cs)
);
},
{
closed = 1;
nodes = (
(-709,1573,o),
(-741,1605,o),
(-741,1653,cs),
(-741,1701,o),
(-709,1733,o),
(-664,1733,cs),
(-620,1733,o),
(-588,1701,o),
(-588,1653,cs),
(-588,1605,o),
(-620,1573,o),
(-664,1573,cs)
);
}
);
};
layerId = "D0EC06BF-13F9-4C88-A6F5-B8203AF6C77E";
shapes = (
{
closed = 1;
nodes = (
(698,1380,o),
(843,1492,o),
(870,1662,cs),
(899,1831,o),
(791,1943,o),
(598,1943,cs),
(406,1943,o),
(262,1831,o),
(233,1662,cs),
(206,1492,o),
(314,1380,o),
(505,1380,cs)
);
},
{
closed = 1;
nodes = (
(491,1575,o),
(465,1609,o),
(473,1662,cs),
(482,1714,o),
(519,1748,o),
(566,1748,cs),
(614,1748,o),
(639,1714,o),
(630,1662,cs),
(622,1609,o),
(585,1575,o),
(538,1575,cs)
);
}
);
width = 737;
}
);
metricLeft = "=50";
metricRight = "=|";
script = khmer;
subCategory = Nonspacing;
unicode = 6086;
}
{
category = Letter;
glyphname = "reahmuk-khmer";
layers = (
{
layerId = "200BE2C5-40F6-4CF4-AF4F-A33C0CC0964F";
shapes = (
{
closed = 1;
nodes = (
(459,873,o),
(550,952,o),
(567,1053,cs),
(583,1154,o),
(519,1233,o),
(420,1233,cs),
(321,1233,o),
(230,1154,o),
(213,1053,cs),
(196,952,o),
(261,873,o),
(360,873,cs)
);
},
{
closed = 1;
nodes = (
(292,915,o),
(244,976,o),
(257,1053,cs),
(270,1130,o),
(338,1191,o),
(412,1191,cs),
(487,1191,o),
(535,1130,o),
(523,1053,cs),
(510,976,o),
(441,915,o),
(367,915,cs)
);
},
{
closed = 1;
nodes = (
(314,0,o),
(405,79,o),
(422,180,cs),
(439,281,o),
(374,361,o),
(275,361,cs),
(176,361,o),
(85,281,o),
(68,180,cs),
(52,79,o),
(116,0,o),
(215,0,cs)
);
},
{
closed = 1;
nodes = (
(148,42,o),
(100,103,o),
(112,180,cs),
(125,257,o),
(194,319,o),
(268,319,cs),
(343,319,o),
(391,257,o),
(378,180,cs),
(365,103,o),
(297,42,o),
(223,42,cs)
);
}
);
width = 630;
},
{
layerId = "11F4534A-B963-4AB5-820F-DAF9A20CD933";
shapes = (
{
closed = 1;
nodes = (
(491,810,o),
(606,905,o),
(625,1025,cs),
(646,1145,o),
(562,1239,o),
(436,1239,cs),
(309,1239,o),
(195,1145,o),
(175,1025,cs),
(155,905,o),
(238,810,o),
(364,810,cs)
);
},
{
closed = 1;
nodes = (
(334,930,o),
(301,972,o),
(310,1025,cs),
(319,1078,o),
(365,1119,o),
(416,1119,cs),
(466,1119,o),
(499,1078,o),
(490,1025,cs),
(481,972,o),
(435,930,o),
(385,930,cs)
);
},
{
closed = 1;
nodes = (
(356,-6,o),
(471,89,o),
(491,209,cs),
(511,329,o),
(427,423,o),
(300,423,cs),
(174,423,o),
(60,329,o),
(40,209,cs),
(20,89,o),
(103,-6,o),
(230,-6,cs)
);
},
{
closed = 1;
nodes = (
(199,114,o),
(166,156,o),
(175,209,cs),
(184,262,o),
(230,303,o),
(281,303,cs),
(331,303,o),
(364,262,o),
(356,209,cs),
(346,156,o),
(300,114,o),
(249,114,cs)
);
}
);
width = 652;
},
{
layerId = "D0EC06BF-13F9-4C88-A6F5-B8203AF6C77E";
shapes = (
{
closed = 1;
nodes = (
(604,705,o),
(729,818,o),
(756,977,cs),
(782,1135,o),
(694,1248,o),
(493,1248,cs),
(292,1248,o),
(167,1135,o),
(140,977,cs),
(114,818,o),
(203,705,o),
(404,705,cs)
);
},
{
closed = 1;
nodes = (
(392,895,o),
(367,928,o),
(375,977,cs),
(383,1025,o),
(419,1058,o),
(462,1058,cs),
(505,1058,o),
(529,1025,o),
(521,977,cs),
(513,928,o),
(478,895,o),
(435,895,cs)
);
},
{
closed = 1;
nodes = (
(485,-15,o),
(610,98,o),
(636,257,cs),
(663,415,o),
(575,528,o),
(374,528,cs),
(173,528,o),
(48,415,o),
(21,257,cs),
(-5,98,o),
(84,-15,o),
(284,-15,cs)
);
},
{
closed = 1;
nodes = (
(272,175,o),
(247,208,o),
(255,257,cs),
(264,305,o),
(299,338,o),
(343,338,cs),
(386,338,o),
(411,305,o),
(402,257,cs),
(394,208,o),
(359,175,o),
(316,175,cs)
);
}
);
width = 772;
}
);
script = khmer;
subCategory = Other;
unicode = 6087;
}
{
category = Letter;
glyphname = "yuukaleapintu-khmer";
layers = (
{
layerId = "200BE2C5-40F6-4CF4-AF4F-A33C0CC0964F";
shapes = (
{
closed = 1;
nodes = (
(313,1012,o),
(351,1046,o),
(359,1088,cs),
(365,1130,o),
(339,1164,o),
(298,1164,cs),
(257,1164,o),
(220,1130,o),
(213,1088,cs),
(206,1046,o),
(232,1012,o),
(273,1012,cs)
);
},
{
closed = 1;
nodes = (
(158,70,o),
(196,103,o),
(202,145,cs),
(209,188,o),
(183,221,o),
(142,221,cs),
(101,221,o),
(64,188,o),
(57,145,cs),
(50,103,o),
(76,70,o),
(117,70,cs)
);
}
);
width = 431;
},
{
layerId = "11F4534A-B963-4AB5-820F-DAF9A20CD933";
shapes = (
{
closed = 1;
nodes = (
(364,945,o),
(428,1001,o),
(440,1071,cs),
(452,1141,o),
(406,1196,o),
(337,1196,cs),
(268,1196,o),
(204,1141,o),
(193,1071,cs),
(181,1000,o),
(226,945,o),
(295,945,cs)
);
},
{
closed = 1;
nodes = (
(214,37,o),
(278,92,o),
(289,163,cs),
(301,233,o),
(256,289,o),
(187,289,cs),
(118,289,o),
(54,233,o),
(42,163,cs),
(31,92,o),
(76,37,o),
(145,37,cs)
);
}
);
width = 486;
},
{
layerId = "D0EC06BF-13F9-4C88-A6F5-B8203AF6C77E";
shapes = (
{
closed = 1;
nodes = (
(455,851,o),
(553,935,o),
(570,1042,cs),
(588,1149,o),
(518,1233,o),
(411,1233,cs),
(304,1233,o),
(206,1149,o),
(188,1042,cs),
(170,935,o),
(241,851,o),
(348,851,cs)
);
},
{
closed = 1;
nodes = (
(313,0,o),
(412,84,o),
(430,191,cs),
(447,298,o),
(377,383,o),
(270,383,cs),
(163,383,o),
(65,298,o),
(47,191,cs),
(29,84,o),
(100,0,o),
(207,0,cs)
);
}
);
width = 612;
}
);
script = khmer;
subCategory = Other;
unicode = 6088;
}
{
category = Mark;
glyphname = "triisap-khmer";
layers = (
{
anchors = (
{
name = _top;
pos = (534,1233);
},
{
name = top;
pos = (579,1513);
},
{
name = topright;
pos = (951,1513);
}
);
background = {
anchors = (
{
name = _top;
pos = (422,1233);
},
{
name = top;
pos = (422,1466);
},
{
name = topright;
pos = (793,1466);
}
);
shapes = (
{
closed = 1;
nodes = (
(793,1466,l),
(793,1513,l),
(497,1513,ls),
(467,1513,o),
(441,1510,o),
(423,1487,c),
(420,1487,l),
(398,1508,o),
(377,1513,o),
(347,1513,cs),
(50,1513,l),
(50,1466,l)
);
}
);
};
layerId = "200BE2C5-40F6-4CF4-AF4F-A33C0CC0964F";
shapes = (
{
closed = 1;
nodes = (
(591,1443,l),
(574,1494,o),
(542,1513,o),
(483,1513,cs),
(208,1513,l),
(201,1466,l),
(468,1466,ls),
(519,1466,o),
(544,1455,o),
(550,1423,c)
);
},
{
closed = 1;
nodes = (
(564,1466,l),
(944,1466,l),
(951,1513,l),
(632,1513,ls),
(606,1513,o),
(582,1495,o),
(564,1469,c)
);
}
);
width = 844;
},
{
anchors = (
{
name = _top;
pos = (592,1233);
},
{
name = top;
pos = (656,1619);
},
{
name = topright;
pos = (1086,1619);
}
);
background = {
anchors = (
{
name = _top;
pos = (480,1233);
},
{
name = top;
pos = (480,1632);
},
{
name = topright;
pos = (910,1632);
}
);
shapes = (
{
closed = 1;
nodes = (
(910,1466,l),
(910,1619,l),
(648,1619,ls),
(565,1619,o),
(520,1594,o),
(485,1549,c),
(475,1549,l),
(439,1594,o),
(391,1619,o),
(312,1619,cs),
(50,1619,l),
(50,1466,l)
);
}
);
};
layerId = "11F4534A-B963-4AB5-820F-DAF9A20CD933";
shapes = (
{
closed = 1;
nodes = (
(671,1428,l),
(658,1571,o),
(615,1619,o),
(495,1619,cs),
(226,1619,l),
(200,1466,l),
(465,1466,ls),
(523,1466,o),
(546,1447,o),
(550,1396,c)
);
},
{
closed = 1;
nodes = (
(612,1466,l),
(1060,1466,l),
(1086,1619,l),
(809,1619,ls),
(703,1619,o),
(655,1570,o),
(619,1510,c)
);
}
);
width = 960;
},
{
anchors = (
{
name = _top;
pos = (679,1233);
},
{
name = top;
pos = (753,1683);
},
{
name = topright;
pos = (1270,1683);
}
);
background = {
anchors = (
{
name = _top;
pos = (567,1233);
},
{
name = top;
pos = (567,1639);
},
{
name = topright;
pos = (1084,1639);
}
);
shapes = (
{
closed = 1;
nodes = (
(1084,1396,l),
(1084,1683,l),
(757,1683,ls),
(667,1683,o),
(607,1651,o),
(572,1591,c),
(562,1591,l),
(526,1651,o),
(464,1683,o),
(370,1683,cs),
(50,1683,l),
(50,1396,l)
);
}
);
};
layerId = "D0EC06BF-13F9-4C88-A6F5-B8203AF6C77E";
shapes = (
{
closed = 1;
nodes = (
(775,1382,l),
(766,1607,o),
(710,1683,o),
(553,1683,cs),
(236,1683,l),
(193,1420,l),
(511,1420,ls),
(564,1420,o),
(584,1401,o),
(586,1350,c)
);
},
{
closed = 1;
nodes = (
(666,1420,l),
(1227,1420,l),
(1270,1683,l),
(945,1683,ls),
(800,1683,o),
(732,1601,o),
(679,1498,c)
);
}
);
width = 1134;
}
);
metricLeft = "=50";
metricRight = "=|";
script = khmer;
subCategory = Nonspacing;
unicode = 6090;
}
{
category = Mark;
glyphname = "bantoc-khmer";
layers = (
{
anchors = (
{
name = _top;
pos = (183,1233);
}
);
layerId = "200BE2C5-40F6-4CF4-AF4F-A33C0CC0964F";
shapes = (
{
closed = 1;
nodes = (
(244,1466,l),
(301,1815,l),
(258,1815,l),
(200,1466,l)
);
}
);
width = 144;
},
{
anchors = (
{
name = _top;
pos = (244,1233);
}
);
layerId = "11F4534A-B963-4AB5-820F-DAF9A20CD933";
shapes = (
{
closed = 1;
nodes = (
(364,1466,l),
(433,1885,l),
(270,1885,l),
(201,1466,l)
);
}
);
width = 264;
},
{
anchors = (
{
name = _top;
pos = (319,1233);
}
);
layerId = "D0EC06BF-13F9-4C88-A6F5-B8203AF6C77E";
shapes = (
{
closed = 1;
nodes = (
(502,1396,l),
(581,1876,l),
(269,1876,l),
(189,1396,l)
);
}
);
width = 413;
}
);
metricLeft = "=50";
metricRight = "=|";
script = khmer;
subCategory = Nonspacing;
unicode = 6091;
}
{
category = Mark;
glyphname = "robat-khmer";
layers = (
{
anchors = (
{
name = _topright;
pos = (815,1233);
}
);
layerId = "200BE2C5-40F6-4CF4-AF4F-A33C0CC0964F";
shapes = (
{
closed = 1;
nodes = (
(201,1466,l),
(854,1466,l),
(860,1508,l),
(380,1508,l),
(381,1511,l),
(514,1563,o),
(632,1673,o),
(663,1862,cs),
(667,1885,l),
(620,1885,l),
(617,1862,ls),
(583,1657,o),
(425,1535,o),
(207,1504,c)
);
}
);
width = 754;
},
{
anchors = (
{
name = _topright;
pos = (896,1233);
}
);
layerId = "11F4534A-B963-4AB5-820F-DAF9A20CD933";
shapes = (
{
closed = 1;
nodes = (
(200,1466,l),
(934,1466,l),
(957,1606,l),
(570,1606,l),
(570,1612,l),
(696,1673,o),
(772,1753,o),
(803,1940,cs),
(805,1955,l),
(641,1955,l),
(637,1935,ls),
(605,1734,o),
(501,1643,o),
(221,1590,c)
);
}
);
width = 834;
},
{
anchors = (
{
name = _topright;
pos = (1058,1233);
}
);
layerId = "D0EC06BF-13F9-4C88-A6F5-B8203AF6C77E";
shapes = (
{
closed = 1;
nodes = (
(189,1396,l),
(1085,1396,l),
(1122,1616,l),
(703,1616,l),
(704,1623,l),
(866,1682,o),
(930,1763,o),
(956,1925,cs),
(962,1955,l),
(601,1955,l),
(597,1932,ls),
(560,1708,o),
(452,1638,o),
(222,1595,c)
);
}
);
width = 997;
}
);
metricLeft = "=50";
metricRight = "=|";
script = khmer;
subCategory = Nonspacing;
unicode = 6092;
}
{
category = Mark;
glyphname = "toandakhiat-khmer";
layers = (
{
anchors = (
{
name = _topright;
pos = (705,1233);
}
);
background = {
anchors = (
{
name = _topright;
pos = (579,1233);
}
);
shapes = (
{
closed = 1;
nodes = (
(296,1457,o),
(340,1481,o),
(389,1543,c),
(353,1572,l),
(329,1538,o),
(297,1503,o),
(225,1503,cs),
(148,1503,o),
(95,1552,o),
(95,1624,cs),
(95,1697,o),
(150,1747,o),
(230,1747,cs),
(372,1747,ls),
(420,1747,o),
(448,1773,o),
(448,1822,cs),
(448,1908,l),
(403,1908,l),
(403,1822,ls),
(403,1801,o),
(391,1792,o),
(372,1792,cs),
(230,1792,ls),
(123,1792,o),
(50,1724,o),
(50,1624,cs),
(50,1525,o),
(121,1457,o),
(226,1457,cs)
);
}
);
};
layerId = "200BE2C5-40F6-4CF4-AF4F-A33C0CC0964F";
shapes = (
{
closed = 1;
nodes = (
(479,1466,l),
(486,1511,l),
(398,1511,ls),
(312,1511,o),
(261,1559,o),
(273,1634,cs),
(285,1703,o),
(346,1753,o),
(431,1753,cs),
(484,1753,o),
(541,1732,o),
(582,1687,c),
(619,1687,l),
(696,1885,l),
(652,1885,l),
(584,1712,l),
(601,1728,l),
(556,1775,o),
(502,1798,o),
(434,1798,cs),
(326,1798,o),
(244,1728,o),
(229,1640,cs),
(211,1529,o),
(283,1466,o),
(391,1466,cs)
);
}
);
width = 526;
},
{
anchors = (
{
name = _topright;
pos = (823,1233);
}
);
background = {
anchors = (
{
name = _topright;
pos = (711,1233);
}
);
shapes = (
{
closed = 1;
nodes = (
(375,1455,o),
(428,1492,o),
(473,1550,c),
(386,1636,l),
(364,1604,o),
(327,1585,o),
(290,1585,cs),
(250,1585,o),
(206,1609,o),
(206,1663,cs),
(206,1706,o),
(235,1735,o),
(282,1735,cs),
(410,1735,ls),
(495,1735,o),
(548,1773,o),
(548,1863,cs),
(548,1955,l),
(390,1955,l),
(390,1894,ls),
(390,1876,o),
(381,1868,o),
(363,1868,cs),
(268,1868,ls),
(126,1868,o),
(50,1782,o),
(50,1661,cs),
(50,1535,o),
(141,1455,o),
(282,1455,cs)
);
}
);
};
layerId = "11F4534A-B963-4AB5-820F-DAF9A20CD933";
shapes = (
{
closed = 1;
nodes = (
(532,1466,l),
(553,1591,l),
(474,1591,ls),
(414,1591,o),
(384,1625,o),
(391,1671,cs),
(399,1718,o),
(441,1748,o),
(500,1748,cs),
(541,1748,o),
(578,1733,o),
(604,1696,c),
(721,1696,l),
(810,1955,l),
(671,1955,l),
(615,1779,l),
(652,1780,l),
(640,1841,o),
(585,1876,o),
(494,1876,cs),
(351,1876,o),
(253,1788,o),
(235,1679,cs),
(215,1553,o),
(284,1466,o),
(442,1466,cs)
);
}
);
width = 629;
},
{
anchors = (
{
name = _topright;
pos = (1027,1233);
}
);
background = {
anchors = (
{
name = _topright;
pos = (826,1233);
}
);
shapes = (
{
closed = 1;
nodes = (
(473,1382,o),
(553,1400,o),
(622,1433,c),
(551,1610,l),
(525,1595,o),
(491,1586,o),
(462,1586,cs),
(424,1586,o),
(402,1605,o),
(402,1638,cs),
(402,1667,o),
(422,1684,o),
(466,1684,cs),
(593,1684,ls),
(763,1684,o),
(803,1746,o),
(803,1884,cs),
(803,1955,l),
(440,1955,l),
(440,1904,ls),
(440,1886,o),
(430,1876,o),
(409,1876,cs),
(313,1876,ls),
(145,1876,o),
(50,1786,o),
(50,1640,cs),
(50,1472,o),
(176,1382,o),
(374,1382,cs)
);
}
);
};
layerId = "D0EC06BF-13F9-4C88-A6F5-B8203AF6C77E";
shapes = (
{
closed = 1;
nodes = (
(641,1382,l),
(673,1577,l),
(616,1577,ls),
(568,1577,o),
(543,1599,o),
(549,1635,cs),
(555,1672,o),
(587,1695,o),
(638,1695,cs),
(673,1695,o),
(712,1683,o),
(729,1652,c),
(914,1652,l),
(1017,1955,l),
(725,1955,l),
(659,1751,l),
(771,1751,l),
(758,1836,o),
(657,1892,o),
(534,1892,cs),
(370,1892,o),
(255,1791,o),
(230,1647,cs),
(203,1486,o),
(305,1382,o),
(510,1382,cs)
);
}
);
width = 836;
}
);
metricLeft = "=50";
metricRight = "=|";
script = khmer;
subCategory = Nonspacing;
unicode = 6093;
}
{
category = Mark;
glyphname = "kakabat-khmer";
layers = (
{
anchors = (
{
name = _top;
pos = (367,1233);
}
);
layerId = "200BE2C5-40F6-4CF4-AF4F-A33C0CC0964F";
shapes = (
{
closed = 1;
nodes = (
(642,1655,l),
(649,1697,l),
(238,1697,l),
(232,1655,l)
);
},
{
closed = 1;
nodes = (
(427,1466,l),
(497,1885,l),
(453,1885,l),
(384,1466,l)
);
}
);
width = 511;
},
{
anchors = (
{
name = _top;
pos = (412,1233);
}
);
background = {
anchors = (
{
name = _top;
pos = (569,1233);
}
);
shapes = (
{
closed = 1;
nodes = (
(798,1617,l),
(798,1734,l),
(341,1734,l),
(341,1617,l)
);
},
{
closed = 1;
nodes = (
(633,1466,l),
(633,1885,l),
(505,1885,l),
(505,1466,l)
);
}
);
};
layerId = "11F4534A-B963-4AB5-820F-DAF9A20CD933";
shapes = (
{
closed = 1;
nodes = (
(732,1652,l),
(751,1769,l),
(251,1769,l),
(231,1652,l)
);
},
{
closed = 1;
nodes = (
(515,1466,l),
(596,1955,l),
(468,1955,l),
(387,1466,l)
);
}
);
width = 601;
},
{
anchors = (
{
name = _top;
pos = (465,1233);
}
);
layerId = "D0EC06BF-13F9-4C88-A6F5-B8203AF6C77E";
shapes = (
{
closed = 1;
nodes = (
(824,1573,l),
(859,1778,l),
(252,1778,l),
(218,1573,l)
);
},
{
closed = 1;
nodes = (
(607,1396,l),
(699,1955,l),
(469,1955,l),
(377,1396,l)
);
}
);
width = 707;
}
);
metricLeft = "=50";
metricRight = "=|";
script = khmer;
subCategory = Nonspacing;
unicode = 6094;
}
{
category = Mark;
glyphname = "ahsda-khmer";
layers = (
{
anchors = (
{
name = _top;
pos = (417,1233);
}
);
background = {
anchors = (
{
name = _top;
pos = (305,1233);
}
);
shapes = (
{
closed = 1;
nodes = (
(94,1466,l),
(305,1591,l),
(516,1466,l),
(561,1466,l),
(561,1668,l),
(516,1668,l),
(516,1516,l),
(510,1516,l),
(318,1629,l),
(292,1629,l),
(100,1516,l),
(94,1516,l),
(94,1679,ls),
(94,1748,o),
(132,1789,o),
(197,1789,cs),
(484,1789,ls),
(533,1789,o),
(561,1815,o),
(561,1864,cs),
(561,1908,l),
(515,1908,l),
(515,1864,ls),
(515,1844,o),
(504,1834,o),
(484,1834,cs),
(197,1834,ls),
(104,1834,o),
(49,1777,o),
(49,1679,cs),
(49,1466,l)
);
}
);
};
layerId = "200BE2C5-40F6-4CF4-AF4F-A33C0CC0964F";
shapes = (
{
closed = 1;
nodes = (
(200,1466,l),
(245,1466,l),
(278,1665,ls),
(289,1735,o),
(333,1775,o),
(398,1775,cs),
(489,1775,o),
(578,1760,o),
(669,1760,cs),
(727,1760,o),
(765,1791,o),
(774,1849,cs),
(780,1885,l),
(735,1885,l),
(729,1849,ls),
(724,1819,o),
(705,1805,o),
(676,1805,cs),
(585,1805,o),
(497,1820,o),
(406,1820,cs),
(312,1820,o),
(249,1763,o),
(233,1665,cs)
);
},
{
closed = 1;
nodes = (
(677,1462,o),
(716,1497,o),
(729,1570,cs),
(742,1652,l),
(697,1652,l),
(684,1571,ls),
(678,1527,o),
(651,1504,o),
(608,1504,cs),
(521,1504,o),
(478,1594,o),
(279,1594,cs),
(256,1594,l),
(249,1552,l),
(273,1552,ls),
(465,1552,o),
(500,1462,o),
(609,1462,cs)
);
}
);
width = 612;
},
{
anchors = (
{
name = _top;
pos = (468,1233);
}
);
background = {
anchors = (
{
name = _top;
pos = (356,1233);
}
);
shapes = (
{
closed = 1;
nodes = (
(205,1466,l),
(356,1559,l),
(507,1466,l),
(659,1466,l),
(659,1676,l),
(507,1676,l),
(507,1581,l),
(501,1581,l),
(369,1662,l),
(343,1662,l),
(211,1581,l),
(205,1581,l),
(205,1701,ls),
(205,1741,o),
(232,1770,o),
(275,1770,cs),
(520,1770,ls),
(616,1770,o),
(659,1813,o),
(659,1896,cs),
(659,1955,l),
(504,1955,l),
(504,1904,ls),
(504,1892,o),
(499,1887,o),
(487,1887,cs),
(275,1887,ls),
(133,1887,o),
(50,1815,o),
(50,1694,cs),
(50,1466,l)
);
}
);
};
layerId = "11F4534A-B963-4AB5-820F-DAF9A20CD933";
shapes = (
{
closed = 1;
nodes = (
(200,1466,l),
(356,1466,l),
(396,1707,ls),
(403,1751,o),
(433,1776,o),
(477,1776,cs),
(565,1776,o),
(650,1763,o),
(738,1763,cs),
(821,1763,o),
(866,1804,o),
(878,1879,cs),
(891,1955,l),
(735,1955,l),
(725,1898,ls),
(723,1886,o),
(717,1881,o),
(706,1881,cs),
(628,1881,o),
(552,1892,o),
(475,1892,cs),
(347,1892,o),
(260,1826,o),
(241,1713,cs)
);
},
{
closed = 1;
nodes = (
(763,1459,o),
(816,1503,o),
(831,1594,cs),
(843,1664,l),
(690,1664,l),
(682,1615,ls),
(677,1592,o),
(664,1581,o),
(645,1581,cs),
(595,1581,o),
(547,1648,o),
(412,1648,cs),
(380,1648,l),
(363,1540,l),
(395,1540,ls),
(515,1540,o),
(538,1459,o),
(670,1459,cs)
);
}
);
width = 710;
},
{
anchors = (
{
name = _top;
pos = (599,1233);
}
);
background = {
anchors = (
{
name = _top;
pos = (487,1233);
}
);
shapes = (
{
closed = 1;
nodes = (
(392,1396,l),
(392,1662,ls),
(392,1694,o),
(404,1708,o),
(425,1708,cs),
(783,1708,ls),
(865,1708,o),
(901,1747,o),
(901,1822,cs),
(901,1955,l),
(576,1955,l),
(576,1913,ls),
(576,1892,o),
(566,1885,o),
(550,1885,cs),
(255,1885,ls),
(132,1885,o),
(57,1819,o),
(57,1706,cs),
(57,1396,l)
);
},
{
closed = 1;
nodes = (
(842,1389,o),
(901,1436,o),
(901,1527,cs),
(901,1629,l),
(611,1629,l),
(611,1594,ls),
(611,1577,o),
(604,1569,o),
(594,1569,cs),
(569,1569,o),
(500,1609,o),
(395,1609,cs),
(386,1609,l),
(386,1465,l),
(395,1465,ls),
(532,1465,o),
(566,1389,o),
(729,1389,cs)
);
}
);
};
layerId = "D0EC06BF-13F9-4C88-A6F5-B8203AF6C77E";
shapes = (
{
closed = 1;
nodes = (
(189,1396,l),
(531,1396,l),
(574,1655,ls),
(581,1700,o),
(606,1722,o),
(646,1722,cs),
(751,1722,o),
(854,1708,o),
(959,1708,cs),
(1058,1708,o),
(1106,1752,o),
(1120,1836,cs),
(1140,1955,l),
(807,1955,l),
(800,1913,ls),
(797,1892,o),
(786,1885,o),
(770,1885,cs),
(681,1885,o),
(595,1900,o),
(506,1900,cs),
(348,1900,o),
(259,1820,o),
(233,1663,cs)
);
},
{
closed = 1;
nodes = (
(985,1389,o),
(1054,1436,o),
(1069,1527,cs),
(1086,1629,l),
(788,1629,l),
(782,1594,ls),
(780,1577,o),
(772,1569,o),
(761,1569,cs),
(737,1569,o),
(673,1600,o),
(567,1600,cs),
(558,1600,l),
(536,1463,l),
(545,1463,ls),
(681,1463,o),
(705,1389,o),
(866,1389,cs)
);
}
);
width = 959;
}
);
metricLeft = "=50";
metricRight = "=|";
script = khmer;
subCategory = Nonspacing;
unicode = 6095;
}
{
category = Mark;
glyphname = "samyoksannya-khmer";
layers = (
{
anchors = (
{
name = _topright;
pos = (600,1233);
}
);
background = {
anchors = (
{
name = _topright;
pos = (384,1233);
}
);
shapes = (
{
closed = 1;
nodes = (
(441,1459,o),
(578,1623,o),
(610,1908,c),
(563,1908,l),
(534,1655,o),
(421,1504,o),
(215,1504,cs),
(75,1504,o),
(-5,1570,o),
(-5,1668,cs),
(-5,1757,o),
(56,1819,o),
(152,1819,cs),
(179,1819,o),
(208,1814,o),
(238,1807,c),
(238,1852,l),
(209,1859,o),
(180,1864,o),
(152,1864,cs),
(32,1864,o),
(-50,1784,o),
(-50,1668,cs),
(-50,1545,o),
(51,1459,o),
(215,1459,cs)
);
}
);
};
layerId = "200BE2C5-40F6-4CF4-AF4F-A33C0CC0964F";
shapes = (
{
closed = 1;
nodes = (
(700,1459,o),
(876,1622,o),
(919,1868,cs),
(922,1885,l),
(875,1885,l),
(872,1868,ls),
(835,1649,o),
(676,1504,o),
(474,1504,cs),
(339,1504,o),
(261,1567,o),
(280,1679,cs),
(294,1767,o),
(358,1819,o),
(438,1819,cs),
(463,1819,o),
(494,1814,o),
(522,1807,c),
(529,1852,l),
(502,1859,o),
(472,1864,o),
(444,1864,cs),
(342,1864,o),
(255,1801,o),
(236,1685,cs),
(213,1545,o),
(309,1459,o),
(474,1459,cs)
);
}
);
width = 752;
},
{
anchors = (
{
name = _topright;
pos = (677,1233);
}
);
layerId = "11F4534A-B963-4AB5-820F-DAF9A20CD933";
shapes = (
{
closed = 1;
nodes = (
(819,1452,o),
(1006,1636,o),
(1063,1947,cs),
(1065,1955,l),
(891,1955,l),
(890,1947,ls),
(849,1721,o),
(734,1587,o),
(555,1587,cs),
(452,1587,o),
(392,1632,o),
(405,1710,cs),
(416,1775,o),
(470,1807,o),
(534,1807,cs),
(560,1807,o),
(582,1801,o),
(605,1794,c),
(626,1920,l),
(595,1929,o),
(556,1934,o),
(521,1934,cs),
(382,1934,o),
(266,1868,o),
(243,1724,cs),
(216,1561,o),
(325,1452,o),
(540,1452,cs)
);
}
);
width = 884;
},
{
anchors = (
{
name = _topright;
pos = (846,1233);
}
);
background = {
anchors = (
{
name = _top;
pos = (559,1233);
}
);
shapes = (
{
closed = 1;
nodes = (
(576,1893,l),
(537,1901,o),
(494,1907,o),
(445,1907,cs),
(253,1907,o),
(168,1812,o),
(168,1679,cs),
(168,1488,o),
(320,1375,o),
(598,1375,cs),
(925,1375,o),
(1112,1545,o),
(1112,1844,cs),
(1112,1955,l),
(749,1955,l),
(749,1786,ls),
(749,1679,o),
(701,1614,o),
(612,1614,cs),
(544,1614,o),
(517,1639,o),
(517,1674,cs),
(517,1707,o),
(537,1724,o),
(576,1727,c)
);
}
);
};
layerId = "D0EC06BF-13F9-4C88-A6F5-B8203AF6C77E";
shapes = (
{
closed = 1;
nodes = (
(954,1382,o),
(1221,1537,o),
(1277,1876,cs),
(1291,1955,l),
(924,1955,l),
(913,1888,ls),
(878,1675,o),
(777,1604,o),
(678,1604,cs),
(613,1604,o),
(581,1631,o),
(589,1679,cs),
(595,1719,o),
(625,1745,o),
(659,1745,cs),
(675,1745,o),
(688,1740,o),
(702,1732,c),
(733,1919,l),
(689,1932,o),
(624,1937,o),
(580,1937,cs),
(408,1937,o),
(265,1860,o),
(236,1683,cs),
(204,1492,o),
(334,1382,o),
(618,1382,cs)
);
}
);
width = 1110;
}
);
metricLeft = "=50";
metricRight = "=|";
script = khmer;
subCategory = Nonspacing;
unicode = 6096;
}
{
category = Mark;
glyphname = "viriam-khmer";
layers = (
{
anchors = (
{
name = _top;
pos = (534,1233);
}
);
layerId = "200BE2C5-40F6-4CF4-AF4F-A33C0CC0964F";
shapes = (
{
closed = 1;
nodes = (
(944,1466,l),
(951,1511,l),
(208,1511,l),
(201,1466,l)
);
}
);
width = 844;
},
{
anchors = (
{
name = _top;
pos = (587,1233);
}
);
layerId = "11F4534A-B963-4AB5-820F-DAF9A20CD933";
shapes = (
{
closed = 1;
nodes = (
(1052,1466,l),
(1072,1588,l),
(220,1588,l),
(200,1466,l)
);
}
);
width = 952;
},
{
anchors = (
{
name = _top;
pos = (687,1233);
}
);
layerId = "D0EC06BF-13F9-4C88-A6F5-B8203AF6C77E";
shapes = (
{
closed = 1;
nodes = (
(1238,1396,l),
(1276,1626,l),
(227,1626,l),
(189,1396,l)
);
}
);
width = 1149;
}
);
metricLeft = "=50";
metricRight = "=|";
script = khmer;
subCategory = Nonspacing;
unicode = 6097;
}
{
category = Mark;
glyphname = "coeng-khmer";
layers = (
{
anchors = (
{
name = _bottom;
pos = (142,0);
}
);
background = {
shapes = (
{
closed = 1;
nodes = (
(325,-307,l),
(325,-263,l),
(-42,-263,l),
(-42,-307,l)
);
},
{
closed = 1;
nodes = (
(163,-465,l),
(163,-105,l),
(120,-105,l),
(120,-465,l)
);
}
);
};
layerId = "200BE2C5-40F6-4CF4-AF4F-A33C0CC0964F";
shapes = (
{
closed = 1;
nodes = (
(274,-307,l),
(281,-263,l),
(-85,-263,l),
(-93,-307,l)
);
},
{
closed = 1;
nodes = (
(86,-465,l),
(146,-105,l),
(102,-105,l),
(43,-465,l)
);
}
);
width = 467;
},
{
anchors = (
{
name = _bottom;
pos = (177,0);
}
);
layerId = "11F4534A-B963-4AB5-820F-DAF9A20CD933";
shapes = (
{
closed = 1;
nodes = (
(333,-377,l),
(352,-263,l),
(-86,-263,l),
(-104,-377,l)
);
},
{
closed = 1;
nodes = (
(151,-535,l),
(222,-105,l),
(97,-105,l),
(26,-535,l)
);
}
);
width = 538;
},
{
anchors = (
{
name = _bottom;
pos = (214,0);
}
);
background = {
shapes = (
{
closed = 1;
nodes = (
(113,-708,l),
(382,-708,l),
(382,-93,l),
(113,-93,l)
);
},
{
closed = 1;
nodes = (
(-95,-280,l),
(-95,-520,l),
(585,-520,l),
(585,-280,l)
);
}
);
};
layerId = "D0EC06BF-13F9-4C88-A6F5-B8203AF6C77E";
shapes = (
{
closed = 1;
nodes = (
(406,-399,l),
(434,-230,l),
(-81,-230,l),
(-109,-399,l)
);
},
{
closed = 1;
nodes = (
(217,-535,l),
(291,-93,l),
(108,-93,l),
(34,-535,l)
);
}
);
width = 615;
}
);
metricLeft = "=50";
metricRight = "=|";
script = khmer;
subCategory = Nonspacing;
unicode = 6098;
}
{
category = Mark;
glyphname = "bathamasat-khmer";
layers = (
{
anchors = (
{
name = _top;
pos = (332,1233);
}
);
layerId = "200BE2C5-40F6-4CF4-AF4F-A33C0CC0964F";
shapes = (
{
closed = 1;
nodes = (
(471,1457,o),
(553,1546,o),
(573,1671,cs),
(594,1796,o),
(541,1885,o),
(439,1885,cs),
(338,1885,o),
(255,1796,o),
(234,1671,cs),
(214,1546,o),
(267,1457,o),
(369,1457,cs)
);
},
{
closed = 1;
nodes = (
(298,1500,o),
(261,1570,o),
(278,1671,cs),
(295,1772,o),
(355,1843,o),
(433,1843,cs),
(511,1843,o),
(546,1772,o),
(530,1671,cs),
(513,1570,o),
(453,1500,o),
(375,1500,cs)
);
}
);
width = 439;
},
{
anchors = (
{
name = _top;
pos = (377,1233);
}
);
layerId = "11F4534A-B963-4AB5-820F-DAF9A20CD933";
shapes = (
{
closed = 1;
nodes = (
(542,1452,o),
(646,1553,o),
(671,1703,cs),
(696,1853,o),
(625,1955,o),
(497,1955,cs),
(368,1955,o),
(264,1853,o),
(239,1703,cs),
(214,1553,o),
(284,1452,o),
(413,1452,cs)
);
},
{
closed = 1;
nodes = (
(374,1558,o),
(344,1609,o),
(360,1703,cs),
(375,1797,o),
(422,1849,o),
(479,1849,cs),
(536,1849,o),
(566,1797,o),
(550,1703,cs),
(534,1609,o),
(488,1558,o),
(431,1558,cs)
);
}
);
width = 532;
},
{
anchors = (
{
name = _top;
pos = (455,1233);
}
);
background = {
shapes = (
{
closed = 1;
nodes = (
(546,1382,o),
(637,1500,o),
(637,1668,cs),
(637,1835,o),
(546,1953,o),
(343,1953,cs),
(141,1953,o),
(50,1835,o),
(50,1668,cs),
(50,1500,o),
(141,1382,o),
(343,1382,cs)
);
},
{
closed = 1;
nodes = (
(297,1540,o),
(263,1583,o),
(263,1668,cs),
(263,1752,o),
(297,1795,o),
(343,1795,cs),
(390,1795,o),
(424,1752,o),
(424,1668,cs),
(424,1583,o),
(390,1540,o),
(343,1540,cs)
);
}
);
};
layerId = "D0EC06BF-13F9-4C88-A6F5-B8203AF6C77E";
shapes = (
{
closed = 1;
nodes = (
(657,1382,o),
(792,1495,o),
(821,1668,cs),
(849,1840,o),
(751,1953,o),
(575,1953,cs),
(398,1953,o),
(263,1840,o),
(234,1668,cs),
(206,1495,o),
(303,1382,o),
(480,1382,cs)
);
},
{
closed = 1;
nodes = (
(457,1540,o),
(434,1591,o),
(447,1668,cs),
(459,1744,o),
(500,1795,o),
(549,1795,cs),
(597,1795,o),
(621,1744,o),
(608,1668,cs),
(595,1591,o),
(554,1540,o),
(506,1540,cs)
);
}
);
width = 687;
}
);
metricLeft = "=50";
metricRight = "=|";
script = khmer;
subCategory = Nonspacing;
unicode = 6099;
}
{
glyphname = "bariyoosan-khmer";
layers = (
{
layerId = "200BE2C5-40F6-4CF4-AF4F-A33C0CC0964F";
shapes = (
{
closed = 1;
nodes = (
(777,0,l),
(982,1233,l),
(935,1233,l),
(892,974,ls),
(864,803,o),
(700,681,o),
(500,681,cs),
(317,681,o),
(218,786,o),
(246,952,cs),
(268,1089,o),
(366,1187,o),
(507,1187,cs),
(525,1187,o),
(556,1187,o),
(596,1178,c),
(604,1223,l),
(580,1228,o),
(545,1233,o),
(511,1233,cs),
(346,1233,o),
(228,1122,o),
(201,961,cs),
(169,767,o),
(291,634,o),
(499,634,cs),
(647,634,o),
(791,702,o),
(858,803,c),
(864,803,l),
(731,0,l)
);
},
{
closed = 1;
nodes = (
(1041,0,l),
(1245,1233,l),
(1199,1233,l),
(994,0,l)
);
}
);
width = 1354;
},
{
layerId = "11F4534A-B963-4AB5-820F-DAF9A20CD933";
shapes = (
{
closed = 1;
nodes = (
(888,0,l),
(1092,1233,l),
(925,1233,l),
(895,1054,ls),
(868,887,o),
(733,749,o),
(556,749,cs),
(421,749,o),
(359,831,o),
(376,936,cs),
(393,1039,o),
(476,1105,o),
(572,1105,cs),
(595,1105,o),
(617,1102,o),
(636,1096,c),
(660,1239,l),
(636,1244,o),
(610,1248,o),
(577,1248,cs),
(393,1248,o),
(236,1145,o),
(204,947,cs),
(167,727,o),
(317,604,o),
(523,604,cs),
(684,604,o),
(783,679,o),
(835,741,c),
(844,741,l),
(721,0,l)
);
},
{
closed = 1;
nodes = (
(1236,0,l),
(1440,1233,l),
(1273,1233,l),
(1068,0,l)
);
}
);
width = 1531;
},
{
layerId = "D0EC06BF-13F9-4C88-A6F5-B8203AF6C77E";
shapes = (
{
closed = 1;
nodes = (
(1091,0,l),
(1295,1233,l),
(901,1233,l),
(869,1041,ls),
(847,907,o),
(764,813,o),
(645,813,cs),
(569,813,o),
(532,852,o),
(541,909,cs),
(550,963,o),
(591,981,o),
(631,981,cs),
(651,981,o),
(669,977,o),
(684,972,c),
(775,1225,l),
(726,1239,o),
(657,1248,o),
(593,1248,cs),
(354,1248,o),
(185,1139,o),
(147,912,cs),
(111,695,o),
(228,536,o),
(497,536,cs),
(615,536,o),
(718,567,o),
(797,660,c),
(806,660,l),
(697,0,l)
);
},
{
closed = 1;
nodes = (
(1581,0,l),
(1785,1233,l),
(1435,1233,l),
(1231,0,l)
);
}
);
width = 1825;
}
);
metricLeft = "=khan-khmer";
metricRight = "=khan-khmer";
unicode = 6101;
}
{
glyphname = "camnucpiikuuh-khmer";
layers = (
{
background = {
shapes = (
{
closed = 1;
nodes = (
(497,804,o),
(575,884,o),
(575,985,cs),
(575,1086,o),
(497,1165,o),
(399,1165,cs),
(300,1165,o),
(222,1086,o),
(222,985,cs),
(222,884,o),
(300,804,o),
(399,804,cs)
);
},
{
closed = 1;
nodes = (
(497,68,o),
(575,148,o),
(575,249,cs),
(575,350,o),
(497,429,o),
(399,429,cs),
(300,429,o),
(222,350,o),
(222,249,cs),
(222,148,o),
(300,68,o),
(399,68,cs)
);
},
{
closed = 1;
nodes = (
(324,111,o),
(265,172,o),
(265,249,cs),
(265,326,o),
(324,387,o),
(399,387,cs),
(473,387,o),
(532,326,o),
(532,249,cs),
(532,172,o),
(473,111,o),
(399,111,cs)
);
},
{
closed = 1;
nodes = (
(740,595,l),
(740,639,l),
(87,639,l),
(87,595,l)
);
},
{
closed = 1;
nodes = (
(324,847,o),
(265,908,o),
(265,985,cs),
(265,1062,o),
(324,1123,o),
(399,1123,cs),
(473,1123,o),
(532,1062,o),
(532,985,cs),
(532,908,o),
(473,847,o),
(399,847,cs)
);
}
);
};
layerId = "200BE2C5-40F6-4CF4-AF4F-A33C0CC0964F";
shapes = (
{
closed = 1;
nodes = (
(538,804,o),
(629,884,o),
(646,985,cs),
(663,1086,o),
(598,1165,o),
(499,1165,cs),
(400,1165,o),
(309,1086,o),
(292,985,cs),
(276,884,o),
(340,804,o),
(439,804,cs)
);
},
{
closed = 1;
nodes = (
(372,847,o),
(324,908,o),
(336,985,cs),
(349,1062,o),
(418,1123,o),
(492,1123,cs),
(567,1123,o),
(615,1062,o),
(602,985,cs),
(590,908,o),
(521,847,o),
(447,847,cs)
);
},
{
closed = 1;
nodes = (
(417,68,o),
(508,148,o),
(524,249,cs),
(541,350,o),
(476,429,o),
(377,429,cs),
(279,429,o),
(188,350,o),
(171,249,cs),
(154,148,o),
(219,68,o),
(318,68,cs)
);
},
{
closed = 1;
nodes = (
(250,111,o),
(201,172,o),
(215,249,cs),
(227,326,o),
(296,387,o),
(370,387,cs),
(444,387,o),
(493,326,o),
(481,249,cs),
(468,172,o),
(399,111,o),
(324,111,cs)
);
},
{
closed = 1;
nodes = (
(746,595,l),
(753,639,l),
(100,639,l),
(93,595,l)
);
}
);
width = 828;
},
{
layerId = "11F4534A-B963-4AB5-820F-DAF9A20CD933";
shapes = (
{
closed = 1;
nodes = (
(553,775,o),
(667,868,o),
(687,985,cs),
(706,1103,o),
(623,1196,o),
(496,1196,cs),
(369,1196,o),
(255,1103,o),
(236,985,cs),
(216,868,o),
(300,775,o),
(426,775,cs)
);
},
{
closed = 1;
nodes = (
(395,893,o),
(362,933,o),
(371,985,cs),
(380,1038,o),
(425,1078,o),
(476,1078,cs),
(527,1078,o),
(560,1038,o),
(551,985,cs),
(543,933,o),
(496,893,o),
(446,893,cs)
);
},
{
closed = 1;
nodes = (
(431,36,o),
(545,129,o),
(564,247,cs),
(584,364,o),
(500,457,o),
(374,457,cs),
(247,457,o),
(133,364,o),
(113,247,cs),
(94,129,o),
(177,36,o),
(304,36,cs)
);
},
{
closed = 1;
nodes = (
(273,154,o),
(240,194,o),
(249,247,cs),
(257,299,o),
(303,339,o),
(354,339,cs),
(404,339,o),
(438,299,o),
(429,247,cs),
(420,194,o),
(374,154,o),
(324,154,cs)
);
},
{
closed = 1;
nodes = (
(720,551,l),
(742,681,l),
(80,681,l),
(58,551,l)
);
}
);
width = 781;
},
{
layerId = "D0EC06BF-13F9-4C88-A6F5-B8203AF6C77E";
shapes = (
{
closed = 1;
nodes = (
(622,785,o),
(728,877,o),
(749,1006,cs),
(770,1135,o),
(695,1226,o),
(524,1226,cs),
(353,1226,o),
(247,1135,o),
(225,1006,cs),
(204,877,o),
(280,785,o),
(451,785,cs)
);
},
{
closed = 1;
nodes = (
(433,930,o),
(408,960,o),
(415,1006,cs),
(423,1052,o),
(458,1081,o),
(500,1081,cs),
(541,1081,o),
(567,1052,o),
(559,1006,cs),
(552,960,o),
(516,930,o),
(475,930,cs)
);
},
{
closed = 1;
nodes = (
(493,7,o),
(599,99,o),
(620,228,cs),
(641,356,o),
(566,448,o),
(395,448,cs),
(224,448,o),
(118,356,o),
(97,228,cs),
(76,99,o),
(151,7,o),
(322,7,cs)
);
},
{
closed = 1;
nodes = (
(303,152,o),
(279,183,o),
(287,228,cs),
(294,273,o),
(328,303,o),
(371,303,cs),
(414,303,o),
(438,273,o),
(431,228,cs),
(423,183,o),
(389,152,o),
(346,152,cs)
);
},
{
closed = 1;
nodes = (
(775,535,l),
(801,698,l),
(71,698,l),
(44,535,l)
);
}
);
width = 785;
}
);
unicode = 6102;
}
{
glyphname = "lektoo-khmer";
layers = (
{
layerId = "200BE2C5-40F6-4CF4-AF4F-A33C0CC0964F";
shapes = (
{
closed = 1;
nodes = (
(337,-559,ls),
(626,-559,o),
(751,-449,o),
(797,-171,cs),
(999,1049,ls),
(1018,1163,o),
(958,1239,o),
(855,1239,cs),
(762,1239,o),
(672,1178,o),
(620,1087,c),
(618,1087,l),
(597,1178,o),
(527,1239,o),
(435,1239,cs),
(331,1239,o),
(246,1163,o),
(227,1049,cs),
(190,827,ls),
(171,711,o),
(230,645,o),
(340,645,cs),
(370,645,o),
(399,650,o),
(423,659,c),
(430,703,l),
(406,694,o),
(375,689,o),
(349,689,cs),
(266,689,o),
(223,740,o),
(236,827,cs),
(273,1049,ls),
(288,1137,o),
(354,1196,o),
(431,1196,cs),
(513,1196,o),
(570,1129,o),
(593,1025,c),
(624,1025,l),
(684,1133,o),
(765,1196,o),
(844,1196,cs),
(920,1196,o),
(967,1137,o),
(953,1049,cs),
(751,-171,ls),
(710,-419,o),
(603,-512,o),
(344,-512,cs),
(228,-512,l),
(221,-559,l)
);
}
);
width = 1139;
},
{
layerId = "11F4534A-B963-4AB5-820F-DAF9A20CD933";
shapes = (
{
closed = 1;
nodes = (
(375,-559,ls),
(655,-559,o),
(842,-401,o),
(888,-125,cs),
(1076,1014,ls),
(1100,1159,o),
(1030,1248,o),
(893,1248,cs),
(793,1248,o),
(712,1203,o),
(668,1134,c),
(660,1134,l),
(637,1203,o),
(571,1248,o),
(472,1248,cs),
(340,1248,o),
(237,1164,o),
(213,1021,cs),
(177,800,ls),
(151,640,o),
(215,551,o),
(383,551,cs),
(431,551,o),
(466,559,o),
(490,566,c),
(512,698,l),
(481,688,o),
(465,685,o),
(445,685,cs),
(369,685,o),
(332,729,o),
(344,800,cs),
(378,1008,ls),
(388,1065,o),
(436,1102,o),
(493,1102,cs),
(559,1102,o),
(598,1049,o),
(607,977,c),
(668,977,l),
(703,1049,o),
(759,1102,o),
(825,1102,cs),
(881,1102,o),
(917,1065,o),
(908,1008,cs),
(721,-125,ls),
(689,-313,o),
(572,-422,o),
(398,-422,cs),
(281,-422,l),
(258,-559,l)
);
}
);
width = 1203;
},
{
layerId = "D0EC06BF-13F9-4C88-A6F5-B8203AF6C77E";
shapes = (
{
closed = 1;
nodes = (
(391,-559,ls),
(766,-559,o),
(985,-388,o),
(1041,-55,cs),
(1208,959,ls),
(1237,1133,o),
(1148,1248,o),
(972,1248,cs),
(867,1248,o),
(783,1207,o),
(715,1132,c),
(705,1132,l),
(660,1209,o),
(589,1248,o),
(486,1248,cs),
(324,1248,o),
(181,1153,o),
(149,959,cs),
(121,793,ls),
(88,587,o),
(210,503,o),
(395,503,cs),
(490,503,o),
(581,525,o),
(626,551,c),
(601,764,l),
(589,759,o),
(575,755,o),
(559,755,cs),
(524,755,o),
(513,774,o),
(519,808,cs),
(529,876,ls),
(536,915,o),
(565,937,o),
(595,937,cs),
(622,937,o),
(641,919,o),
(641,889,c),
(692,889,l),
(704,920,o),
(725,937,o),
(755,937,cs),
(788,937,o),
(807,915,o),
(800,876,cs),
(647,-47,ls),
(622,-203,o),
(532,-283,o),
(384,-283,cs),
(324,-283,l),
(279,-559,l)
);
}
);
width = 1279;
}
);
unicode = 6103;
}
